{
classes = (
{
automatic = 1;
code = "iMatra-deva";
name = DevaIMatras;
},
{
automatic = 1;
code = "ka-deva kha-deva ga-deva gha-deva nga-deva ca-deva cha-deva ja-deva jha-deva nya-deva tta-deva ttha-deva dda-deva ddha-deva nna-deva ta-deva tha-deva da-deva dha-deva na-deva pa-deva pha-deva ba-deva bha-deva ma-deva ya-deva ra-deva rra-deva la-deva lla-deva va-deva sha-deva ssa-deva sa-deva ha-deva";
name = DevaFullforms;
}
);
copyright = "Copyright (c) 2014, Impallari Type (www.impallari.com), with Reserved Font Name Amika.";
customParameters = (
{
name = openTypeOS2Type;
value = (
);
},
{
name = licenseURL;
value = "http://scripts.sil.org/OFL";
},
{
name = license;
value = "This Font Software is licensed under the SIL Open Font License, Version 1.1. This license is available with a FAQ at: http://scripts.sil.org/OFL";
},
{
name = trademark;
value = "Amika is a trademark of Impallari Type.";
},
{
name = description;
value = "Amika is a clean and utilitarian font family specifically designed for maximum legibility at the smallest possible sizes ranges. They are intended for body text on the web and low resolution screens. Amika supports Latin and Devanagari scripts.";
},
{
name = vendorID;
value = IMPA;
}
);
date = "2015-04-08 16:30:50 +0000";
designer = "Pablo Impallari, Rodrigo Fuenzalida";
designerURL = "http://www.impallari.com/";
familyName = "Amika";
featurePrefixes = (
{
automatic = 1;
code = "languagesystem DFLT dflt;\012languagesystem dev2 dflt;\012languagesystem deva dflt;\012languagesystem deva dflt;\012";
name = Languagesystems;
},
{
automatic = 1;

glyphs = (
{
glyphname = A;
lastChange = "2015-05-28 18:29:24 +0000";
layers = (
{
layerId = UUID0;
name = Regular;
paths = (
{
closed = 1;
nodes = (
"660 0 LINE",
"396 696 LINE",
"303 696 LINE",
"567 0 LINE"
);
},
{
closed = 1;
nodes = (
"110 0 LINE",
"374 696 LINE",
"286 696 LINE",
"22 0 LINE"
);
},
{
closed = 1;
nodes = (
"528 174 LINE",
"528 249 LINE",
"154 249 LINE",
"154 174 LINE"
);
}
);
width = 682;
},
{
layerId = "CD42366C-28E1-4C24-AB95-7D2C522D2B07";
name = Bold;
paths = (
{
closed = 1;
nodes = (
"682 0 LINE",
"418 696 LINE",
"281 696 LINE",
"545 0 LINE"
);
},
{
closed = 1;
nodes = (
"132 0 LINE",
"396 696 LINE",
"264 696 LINE",
"0 0 LINE"
);
},
{
closed = 1;
nodes = (
"528 158 LINE",
"528 270 LINE",
"154 270 LINE",
"154 158 LINE"
);
}
);
width = 682;
}
);
unicode = 0041;
},
{
glyphname = AE;
lastChange = "2015-05-28 18:37:07 +0000";
layers = (
{
layerId = UUID0;
name = Regular;
paths = (
{
closed = 1;
nodes = (
"451 0 LINE",
"858 0 LINE",
"858 84 LINE",
"539 84 LINE",
"539 312 LINE",
"836 312 LINE",
"836 392 LINE",
"539 392 LINE",
"539 612 LINE",
"858 612 LINE",
"858 696 LINE",
"383 696 LINE",
"22 0 LINE",
"118 0 LINE",
"209 174 LINE",
"451 174 LINE"
);
},
{
closed = 1;
nodes = (
"248 249 LINE",
"451 637 LINE",
"451 249 LINE"
);
}
);
width = 924;
},
{
layerId = "CD42366C-28E1-4C24-AB95-7D2C522D2B07";
name = Bold;
paths = (
{
closed = 1;
nodes = (
"451 0 LINE",
"880 0 LINE",
"880 117 LINE",
"583 117 LINE",
"583 297 LINE",
"858 297 LINE",
"858 407 LINE",
"583 407 LINE",
"583 579 LINE",
"880 579 LINE",
"880 696 LINE",
"361 696 LINE",
"0 0 LINE",
"140 0 LINE",
"225 161 LINE",
"451 161 LINE"
);
},
{
closed = 1;
nodes = (
"280 269 LINE",
"451 595 LINE",
"451 269 LINE"
);
}
);
width = 924;
}
);
unicode = 00C6;
},
{
glyphname = B;
lastChange = "2015-05-28 18:29:58 +0000";
layers = (
{
layerId = UUID0;
name = Regular;
paths = (
{
closed = 1;
nodes = (
"369 330 LINE SMOOTH",
"507 330 OFFCURVE",
"594 385 OFFCURVE",
"594 514 CURVE SMOOTH",
"594 639 OFFCURVE",
"513 696 OFFCURVE",
"381 696 CURVE SMOOTH",
"176 696 LINE",
"176 612 LINE",
"370 612 LINE SMOOTH",
"457 612 OFFCURVE",
"499 591 OFFCURVE",
"499 510 CURVE SMOOTH",
"499 424 OFFCURVE",
"459 397 OFFCURVE",
"369 397 CURVE SMOOTH",
"176 397 LINE",
"176 330 LINE"
);
},
{
closed = 1;
nodes = (
"369 0 LINE SMOOTH",
"519 0 OFFCURVE",
"616 56 OFFCURVE",
"616 195 CURVE SMOOTH",
"616 330 OFFCURVE",
"525 386 OFFCURVE",
"381 386 CURVE SMOOTH",
"198 386 LINE",
"198 696 LINE",
"110 696 LINE",
"110 0 LINE"
);
},
{
closed = 1;
nodes = (
"198 314 LINE",
"370 314 LINE SMOOTH",
"471 314 OFFCURVE",
"521 292 OFFCURVE",
"521 199 CURVE SMOOTH",
"521 106 OFFCURVE",
"471 84 OFFCURVE",
"369 84 CURVE SMOOTH",
"198 84 LINE"
);
}
);
width = 682;
},
{
layerId = "CD42366C-28E1-4C24-AB95-7D2C522D2B07";
name = Bold;
paths = (
{
closed = 1;
nodes = (
"369 330 LINE SMOOTH",
"530 330 OFFCURVE",
"616 394 OFFCURVE",
"616 513 CURVE SMOOTH",
"616 631 OFFCURVE",
"532 696 OFFCURVE",
"381 696 CURVE SMOOTH",
"176 696 LINE",
"176 580 LINE",
"370 580 LINE SMOOTH",
"450 580 OFFCURVE",
"477 561 OFFCURVE",
"477 500 CURVE SMOOTH",
"477 444 OFFCURVE",
"441 414 OFFCURVE",
"369 414 CURVE SMOOTH",
"176 414 LINE",
"176 330 LINE"
);
},
{
closed = 1;
nodes = (
"369 0 LINE SMOOTH",
"544 0 OFFCURVE",
"638 68 OFFCURVE",
"638 195 CURVE SMOOTH",
"638 319 OFFCURVE",
"548 386 OFFCURVE",
"381 386 CURVE SMOOTH",
"220 386 LINE",
"220 696 LINE",
"88 696 LINE",
"88 0 LINE"
);
},
{
closed = 1;
nodes = (
"220 299 LINE",
"370 299 LINE SMOOTH",
"458 299 OFFCURVE",
"499 270 OFFCURVE",
"499 208 CURVE SMOOTH",
"499 141 OFFCURVE",
"464 117 OFFCURVE",
"369 117 CURVE SMOOTH",
"220 117 LINE"
);
}
);
width = 682;
}
);
unicode = 0042;
},
{
glyphname = C;
lastChange = "2015-05-28 17:59:49 +0000";
layers = (
{
layerId = UUID0;
name = Regular;
paths = (
{
closed = 1;
nodes = (
"483 -12 OFFCURVE",
"547 8 OFFCURVE",
"616 63 CURVE",
"616 152 LINE",
"612 152 LINE",
"545 98 OFFCURVE",
"485 72 OFFCURVE",
"408 72 CURVE SMOOTH",
"245 72 OFFCURVE",
"161 187 OFFCURVE",
"161 348 CURVE SMOOTH",
"161 510 OFFCURVE",
"249 625 OFFCURVE",
"417 625 CURVE SMOOTH",
"481 625 OFFCURVE",
"535 608 OFFCURVE",
"599 565 CURVE",
"603 565 LINE",
"603 653 LINE",
"536 696 OFFCURVE",
"478 708 OFFCURVE",
"414 708 CURVE SMOOTH",
"190 708 OFFCURVE",
"66 562 OFFCURVE",
"66 348 CURVE SMOOTH",
"66 135 OFFCURVE",
"187 -12 OFFCURVE",
"404 -12 CURVE SMOOTH"
);
}
);
width = 682;
},
{
layerId = "CD42366C-28E1-4C24-AB95-7D2C522D2B07";
name = Bold;
paths = (
{
closed = 1;
nodes = (
"496 -12 OFFCURVE",
"580 17 OFFCURVE",
"638 68 CURVE",
"638 190 LINE",
"634 190 LINE",
"570 135 OFFCURVE",
"486 105 OFFCURVE",
"412 105 CURVE SMOOTH",
"272 105 OFFCURVE",
"183 190 OFFCURVE",
"183 348 CURVE SMOOTH",
"183 507 OFFCURVE",
"274 592 OFFCURVE",
"418 592 CURVE SMOOTH",
"481 592 OFFCURVE",
"562 572 OFFCURVE",
"621 527 CURVE",
"625 527 LINE",
"625 648 LINE",
"572 689 OFFCURVE",
"485 708 OFFCURVE",
"407 708 CURVE SMOOTH",
"176 708 OFFCURVE",
"44 567 OFFCURVE",
"44 348 CURVE SMOOTH",
"44 129 OFFCURVE",
"174 -12 OFFCURVE",
"401 -12 CURVE SMOOTH"
);
}
);
width = 682;
}
);
unicode = 0043;
},
{
glyphname = D;
lastChange = "2015-05-28 17:59:49 +0000";
layers = (
{
layerId = UUID0;
name = Regular;
paths = (
{
closed = 1;
nodes = (
"198 0 LINE",
"198 696 LINE",
"110 696 LINE",
"110 0 LINE"
);
},
{
closed = 1;
nodes = (
"365 0 LINE SMOOTH",
"574 0 OFFCURVE",
"684 133 OFFCURVE",
"684 348 CURVE SMOOTH",
"684 563 OFFCURVE",
"574 696 OFFCURVE",
"365 696 CURVE SMOOTH",
"154 696 LINE",
"154 612 LINE",
"372 612 LINE SMOOTH",
"521 612 OFFCURVE",
"589 507 OFFCURVE",
"589 348 CURVE SMOOTH",
"589 189 OFFCURVE",
"521 84 OFFCURVE",
"372 84 CURVE SMOOTH",
"154 84 LINE",
"154 0 LINE"
);
}
);
width = 748;
},
{
layerId = "CD42366C-28E1-4C24-AB95-7D2C522D2B07";
name = Bold;
paths = (
{
closed = 1;
nodes = (
"220 0 LINE",
"220 696 LINE",
"88 696 LINE",
"88 0 LINE"
);
},
{
closed = 1;
nodes = (
"365 0 LINE SMOOTH",
"582 0 OFFCURVE",
"706 136 OFFCURVE",
"706 348 CURVE SMOOTH",
"706 560 OFFCURVE",
"582 696 OFFCURVE",
"365 696 CURVE SMOOTH",
"154 696 LINE",
"154 579 LINE",
"365 579 LINE SMOOTH",
"489 579 OFFCURVE",
"567 502 OFFCURVE",
"567 348 CURVE SMOOTH",
"567 194 OFFCURVE",
"489 117 OFFCURVE",
"365 117 CURVE SMOOTH",
"154 117 LINE",
"154 0 LINE"
);
}
);
width = 748;
}
);
unicode = 0044;
},
{
glyphname = E;
lastChange = "2015-05-28 17:59:49 +0000";
layers = (
{
layerId = UUID0;
name = Regular;
paths = (
{
closed = 1;
nodes = (
"110 0 LINE",
"594 0 LINE",
"594 84 LINE",
"198 84 LINE",
"198 612 LINE",
"594 612 LINE",
"594 696 LINE",
"110 696 LINE"
);
},
{
closed = 1;
nodes = (
"572 312 LINE",
"572 392 LINE",
"154 392 LINE",
"154 312 LINE"
);
}
);
width = 660;
},
{
layerId = "CD42366C-28E1-4C24-AB95-7D2C522D2B07";
name = Bold;
paths = (
{
closed = 1;
nodes = (
"88 0 LINE",
"594 0 LINE",
"594 116 LINE",
"220 116 LINE",
"220 580 LINE",
"594 580 LINE",
"594 696 LINE",
"88 696 LINE"
);
},
{
closed = 1;
nodes = (
"572 297 LINE",
"572 406 LINE",
"154 406 LINE",
"154 297 LINE"
);
}
);
width = 660;
}
);
unicode = 0045;
},
{
glyphname = F;
lastChange = "2015-05-28 17:59:49 +0000";
layers = (
{
layerId = UUID0;
name = Regular;
paths = (
{
closed = 1;
nodes = (
"594 612 LINE",
"594 696 LINE",
"110 696 LINE",
"110 0 LINE",
"198 0 LINE",
"198 612 LINE"
);
},
{
closed = 1;
nodes = (
"528 300 LINE",
"528 380 LINE",
"154 380 LINE",
"154 300 LINE"
);
}
);
width = 638;
},
{
layerId = "CD42366C-28E1-4C24-AB95-7D2C522D2B07";
name = Bold;
paths = (
{
closed = 1;
nodes = (
"594 580 LINE",
"594 696 LINE",
"88 696 LINE",
"88 0 LINE",
"220 0 LINE",
"220 580 LINE"
);
},
{
closed = 1;
nodes = (
"528 285 LINE",
"528 395 LINE",
"154 395 LINE",
"154 285 LINE"
);
}
);
width = 638;
}
);
unicode = 0046;
},
{
glyphname = G;
lastChange = "2015-05-28 17:59:49 +0000";
layers = (
{
layerId = UUID0;
name = Regular;
paths = (
{
closed = 1;
nodes = (
"496 -12 OFFCURVE",
"585 46 OFFCURVE",
"649 157 CURVE",
"649 233 LINE",
"634 233 LINE",
"568 136 OFFCURVE",
"496 71 OFFCURVE",
"380 71 CURVE SMOOTH",
"234 71 OFFCURVE",
"161 193 OFFCURVE",
"161 351 CURVE SMOOTH",
"161 510 OFFCURVE",
"249 625 OFFCURVE",
"401 625 CURVE SMOOTH",
"483 625 OFFCURVE",
"544 606 OFFCURVE",
"612 559 CURVE",
"616 559 LINE",
"616 647 LINE",
"546 694 OFFCURVE",
"482 708 OFFCURVE",
"397 708 CURVE SMOOTH",
"191 708 OFFCURVE",
"66 560 OFFCURVE",
"66 348 CURVE SMOOTH",
"66 141 OFFCURVE",
"174 -12 OFFCURVE",
"369 -12 CURVE SMOOTH"
);
},
{
closed = 1;
nodes = (
"418 290 LINE",
"660 290 LINE",
"660 367 LINE",
"418 367 LINE"
);
},
{
closed = 1;
nodes = (
"594 0 LINE",
"660 0 LINE",
"660 309 LINE",
"572 309 LINE",
"572 116 LINE"
);
}
);
width = 726;
},
{
layerId = "CD42366C-28E1-4C24-AB95-7D2C522D2B07";
name = Bold;
paths = (
{
closed = 1;
nodes = (
"487 -12 OFFCURVE",
"584 46 OFFCURVE",
"649 157 CURVE",
"649 255 LINE",
"634 255 LINE",
"564 159 OFFCURVE",
"473 104 OFFCURVE",
"382 104 CURVE SMOOTH",
"261 104 OFFCURVE",
"183 203 OFFCURVE",
"183 351 CURVE SMOOTH",
"183 501 OFFCURVE",
"264 592 OFFCURVE",
"405 592 CURVE SMOOTH",
"479 592 OFFCURVE",
"569 567 OFFCURVE",
"634 526 CURVE",
"638 526 LINE",
"638 647 LINE",
"579 683 OFFCURVE",
"491 708 OFFCURVE",
"399 708 CURVE SMOOTH",
"182 708 OFFCURVE",
"44 571 OFFCURVE",
"44 348 CURVE SMOOTH",
"44 131 OFFCURVE",
"175 -12 OFFCURVE",
"366 -12 CURVE SMOOTH"
);
},
{
closed = 1;
nodes = (
"418 257 LINE",
"682 257 LINE",
"682 367 LINE",
"418 367 LINE"
);
},
{
closed = 1;
nodes = (
"594 0 LINE",
"682 0 LINE",
"682 309 LINE",
"550 309 LINE",
"550 116 LINE"
);
}
);
width = 726;
}
);
unicode = 0047;
},
{
glyphname = H;
lastChange = "2015-05-28 17:59:49 +0000";
layers = (
{
guideLines = (
{
position = "{375, 996}";
}
);
layerId = UUID0;
name = Regular;
paths = (
{
closed = 1;
nodes = (
"110 0 LINE",
"198 0 LINE",
"198 696 LINE",
"110 696 LINE"
);
},
{
closed = 1;
nodes = (
"572 0 LINE",
"660 0 LINE",
"660 696 LINE",
"572 696 LINE"
);
},
{
closed = 1;
nodes = (
"616 322 LINE",
"616 406 LINE",
"154 406 LINE",
"154 322 LINE"
);
}
);
width = 770;
},
{
layerId = "CD42366C-28E1-4C24-AB95-7D2C522D2B07";
name = Bold;
paths = (
{
closed = 1;
nodes = (
"88 0 LINE",
"220 0 LINE",
"220 696 LINE",
"88 696 LINE"
);
},
{
closed = 1;
nodes = (
"550 0 LINE",
"682 0 LINE",
"682 696 LINE",
"550 696 LINE"
);
},
{
closed = 1;
nodes = (
"616 306 LINE",
"616 423 LINE",
"154 423 LINE",
"154 306 LINE"
);
}
);
width = 770;
}
);
unicode = 0048;
},
{
glyphname = I;
lastChange = "2015-05-28 17:59:49 +0000";
layers = (
{
layerId = UUID0;
name = Regular;
paths = (
{
closed = 1;
nodes = (
"286 58 LINE",
"286 638 LINE",
"198 638 LINE",
"198 58 LINE"
);
},
{
closed = 1;
nodes = (
"418 0 LINE",
"418 77 LINE",
"66 77 LINE",
"66 0 LINE"
);
},
{
closed = 1;
nodes = (
"418 619 LINE",
"418 696 LINE",
"66 696 LINE",
"66 619 LINE"
);
}
);
width = 484;
},
{
layerId = "CD42366C-28E1-4C24-AB95-7D2C522D2B07";
name = Bold;
paths = (
{
closed = 1;
nodes = (
"308 58 LINE",
"308 638 LINE",
"176 638 LINE",
"176 58 LINE"
);
},
{
closed = 1;
nodes = (
"418 0 LINE",
"418 115 LINE",
"66 115 LINE",
"66 0 LINE"
);
},
{
closed = 1;
nodes = (
"418 581 LINE",
"418 696 LINE",
"66 696 LINE",
"66 581 LINE"
);
}
);
width = 484;
}
);
unicode = 0049;
},
{
glyphname = J;
lastChange = "2015-05-28 17:59:49 +0000";
layers = (
{
layerId = UUID0;
name = Regular;
paths = (
{
closed = 1;
nodes = (
"176 612 LINE",
"418 612 LINE",
"418 247 LINE SMOOTH",
"418 143 OFFCURVE",
"372 71 OFFCURVE",
"275 71 CURVE SMOOTH",
"178 71 OFFCURVE",
"132 143 OFFCURVE",
"132 247 CURVE SMOOTH",
"132 261 LINE",
"44 261 LINE",
"44 244 LINE SMOOTH",
"44 89 OFFCURVE",
"125 -12 OFFCURVE",
"275 -12 CURVE SMOOTH",
"425 -12 OFFCURVE",
"506 89 OFFCURVE",
"506 244 CURVE SMOOTH",
"506 696 LINE",
"176 696 LINE"
);
}
);
width = 594;
},
{
layerId = "CD42366C-28E1-4C24-AB95-7D2C522D2B07";
name = Bold;
paths = (
{
closed = 1;
nodes = (
"176 579 LINE",
"396 579 LINE",
"396 247 LINE SMOOTH",
"396 148 OFFCURVE",
"350 104 OFFCURVE",
"277 104 CURVE SMOOTH",
"200 104 OFFCURVE",
"154 154 OFFCURVE",
"154 247 CURVE SMOOTH",
"154 261 LINE",
"22 261 LINE",
"22 244 LINE SMOOTH",
"22 85 OFFCURVE",
"116 -12 OFFCURVE",
"278 -12 CURVE SMOOTH",
"432 -12 OFFCURVE",
"528 75 OFFCURVE",
"528 244 CURVE SMOOTH",
"528 696 LINE",
"176 696 LINE"
);
}
);
width = 594;
}
);
unicode = 004A;
},
{
glyphname = K;
lastChange = "2015-05-28 17:59:49 +0000";
layers = (
{
layerId = UUID0;
name = Regular;
paths = (
{
closed = 1;
nodes = (
"198 0 LINE",
"198 696 LINE",
"110 696 LINE",
"110 0 LINE"
);
},
{
closed = 1;
nodes = (
"181 199 LINE",
"660 696 LINE",
"553 696 LINE",
"167 295 LINE"
);
},
{
closed = 1;
nodes = (
"682 0 LINE",
"369 405 LINE",
"287 361 LINE",
"564 0 LINE"
);
}
);
width = 704;
},
{
layerId = "CD42366C-28E1-4C24-AB95-7D2C522D2B07";
name = Bold;
paths = (
{
closed = 1;
nodes = (
"220 0 LINE",
"220 696 LINE",
"88 696 LINE",
"88 0 LINE"
);
},
{
closed = 1;
nodes = (
"203 199 LINE",
"682 696 LINE",
"520 696 LINE",
"134 295 LINE"
);
},
{
closed = 1;
nodes = (
"704 0 LINE",
"391 405 LINE",
"260 361 LINE",
"537 0 LINE"
);
}
);
width = 704;
}
);
unicode = 004B;
},
{
glyphname = L;
lastChange = "2015-05-28 17:59:49 +0000";
layers = (
{
layerId = UUID0;
name = Regular;
paths = (
{
closed = 1;
nodes = (
"572 0 LINE",
"572 84 LINE",
"198 84 LINE",
"198 696 LINE",
"110 696 LINE",
"110 0 LINE"
);
}
);
width = 616;
},
{
layerId = "CD42366C-28E1-4C24-AB95-7D2C522D2B07";
name = Bold;
paths = (
{
closed = 1;
nodes = (
"572 0 LINE",
"572 116 LINE",
"220 116 LINE",
"220 696 LINE",
"88 696 LINE",
"88 0 LINE"
);
}
);
width = 616;
}
);
unicode = 004C;
},
{
glyphname = M;
lastChange = "2015-05-28 17:59:49 +0000";
layers = (
{
layerId = UUID0;
name = Regular;
paths = (
{
closed = 1;
nodes = (
"413 0 LINE",
"506 0 LINE",
"258 696 LINE",
"165 696 LINE"
);
},
{
closed = 1;
nodes = (
"427 0 LINE",
"515 0 LINE",
"757 696 LINE",
"669 696 LINE"
);
},
{
closed = 1;
nodes = (
"110 0 LINE",
"198 0 LINE",
"198 696 LINE",
"110 696 LINE"
);
},
{
closed = 1;
nodes = (
"726 0 LINE",
"814 0 LINE",
"814 696 LINE",
"726 696 LINE"
);
}
);
width = 924;
},
{
layerId = "CD42366C-28E1-4C24-AB95-7D2C522D2B07";
name = Bold;
paths = (
{
closed = 1;
nodes = (
"391 0 LINE",
"528 0 LINE",
"280 696 LINE",
"143 696 LINE"
);
},
{
closed = 1;
nodes = (
"405 0 LINE",
"537 0 LINE",
"779 696 LINE",
"647 696 LINE"
);
},
{
closed = 1;
nodes = (
"88 0 LINE",
"220 0 LINE",
"220 696 LINE",
"88 696 LINE"
);
},
{
closed = 1;
nodes = (
"704 0 LINE",
"836 0 LINE",
"836 696 LINE",
"704 696 LINE"
);
}
);
width = 924;
}
);
unicode = 004D;
},
{
glyphname = N;
lastChange = "2015-05-28 18:30:50 +0000";
layers = (
{
layerId = UUID0;
name = Regular;
paths = (
{
closed = 1;
nodes = (
"198 0 LINE",
"198 696 LINE",
"110 696 LINE",
"110 0 LINE"
);
},
{
closed = 1;
nodes = (
"682 0 LINE",
"682 696 LINE",
"594 696 LINE",
"594 0 LINE"
);
},
{
closed = 1;
nodes = (
"594 0 LINE",
"676 30 LINE",
"198 696 LINE",
"116 666 LINE"
);
}
);
width = 792;
},
{
layerId = "CD42366C-28E1-4C24-AB95-7D2C522D2B07";
name = Bold;
paths = (
{
closed = 1;
nodes = (
"220 0 LINE",
"220 696 LINE",
"88 696 LINE",
"88 0 LINE"
);
},
{
closed = 1;
nodes = (
"704 0 LINE",
"704 696 LINE",
"572 696 LINE",
"572 0 LINE"
);
},
{
closed = 1;
nodes = (
"572 0 LINE",
"691 55 LINE",
"220 696 LINE",
"101 642 LINE"
);
}
);
width = 792;
}
);
unicode = 004E;
},
{
glyphname = O;
lastChange = "2015-05-28 17:59:49 +0000";
layers = (
{
layerId = UUID0;
name = Regular;
paths = (
{
closed = 1;
nodes = (
"590 -12 OFFCURVE",
"704 134 OFFCURVE",
"704 348 CURVE SMOOTH",
"704 562 OFFCURVE",
"590 708 OFFCURVE",
"385 708 CURVE SMOOTH",
"180 708 OFFCURVE",
"66 562 OFFCURVE",
"66 348 CURVE SMOOTH",
"66 134 OFFCURVE",
"180 -12 OFFCURVE",
"385 -12 CURVE SMOOTH"
);
},
{
closed = 1;
nodes = (
"231 68 OFFCURVE",
"161 183 OFFCURVE",
"161 348 CURVE SMOOTH",
"161 513 OFFCURVE",
"231 628 OFFCURVE",
"385 628 CURVE SMOOTH",
"539 628 OFFCURVE",
"609 513 OFFCURVE",
"609 348 CURVE SMOOTH",
"609 183 OFFCURVE",
"539 68 OFFCURVE",
"385 68 CURVE SMOOTH"
);
}
);
width = 770;
},
{
layerId = "CD42366C-28E1-4C24-AB95-7D2C522D2B07";
name = Bold;
paths = (
{
closed = 1;
nodes = (
"602 -12 OFFCURVE",
"726 129 OFFCURVE",
"726 348 CURVE SMOOTH",
"726 567 OFFCURVE",
"602 708 OFFCURVE",
"385 708 CURVE SMOOTH",
"168 708 OFFCURVE",
"44 567 OFFCURVE",
"44 348 CURVE SMOOTH",
"44 129 OFFCURVE",
"168 -12 OFFCURVE",
"385 -12 CURVE SMOOTH"
);
},
{
closed = 1;
nodes = (
"261 110 OFFCURVE",
"183 193 OFFCURVE",
"183 348 CURVE SMOOTH",
"183 503 OFFCURVE",
"261 586 OFFCURVE",
"385 586 CURVE SMOOTH",
"509 586 OFFCURVE",
"587 503 OFFCURVE",
"587 348 CURVE SMOOTH",
"587 193 OFFCURVE",
"509 110 OFFCURVE",
"385 110 CURVE SMOOTH"
);
}
);
width = 770;
}
);
unicode = 004F;
},
{
glyphname = P;
lastChange = "2015-05-28 17:59:49 +0000";
layers = (
{
layerId = UUID0;
name = Regular;
paths = (
{
closed = 1;
nodes = (
"198 0 LINE",
"198 232 LINE",
"385 232 LINE SMOOTH",
"550 232 OFFCURVE",
"638 314 OFFCURVE",
"638 468 CURVE SMOOTH",
"638 620 OFFCURVE",
"552 696 OFFCURVE",
"378 696 CURVE SMOOTH",
"110 696 LINE",
"110 0 LINE"
);
},
{
closed = 1;
nodes = (
"198 612 LINE",
"378 612 LINE SMOOTH",
"498 612 OFFCURVE",
"543 571 OFFCURVE",
"543 464 CURVE SMOOTH",
"543 357 OFFCURVE",
"497 314 OFFCURVE",
"382 314 CURVE SMOOTH",
"198 314 LINE"
);
}
);
width = 682;
},
{
layerId = "CD42366C-28E1-4C24-AB95-7D2C522D2B07";
name = Bold;
paths = (
{
closed = 1;
nodes = (
"220 0 LINE",
"220 232 LINE",
"386 232 LINE SMOOTH",
"568 232 OFFCURVE",
"660 321 OFFCURVE",
"660 468 CURVE SMOOTH",
"660 613 OFFCURVE",
"570 696 OFFCURVE",
"374 696 CURVE SMOOTH",
"88 696 LINE",
"88 0 LINE"
);
},
{
closed = 1;
nodes = (
"220 579 LINE",
"374 579 LINE SMOOTH",
"474 579 OFFCURVE",
"521 550 OFFCURVE",
"521 465 CURVE SMOOTH",
"521 377 OFFCURVE",
"471 347 OFFCURVE",
"375 347 CURVE SMOOTH",
"220 347 LINE"
);
}
);
width = 682;
}
);
unicode = 0050;
},
{
glyphname = Thorn;
lastChange = "2015-05-28 18:38:05 +0000";
layers = (
{
layerId = UUID0;
name = Regular;
paths = (
{
closed = 1;
nodes = (
"110 0 LINE",
"198 0 LINE",
"198 115 LINE",
"385 115 LINE SMOOTH",
"550 115 OFFCURVE",
"638 197 OFFCURVE",
"638 351 CURVE SMOOTH",
"638 503 OFFCURVE",
"552 579 OFFCURVE",
"378 579 CURVE SMOOTH",
"198 579 LINE",
"198 696 LINE",
"110 696 LINE"
);
},
{
closed = 1;
nodes = (
"198 197 LINE",
"198 495 LINE",
"378 495 LINE SMOOTH",
"498 495 OFFCURVE",
"543 454 OFFCURVE",
"543 347 CURVE SMOOTH",
"543 240 OFFCURVE",
"497 197 OFFCURVE",
"382 197 CURVE SMOOTH"
);
}
);
width = 704;
},
{
layerId = "CD42366C-28E1-4C24-AB95-7D2C522D2B07";
name = Bold;
paths = (
{
closed = 1;
nodes = (
"88 0 LINE",
"220 0 LINE",
"220 115 LINE",
"407 115 LINE SMOOTH",
"572 115 OFFCURVE",
"660 197 OFFCURVE",
"660 351 CURVE SMOOTH",
"660 503 OFFCURVE",
"574 579 OFFCURVE",
"400 579 CURVE SMOOTH",
"220 579 LINE",
"220 696 LINE",
"88 696 LINE"
);
},
{
closed = 1;
nodes = (
"220 230 LINE",
"220 462 LINE",
"378 462 LINE SMOOTH",
"482 462 OFFCURVE",
"521 430 OFFCURVE",
"521 347 CURVE SMOOTH",
"521 264 OFFCURVE",
"481 230 OFFCURVE",
"382 230 CURVE SMOOTH"
);
}
);
width = 704;
}
);
unicode = 00DE;
},
{
glyphname = Q;
lastChange = "2015-05-28 17:59:49 +0000";
layers = (
{
layerId = UUID0;
name = Regular;
paths = (
{
closed = 1;
nodes = (
"590 -12 OFFCURVE",
"704 134 OFFCURVE",
"704 348 CURVE SMOOTH",
"704 562 OFFCURVE",
"590 708 OFFCURVE",
"385 708 CURVE SMOOTH",
"180 708 OFFCURVE",
"66 562 OFFCURVE",
"66 348 CURVE SMOOTH",
"66 134 OFFCURVE",
"180 -12 OFFCURVE",
"385 -12 CURVE SMOOTH"
);
},
{
closed = 1;
nodes = (
"231 68 OFFCURVE",
"161 183 OFFCURVE",
"161 348 CURVE SMOOTH",
"161 513 OFFCURVE",
"231 628 OFFCURVE",
"385 628 CURVE SMOOTH",
"539 628 OFFCURVE",
"609 513 OFFCURVE",
"609 348 CURVE SMOOTH",
"609 183 OFFCURVE",
"539 68 OFFCURVE",
"385 68 CURVE SMOOTH"
);
},
{
closed = 1;
nodes = (
"581 -153 LINE",
"401 58 LINE",
"318 40 LINE",
"494 -208 LINE"
);
}
);
width = 770;
},
{
layerId = "CD42366C-28E1-4C24-AB95-7D2C522D2B07";
name = Bold;
paths = (
{
closed = 1;
nodes = (
"602 -12 OFFCURVE",
"726 129 OFFCURVE",
"726 348 CURVE SMOOTH",
"726 567 OFFCURVE",
"602 708 OFFCURVE",
"385 708 CURVE SMOOTH",
"168 708 OFFCURVE",
"44 567 OFFCURVE",
"44 348 CURVE SMOOTH",
"44 129 OFFCURVE",
"168 -12 OFFCURVE",
"385 -12 CURVE SMOOTH"
);
},
{
closed = 1;
nodes = (
"261 101 OFFCURVE",
"183 186 OFFCURVE",
"183 348 CURVE SMOOTH",
"183 510 OFFCURVE",
"261 595 OFFCURVE",
"385 595 CURVE SMOOTH",
"509 595 OFFCURVE",
"587 510 OFFCURVE",
"587 348 CURVE SMOOTH",
"587 186 OFFCURVE",
"509 101 OFFCURVE",
"385 101 CURVE SMOOTH"
);
},
{
closed = 1;
nodes = (
"603 -153 LINE",
"423 58 LINE",
"296 40 LINE",
"483 -230 LINE"
);
}
);
width = 770;
}
);
unicode = 0051;
},
{
glyphname = R;
lastChange = "2015-05-28 17:59:49 +0000";
layers = (
{
layerId = UUID0;
name = Regular;
paths = (
{
closed = 1;
nodes = (
"110 696 LINE",
"110 0 LINE",
"198 0 LINE",
"198 265 LINE",
"381 265 LINE SMOOTH",
"536 265 OFFCURVE",
"616 349 OFFCURVE",
"616 484 CURVE SMOOTH",
"616 620 OFFCURVE",
"538 696 OFFCURVE",
"369 696 CURVE SMOOTH"
);
},
{
closed = 1;
nodes = (
"369 612 LINE SMOOTH",
"471 612 OFFCURVE",
"521 580 OFFCURVE",
"521 484 CURVE SMOOTH",
"521 381 OFFCURVE",
"470 348 OFFCURVE",
"370 348 CURVE SMOOTH",
"198 348 LINE",
"198 612 LINE"
);
},
{
closed = 1;
nodes = (
"638 0 LINE",
"467 318 LINE",
"386 274 LINE",
"532 0 LINE"
);
}
);
width = 682;
},
{
layerId = "CD42366C-28E1-4C24-AB95-7D2C522D2B07";
name = Bold;
paths = (
{
closed = 1;
nodes = (
"88 696 LINE",
"88 0 LINE",
"220 0 LINE",
"220 265 LINE",
"381 265 LINE SMOOTH",
"551 265 OFFCURVE",
"638 349 OFFCURVE",
"638 485 CURVE SMOOTH",
"638 620 OFFCURVE",
"552 696 OFFCURVE",
"369 696 CURVE SMOOTH"
);
},
{
closed = 1;
nodes = (
"369 579 LINE SMOOTH",
"457 579 OFFCURVE",
"499 555 OFFCURVE",
"499 482 CURVE SMOOTH",
"499 406 OFFCURVE",
"454 381 OFFCURVE",
"370 381 CURVE SMOOTH",
"220 381 LINE",
"220 579 LINE"
);
},
{
closed = 1;
nodes = (
"660 0 LINE",
"489 318 LINE",
"364 274 LINE",
"510 0 LINE"
);
}
);
width = 682;
}
);
unicode = 0052;
},
{
glyphname = S;
lastChange = "2015-05-28 17:59:49 +0000";
layers = (
{
layerId = UUID0;
name = Regular;
paths = (
{
closed = 1;
nodes = (
"470 -12 OFFCURVE",
"572 69 OFFCURVE",
"572 194 CURVE SMOOTH",
"572 439 OFFCURVE",
"178 365 OFFCURVE",
"178 524 CURVE SMOOTH",
"178 588 OFFCURVE",
"241 627 OFFCURVE",
"342 627 CURVE SMOOTH",
"410 627 OFFCURVE",
"478 609 OFFCURVE",
"550 571 CURVE",
"550 663 LINE",
"489 692 OFFCURVE",
"415 708 OFFCURVE",
"342 708 CURVE SMOOTH",
"186 708 OFFCURVE",
"87 633 OFFCURVE",
"87 515 CURVE SMOOTH",
"87 280 OFFCURVE",
"480 359 OFFCURVE",
"480 185 CURVE SMOOTH",
"480 113 OFFCURVE",
"414 69 OFFCURVE",
"308 69 CURVE SMOOTH",
"232 69 OFFCURVE",
"157 91 OFFCURVE",
"66 139 CURVE",
"66 44 LINE",
"143 9 OFFCURVE",
"235 -12 OFFCURVE",
"315 -12 CURVE SMOOTH"
);
}
);
width = 638;
},
{
layerId = "CD42366C-28E1-4C24-AB95-7D2C522D2B07";
name = Bold;
paths = (
{
closed = 1;
nodes = (
"483 -12 OFFCURVE",
"594 66 OFFCURVE",
"594 200 CURVE SMOOTH",
"594 452 OFFCURVE",
"200 400 OFFCURVE",
"200 523 CURVE SMOOTH",
"200 568 OFFCURVE",
"254 594 OFFCURVE",
"344 594 CURVE SMOOTH",
"416 594 OFFCURVE",
"492 577 OFFCURVE",
"572 538 CURVE",
"572 663 LINE",
"505 692 OFFCURVE",
"423 708 OFFCURVE",
"343 708 CURVE SMOOTH",
"173 708 OFFCURVE",
"65 636 OFFCURVE",
"65 509 CURVE SMOOTH",
"65 267 OFFCURVE",
"458 325 OFFCURVE",
"458 186 CURVE SMOOTH",
"458 132 OFFCURVE",
"399 102 OFFCURVE",
"307 102 CURVE SMOOTH",
"226 102 OFFCURVE",
"143 125 OFFCURVE",
"44 172 CURVE",
"44 44 LINE",
"128 9 OFFCURVE",
"228 -12 OFFCURVE",
"315 -12 CURVE SMOOTH"
);
}
);
width = 638;
}
);
unicode = 0053;
},
{
glyphname = Schwa;
lastChange = "2015-05-28 18:38:13 +0000";
layers = (
{
layerId = UUID0;
name = Regular;
paths = (
{
closed = 1;
nodes = (
"248 708 OFFCURVE",
"165 687 OFFCURVE",
"88 642 CURVE",
"88 555 LINE",
"92 555 LINE",
"166 600 OFFCURVE",
"246 628 OFFCURVE",
"327 628 CURVE SMOOTH",
"483 628 OFFCURVE",
"565 524 OFFCURVE",
"565 348 CURVE",
"66 348 LINE",
"66 319 LINE SMOOTH",
"66 137 OFFCURVE",
"172 -12 OFFCURVE",
"358 -12 CURVE SMOOTH",
"549 -12 OFFCURVE",
"660 144 OFFCURVE",
"660 347 CURVE SMOOTH",
"660 558 OFFCURVE",
"541 708 OFFCURVE",
"325 708 CURVE SMOOTH"
);
},
{
closed = 1;
nodes = (
"236 69 OFFCURVE",
"174 165 OFFCURVE",
"163 269 CURVE",
"564 269 LINE",
"564 166 OFFCURVE",
"481 69 OFFCURVE",
"358 69 CURVE SMOOTH"
);
}
);
width = 726;
},
{
layerId = "CD42366C-28E1-4C24-AB95-7D2C522D2B07";
name = Bold;
paths = (
{
closed = 1;
nodes = (
"239 708 OFFCURVE",
"150 683 OFFCURVE",
"66 631 CURVE",
"66 511 LINE",
"70 511 LINE",
"151 563 OFFCURVE",
"239 595 OFFCURVE",
"324 595 CURVE SMOOTH",
"470 595 OFFCURVE",
"543 502 OFFCURVE",
"543 371 CURVE",
"44 371 LINE",
"44 319 LINE SMOOTH",
"44 137 OFFCURVE",
"158 -12 OFFCURVE",
"358 -12 CURVE SMOOTH",
"563 -12 OFFCURVE",
"682 144 OFFCURVE",
"682 347 CURVE SMOOTH",
"682 558 OFFCURVE",
"553 708 OFFCURVE",
"330 708 CURVE SMOOTH"
);
},
{
closed = 1;
nodes = (
"250 102 OFFCURVE",
"195 177 OFFCURVE",
"185 259 CURVE",
"542 259 LINE",
"542 178 OFFCURVE",
"468 102 OFFCURVE",
"358 102 CURVE SMOOTH"
);
}
);
width = 726;
}
);
unicode = 018F;
},
{
glyphname = T;
lastChange = "2015-05-28 17:59:49 +0000";
layers = (
{
layerId = UUID0;
name = Regular;
paths = (
{
closed = 1;
nodes = (
"352 0 LINE",
"352 608 LINE",
"572 608 LINE",
"572 696 LINE",
"44 696 LINE",
"44 608 LINE",
"264 608 LINE",
"264 0 LINE"
);
}
);
width = 616;
},
{
layerId = "CD42366C-28E1-4C24-AB95-7D2C522D2B07";
name = Bold;
paths = (
{
closed = 1;
nodes = (
"374 0 LINE",
"374 575 LINE",
"572 575 LINE",
"572 696 LINE",
"44 696 LINE",
"44 575 LINE",
"242 575 LINE",
"242 0 LINE"
);
}
);
width = 616;
}
);
unicode = 0054;
},
{
glyphname = U;
lastChange = "2015-05-28 17:59:49 +0000";
layers = (
{
layerId = UUID0;
name = Regular;
paths = (
{
closed = 1;
nodes = (
"540 -12 OFFCURVE",
"638 106 OFFCURVE",
"638 288 CURVE SMOOTH",
"638 696 LINE",
"550 696 LINE",
"550 291 LINE SMOOTH",
"550 159 OFFCURVE",
"487 70 OFFCURVE",
"363 70 CURVE SMOOTH",
"239 70 OFFCURVE",
"176 159 OFFCURVE",
"176 291 CURVE SMOOTH",
"176 696 LINE",
"88 696 LINE",
"88 288 LINE SMOOTH",
"88 106 OFFCURVE",
"186 -12 OFFCURVE",
"363 -12 CURVE SMOOTH"
);
}
);
width = 726;
},
{
layerId = "CD42366C-28E1-4C24-AB95-7D2C522D2B07";
name = Bold;
paths = (
{
closed = 1;
nodes = (
"549 -12 OFFCURVE",
"660 101 OFFCURVE",
"660 288 CURVE SMOOTH",
"660 696 LINE",
"528 696 LINE",
"528 291 LINE SMOOTH",
"528 164 OFFCURVE",
"467 104 OFFCURVE",
"363 104 CURVE SMOOTH",
"262 104 OFFCURVE",
"198 159 OFFCURVE",
"198 291 CURVE SMOOTH",
"198 696 LINE",
"66 696 LINE",
"66 288 LINE SMOOTH",
"66 101 OFFCURVE",
"177 -12 OFFCURVE",
"363 -12 CURVE SMOOTH"
);
}
);
width = 726;
}
);
unicode = 0055;
},
{
glyphname = V;
lastChange = "2015-05-28 17:59:49 +0000";
layers = (
{
layerId = UUID0;
name = Regular;
paths = (
{
closed = 1;
nodes = (
"286 0 LINE",
"379 0 LINE",
"115 696 LINE",
"22 696 LINE"
);
},
{
closed = 1;
nodes = (
"308 0 LINE",
"396 0 LINE",
"660 696 LINE",
"572 696 LINE"
);
}
);
width = 682;
},
{
layerId = "CD42366C-28E1-4C24-AB95-7D2C522D2B07";
name = Bold;
paths = (
{
closed = 1;
nodes = (
"264 0 LINE",
"396 0 LINE",
"143 696 LINE",
"0 696 LINE"
);
},
{
closed = 1;
nodes = (
"291 0 LINE",
"418 0 LINE",
"682 696 LINE",
"544 696 LINE"
);
}
);
width = 682;
}
);
unicode = 0056;
},
{
glyphname = W;
lastChange = "2015-05-28 17:59:49 +0000";
layers = (
{
layerId = UUID0;
name = Regular;
paths = (
{
closed = 1;
nodes = (
"207 0 LINE",
"292 0 LINE",
"111 696 LINE",
"22 696 LINE"
);
},
{
closed = 1;
nodes = (
"237 0 LINE",
"317 0 LINE",
"498 696 LINE",
"418 696 LINE"
);
},
{
closed = 1;
nodes = (
"607 0 LINE",
"692 0 LINE",
"511 696 LINE",
"426 696 LINE"
);
},
{
closed = 1;
nodes = (
"637 0 LINE",
"717 0 LINE",
"902 696 LINE",
"818 696 LINE"
);
}
);
width = 924;
},
{
layerId = "CD42366C-28E1-4C24-AB95-7D2C522D2B07";
name = Bold;
paths = (
{
closed = 1;
nodes = (
"185 0 LINE",
"314 0 LINE",
"133 696 LINE",
"0 696 LINE"
);
},
{
closed = 1;
nodes = (
"215 0 LINE",
"339 0 LINE",
"520 696 LINE",
"396 696 LINE"
);
},
{
closed = 1;
nodes = (
"585 0 LINE",
"714 0 LINE",
"533 696 LINE",
"404 696 LINE"
);
},
{
closed = 1;
nodes = (
"615 0 LINE",
"739 0 LINE",
"924 696 LINE",
"796 696 LINE"
);
}
);
width = 924;
}
);
unicode = 0057;
},
{
glyphname = X;
lastChange = "2015-05-28 18:31:49 +0000";
layers = (
{
layerId = UUID0;
name = Regular;
paths = (
{
closed = 1;
nodes = (
"616 0 LINE",
"139 696 LINE",
"34 696 LINE",
"511 0 LINE"
);
},
{
closed = 1;
nodes = (
"604 696 LINE",
"504 696 LINE",
"300 394 LINE",
"352 324 LINE"
);
},
{
closed = 1;
nodes = (
"122 0 LINE",
"344 328 LINE",
"292 398 LINE",
"22 0 LINE"
);
}
);
width = 638;
},
{
layerId = "CD42366C-28E1-4C24-AB95-7D2C522D2B07";
name = Bold;
paths = (
{
closed = 1;
nodes = (
"638 0 LINE",
"161 696 LINE",
"12 696 LINE",
"489 0 LINE"
);
},
{
closed = 1;
nodes = (
"626 696 LINE",
"482 696 LINE",
"278 394 LINE",
"374 324 LINE"
);
},
{
closed = 1;
nodes = (
"144 0 LINE",
"366 328 LINE",
"270 398 LINE",
"0 0 LINE"
);
}
);
width = 638;
}
);
unicode = 0058;
},
{
glyphname = Y;
lastChange = "2015-05-28 17:59:49 +0000";
layers = (
{
layerId = UUID0;
name = Regular;
paths = (
{
closed = 1;
nodes = (
"275 240 LINE",
"363 240 LINE",
"125 696 LINE",
"22 696 LINE"
);
},
{
closed = 1;
nodes = (
"275 240 LINE",
"363 240 LINE",
"616 696 LINE",
"518 696 LINE"
);
},
{
closed = 1;
nodes = (
"275 280 LINE",
"275 0 LINE",
"363 0 LINE",
"363 280 LINE"
);
}
);
width = 638;
},
{
layerId = "CD42366C-28E1-4C24-AB95-7D2C522D2B07";
name = Bold;
paths = (
{
closed = 1;
nodes = (
"253 280 LINE",
"253 0 LINE",
"385 0 LINE",
"385 280 LINE"
);
},
{
closed = 1;
nodes = (
"259 240 LINE",
"385 240 LINE",
"638 696 LINE",
"496 696 LINE"
);
},
{
closed = 1;
nodes = (
"253 240 LINE",
"379 240 LINE",
"147 696 LINE",
"0 696 LINE"
);
}
);
width = 638;
}
);
unicode = 0059;
},
{
glyphname = Z;
lastChange = "2015-05-28 17:59:49 +0000";
layers = (
{
layerId = UUID0;
name = Regular;
paths = (
{
closed = 1;
nodes = (
"572 696 LINE",
"66 696 LINE",
"66 620 LINE",
"486 620 LINE",
"572 631 LINE"
);
},
{
closed = 1;
nodes = (
"594 76 LINE",
"74 76 LINE",
"44 65 LINE",
"44 0 LINE",
"594 0 LINE"
);
},
{
closed = 1;
nodes = (
"155 65 LINE",
"572 631 LINE",
"463 631 LINE",
"44 65 LINE"
);
}
);
width = 638;
},
{
layerId = "CD42366C-28E1-4C24-AB95-7D2C522D2B07";
name = Bold;
paths = (
{
closed = 1;
nodes = (
"594 696 LINE",
"44 696 LINE",
"44 587 LINE",
"486 587 LINE",
"594 598 LINE"
);
},
{
closed = 1;
nodes = (
"616 109 LINE",
"52 109 LINE",
"22 98 LINE",
"22 0 LINE",
"616 0 LINE"
);
},
{
closed = 1;
nodes = (
"188 98 LINE",
"594 598 LINE",
"430 598 LINE",
"22 98 LINE"
);
}
);
width = 638;
}
);
unicode = 005A;
},
{
glyphname = a;
lastChange = "2015-05-28 17:59:49 +0000";
layers = (
{
layerId = UUID0;
name = Regular;
paths = (
{
closed = 1;
nodes = (
"332 -12 OFFCURVE",
"397 32 OFFCURVE",
"452 107 CURVE",
"452 178 LINE",
"396 113 OFFCURVE",
"343 62 OFFCURVE",
"257 62 CURVE SMOOTH",
"201 62 OFFCURVE",
"161 97 OFFCURVE",
"161 152 CURVE SMOOTH",
"161 219 OFFCURVE",
"229 238 OFFCURVE",
"306 238 CURVE SMOOTH",
"451 238 LINE",
"451 296 LINE",
"400 302 OFFCURVE",
"361 305 OFFCURVE",
"310 305 CURVE SMOOTH",
"179 305 OFFCURVE",
"66 263 OFFCURVE",
"66 147 CURVE SMOOTH",
"66 49 OFFCURVE",
"138 -12 OFFCURVE",
"239 -12 CURVE SMOOTH"
);
},
{
closed = 1;
nodes = (
"440 0 LINE",
"528 0 LINE",
"506 116 LINE",
"506 348 LINE SMOOTH",
"506 461 OFFCURVE",
"426 534 OFFCURVE",
"312 534 CURVE SMOOTH",
"235 534 OFFCURVE",
"174 522 OFFCURVE",
"110 478 CURVE",
"110 393 LINE",
"170 435 OFFCURVE",
"225 457 OFFCURVE",
"299 457 CURVE SMOOTH",
"370 457 OFFCURVE",
"418 408 OFFCURVE",
"418 336 CURVE SMOOTH",
"418 116 LINE"
);
}
);
width = 616;
},
{
layerId = "CD42366C-28E1-4C24-AB95-7D2C522D2B07";
name = Bold;
paths = (
{
closed = 1;
nodes = (
"318 -12 OFFCURVE",
"384 26 OFFCURVE",
"441 107 CURVE",
"441 205 LINE",
"375 124 OFFCURVE",
"321 89 OFFCURVE",
"254 89 CURVE SMOOTH",
"202 89 OFFCURVE",
"176 110 OFFCURVE",
"176 153 CURVE SMOOTH",
"176 208 OFFCURVE",
"217 225 OFFCURVE",
"299 225 CURVE SMOOTH",
"440 225 LINE",
"440 312 LINE",
"387 318 OFFCURVE",
"345 321 OFFCURVE",
"307 321 CURVE SMOOTH",
"134 321 OFFCURVE",
"44 257 OFFCURVE",
"44 151 CURVE SMOOTH",
"44 52 OFFCURVE",
"124 -12 OFFCURVE",
"234 -12 CURVE SMOOTH"
);
},
{
closed = 1;
nodes = (
"418 0 LINE",
"550 0 LINE",
"528 116 LINE",
"528 348 LINE SMOOTH",
"528 470 OFFCURVE",
"448 534 OFFCURVE",
"300 534 CURVE SMOOTH",
"219 534 OFFCURVE",
"153 515 OFFCURVE",
"88 467 CURVE",
"88 349 LINE",
"158 399 OFFCURVE",
"216 424 OFFCURVE",
"291 424 CURVE SMOOTH",
"363 424 OFFCURVE",
"395 395 OFFCURVE",
"395 336 CURVE SMOOTH",
"395 116 LINE"
);
}
);
width = 616;
}
);
unicode = 0061;
},
{
glyphname = ae;
lastChange = "2015-05-28 18:39:13 +0000";
layers = (
{
layerId = UUID0;
name = Regular;
paths = (
{
closed = 1;
nodes = (
"743 -12 OFFCURVE",
"799 6 OFFCURVE",
"858 49 CURVE",
"858 137 LINE",
"854 137 LINE",
"797 90 OFFCURVE",
"742 64 OFFCURVE",
"680 64 CURVE SMOOTH",
"576 64 OFFCURVE",
"519 134 OFFCURVE",
"509 232 CURVE",
"880 232 LINE",
"880 261 LINE SMOOTH",
"880 415 OFFCURVE",
"799 534 OFFCURVE",
"652 534 CURVE SMOOTH",
"577 534 OFFCURVE",
"517 503 OFFCURVE",
"477 452 CURVE",
"444 504 OFFCURVE",
"385 534 OFFCURVE",
"312 534 CURVE SMOOTH",
"235 534 OFFCURVE",
"174 522 OFFCURVE",
"110 478 CURVE",
"110 393 LINE",
"170 435 OFFCURVE",
"225 457 OFFCURVE",
"299 457 CURVE SMOOTH",
"370 457 OFFCURVE",
"418 408 OFFCURVE",
"418 336 CURVE SMOOTH",
"418 299 LINE",
"381 303 OFFCURVE",
"349 305 OFFCURVE",
"310 305 CURVE SMOOTH",
"179 305 OFFCURVE",
"66 263 OFFCURVE",
"66 147 CURVE SMOOTH",
"66 49 OFFCURVE",
"138 -12 OFFCURVE",
"239 -12 CURVE SMOOTH",
"339 -12 OFFCURVE",
"410 23 OFFCURVE",
"470 85 CURVE",
"515 24 OFFCURVE",
"586 -12 OFFCURVE",
"679 -12 CURVE SMOOTH"
);
},
{
closed = 1;
nodes = (
"201 62 OFFCURVE",
"161 97 OFFCURVE",
"161 152 CURVE SMOOTH",
"161 219 OFFCURVE",
"229 238 OFFCURVE",
"306 238 CURVE SMOOTH",
"418 238 LINE",
"421 200 OFFCURVE",
"429 165 OFFCURVE",
"443 134 CURVE",
"390 92 OFFCURVE",
"336 62 OFFCURVE",
"257 62 CURVE SMOOTH"
);
},
{
closed = 1;
nodes = (
"740 461 OFFCURVE",
"781 390 OFFCURVE",
"789 300 CURVE",
"510 300 LINE",
"519 389 OFFCURVE",
"566 461 OFFCURVE",
"653 461 CURVE SMOOTH"
);
}
);
width = 946;
},
{
layerId = "CD42366C-28E1-4C24-AB95-7D2C522D2B07";
name = Bold;
paths = (
{
closed = 1;
nodes = (
"751 -12 OFFCURVE",
"814 6 OFFCURVE",
"880 49 CURVE",
"880 170 LINE",
"876 170 LINE",
"812 123 OFFCURVE",
"750 97 OFFCURVE",
"681 97 CURVE SMOOTH",
"589 97 OFFCURVE",
"540 143 OFFCURVE",
"531 209 CURVE",
"902 209 LINE",
"902 261 LINE SMOOTH",
"902 415 OFFCURVE",
"813 534 OFFCURVE",
"653 534 CURVE SMOOTH",
"577 534 OFFCURVE",
"517 507 OFFCURVE",
"477 463 CURVE",
"437 515 OFFCURVE",
"381 534 OFFCURVE",
"302 534 CURVE SMOOTH",
"232 534 OFFCURVE",
"156 519 OFFCURVE",
"88 467 CURVE",
"88 349 LINE",
"148 394 OFFCURVE",
"219 424 OFFCURVE",
"288 424 CURVE SMOOTH",
"363 424 OFFCURVE",
"396 388 OFFCURVE",
"396 336 CURVE SMOOTH",
"396 322 LINE",
"367 326 OFFCURVE",
"340 328 OFFCURVE",
"311 328 CURVE SMOOTH",
"168 328 OFFCURVE",
"44 279 OFFCURVE",
"44 150 CURVE SMOOTH",
"44 49 OFFCURVE",
"120 -12 OFFCURVE",
"245 -12 CURVE SMOOTH",
"336 -12 OFFCURVE",
"412 20 OFFCURVE",
"470 74 CURVE",
"515 20 OFFCURVE",
"586 -12 OFFCURVE",
"680 -12 CURVE SMOOTH"
);
},
{
closed = 1;
nodes = (
"210 95 OFFCURVE",
"183 117 OFFCURVE",
"183 155 CURVE SMOOTH",
"183 210 OFFCURVE",
"242 228 OFFCURVE",
"306 228 CURVE SMOOTH",
"396 228 LINE",
"398 202 OFFCURVE",
"402 178 OFFCURVE",
"410 156 CURVE",
"367 121 OFFCURVE",
"318 95 OFFCURVE",
"262 95 CURVE SMOOTH"
);
},
{
closed = 1;
nodes = (
"726 428 OFFCURVE",
"760 376 OFFCURVE",
"767 310 CURVE",
"532 310 LINE",
"540 375 OFFCURVE",
"579 428 OFFCURVE",
"653 428 CURVE SMOOTH"
);
}
);
width = 946;
}
);
unicode = 00E6;
},
{
glyphname = b;
lastChange = "2015-05-28 17:59:49 +0000";
layers = (
{
layerId = UUID0;
name = Regular;
paths = (
{
closed = 1;
nodes = (
"484 -11 OFFCURVE",
"572 105 OFFCURVE",
"572 260 CURVE SMOOTH",
"572 413 OFFCURVE",
"500 534 OFFCURVE",
"359 534 CURVE SMOOTH",
"273 534 OFFCURVE",
"212 494 OFFCURVE",
"164 423 CURVE",
"164 338 LINE",
"216 404 OFFCURVE",
"268 453 OFFCURVE",
"351 453 CURVE SMOOTH",
"443 453 OFFCURVE",
"477 364 OFFCURVE",
"477 260 CURVE SMOOTH",
"477 152 OFFCURVE",
"426 67 OFFCURVE",
"326 67 CURVE SMOOTH",
"266 67 OFFCURVE",
"221 78 OFFCURVE",
"165 99 CURVE",
"165 34 LINE",
"223 8 OFFCURVE",
"271 -11 OFFCURVE",
"335 -11 CURVE SMOOTH"
);
},
{
closed = 1;
nodes = (
"110 0 LINE",
"198 0 LINE",
"198 754 LINE",
"110 754 LINE"
);
}
);
width = 638;
},
{
layerId = "CD42366C-28E1-4C24-AB95-7D2C522D2B07";
name = Bold;
paths = (
{
closed = 1;
nodes = (
"495 -11 OFFCURVE",
"594 89 OFFCURVE",
"594 259 CURVE SMOOTH",
"594 426 OFFCURVE",
"499 534 OFFCURVE",
"363 534 CURVE SMOOTH",
"285 534 OFFCURVE",
"218 498 OFFCURVE",
"164 412 CURVE",
"164 305 LINE",
"226 383 OFFCURVE",
"287 420 OFFCURVE",
"349 420 CURVE SMOOTH",
"421 420 OFFCURVE",
"455 369 OFFCURVE",
"455 261 CURVE SMOOTH",
"455 147 OFFCURVE",
"417 100 OFFCURVE",
"326 100 CURVE SMOOTH",
"279 100 OFFCURVE",
"222 100 OFFCURVE",
"165 132 CURVE",
"165 45 LINE",
"243 2 OFFCURVE",
"283 -11 OFFCURVE",
"339 -11 CURVE SMOOTH"
);
},
{
closed = 1;
nodes = (
"88 0 LINE",
"220 0 LINE",
"220 754 LINE",
"88 754 LINE"
);
}
);
width = 638;
}
);
unicode = 0062;
},
{
glyphname = c;
lastChange = "2015-05-28 17:59:49 +0000";
layers = (
{
layerId = UUID0;
name = Regular;
paths = (
{
closed = 1;
nodes = (
"371 454 OFFCURVE",
"420 438 OFFCURVE",
"469 398 CURVE",
"473 398 LINE",
"473 483 LINE",
"424 524 OFFCURVE",
"372 534 OFFCURVE",
"308 534 CURVE SMOOTH",
"157 534 OFFCURVE",
"66 417 OFFCURVE",
"66 259 CURVE SMOOTH",
"66 103 OFFCURVE",
"157 -12 OFFCURVE",
"307 -12 CURVE SMOOTH",
"377 -12 OFFCURVE",
"433 4 OFFCURVE",
"484 52 CURVE",
"484 137 LINE",
"480 137 LINE",
"428 90 OFFCURVE",
"376 68 OFFCURVE",
"306 68 CURVE SMOOTH",
"209 68 OFFCURVE",
"159 152 OFFCURVE",
"159 258 CURVE SMOOTH",
"159 367 OFFCURVE",
"208 454 OFFCURVE",
"307 454 CURVE SMOOTH"
);
}
);
width = 550;
},
{
layerId = "CD42366C-28E1-4C24-AB95-7D2C522D2B07";
name = Bold;
paths = (
{
closed = 1;
nodes = (
"370 421 OFFCURVE",
"441 404 OFFCURVE",
"491 365 CURVE",
"495 365 LINE",
"495 477 LINE",
"452 515 OFFCURVE",
"383 534 OFFCURVE",
"315 534 CURVE SMOOTH",
"153 534 OFFCURVE",
"44 426 OFFCURVE",
"44 259 CURVE SMOOTH",
"44 94 OFFCURVE",
"149 -12 OFFCURVE",
"315 -12 CURVE SMOOTH",
"395 -12 OFFCURVE",
"460 13 OFFCURVE",
"506 57 CURVE",
"506 170 LINE",
"502 170 LINE",
"449 125 OFFCURVE",
"379 101 OFFCURVE",
"318 101 CURVE SMOOTH",
"226 101 OFFCURVE",
"181 155 OFFCURVE",
"181 259 CURVE SMOOTH",
"181 365 OFFCURVE",
"228 421 OFFCURVE",
"320 421 CURVE SMOOTH"
);
}
);
width = 550;
}
);
unicode = 0063;
},
{
glyphname = d;
lastChange = "2015-05-28 18:28:29 +0000";
layers = (
{
layerId = UUID0;
name = Regular;
paths = (
{
closed = 1;
nodes = (
"357 -11 OFFCURVE",
"422 27 OFFCURVE",
"474 100 CURVE",
"474 185 LINE",
"419 119 OFFCURVE",
"366 70 OFFCURVE",
"281 70 CURVE SMOOTH",
"192 70 OFFCURVE",
"161 157 OFFCURVE",
"161 258 CURVE SMOOTH",
"161 368 OFFCURVE",
"212 456 OFFCURVE",
"313 456 CURVE SMOOTH",
"373 456 OFFCURVE",
"418 444 OFFCURVE",
"473 421 CURVE",
"473 484 LINE",
"416 514 OFFCURVE",
"368 534 OFFCURVE",
"304 534 CURVE SMOOTH",
"153 534 OFFCURVE",
"66 415 OFFCURVE",
"66 256 CURVE SMOOTH",
"66 108 OFFCURVE",
"132 -11 OFFCURVE",
"267 -11 CURVE SMOOTH"
);
},
{
closed = 1;
nodes = (
"550 0 LINE",
"528 116 LINE",
"528 754 LINE",
"440 754 LINE",
"440 116 LINE",
"462 0 LINE"
);
}
);
width = 638;
},
{
layerId = "CD42366C-28E1-4C24-AB95-7D2C522D2B07";
name = Bold;
paths = (
{
closed = 1;
nodes = (
"344 -11 OFFCURVE",
"427 39 OFFCURVE",
"474 120 CURVE",
"474 221 LINE",
"410 135 OFFCURVE",
"346 97 OFFCURVE",
"289 97 CURVE SMOOTH",
"218 97 OFFCURVE",
"183 156 OFFCURVE",
"183 259 CURVE SMOOTH",
"183 373 OFFCURVE",
"226 425 OFFCURVE",
"318 425 CURVE SMOOTH",
"359 425 OFFCURVE",
"418 415 OFFCURVE",
"473 396 CURVE",
"473 473 LINE",
"414 515 OFFCURVE",
"357 534 OFFCURVE",
"290 534 CURVE SMOOTH",
"133 534 OFFCURVE",
"44 431 OFFCURVE",
"44 257 CURVE SMOOTH",
"44 91 OFFCURVE",
"125 -11 OFFCURVE",
"254 -11 CURVE SMOOTH"
);
},
{
closed = 1;
nodes = (
"572 0 LINE",
"550 116 LINE",
"550 754 LINE",
"418 754 LINE",
"418 116 LINE",
"451 0 LINE"
);
}
);
width = 638;
}
);
unicode = 0064;
},
{
glyphname = eth;
lastChange = "2015-05-28 18:39:26 +0000";
layers = (
{
layerId = UUID0;
name = Regular;
paths = (
{
closed = 1;
nodes = (
"455 155 OFFCURVE",
"404 69 OFFCURVE",
"299 69 CURVE SMOOTH",
"209 69 OFFCURVE",
"160 133 OFFCURVE",
"160 240 CURVE SMOOTH",
"160 354 OFFCURVE",
"215 415 OFFCURVE",
"311 415 CURVE SMOOTH",
"375 415 OFFCURVE",
"439 388 OFFCURVE",
"496 339 CURVE",
"496 418 LINE",
"439 470 OFFCURVE",
"390 495 OFFCURVE",
"312 495 CURVE SMOOTH",
"163 495 OFFCURVE",
"66 405 OFFCURVE",
"66 241 CURVE SMOOTH",
"66 85 OFFCURVE",
"153 -12 OFFCURVE",
"298 -12 CURVE SMOOTH",
"461 -12 OFFCURVE",
"550 111 OFFCURVE",
"550 319 CURVE SMOOTH",
"550 529 OFFCURVE",
"459 681 OFFCURVE",
"307 765 CURVE",
"210 743 LINE",
"210 739 LINE",
"392 631 OFFCURVE",
"455 516 OFFCURVE",
"455 326 CURVE SMOOTH"
);
},
{
closed = 1;
nodes = (
"242 561 LINE",
"550 618 LINE",
"550 688 LINE",
"242 631 LINE"
);
}
);
width = 594;
},
{
layerId = "CD42366C-28E1-4C24-AB95-7D2C522D2B07";
name = Bold;
paths = (
{
closed = 1;
nodes = (
"433 177 OFFCURVE",
"389 102 OFFCURVE",
"299 102 CURVE SMOOTH",
"223 102 OFFCURVE",
"182 154 OFFCURVE",
"182 240 CURVE SMOOTH",
"182 333 OFFCURVE",
"229 382 OFFCURVE",
"311 382 CURVE SMOOTH",
"375 382 OFFCURVE",
"439 355 OFFCURVE",
"496 306 CURVE",
"496 418 LINE",
"439 470 OFFCURVE",
"390 495 OFFCURVE",
"312 495 CURVE SMOOTH",
"150 495 OFFCURVE",
"44 405 OFFCURVE",
"44 241 CURVE SMOOTH",
"44 85 OFFCURVE",
"139 -12 OFFCURVE",
"298 -12 CURVE SMOOTH",
"475 -12 OFFCURVE",
"572 111 OFFCURVE",
"572 319 CURVE SMOOTH",
"572 529 OFFCURVE",
"481 681 OFFCURVE",
"329 765 CURVE",
"188 743 LINE",
"188 739 LINE",
"370 631 OFFCURVE",
"433 516 OFFCURVE",
"433 326 CURVE SMOOTH"
);
},
{
closed = 1;
nodes = (
"220 544 LINE",
"572 601 LINE",
"572 699 LINE",
"220 642 LINE"
);
}
);
width = 594;
}
);
unicode = 00F0;
},
{
glyphname = e;
lastChange = "2015-05-28 17:59:49 +0000";
layers = (
{
layerId = UUID0;
name = Regular;
paths = (
{
closed = 1;
nodes = (
"391 -12 OFFCURVE",
"447 6 OFFCURVE",
"506 49 CURVE",
"506 137 LINE",
"502 137 LINE",
"445 90 OFFCURVE",
"390 64 OFFCURVE",
"328 64 CURVE SMOOTH",
"213 64 OFFCURVE",
"156 150 OFFCURVE",
"156 265 CURVE SMOOTH",
"156 370 OFFCURVE",
"203 461 OFFCURVE",
"301 461 CURVE SMOOTH",
"400 461 OFFCURVE",
"439 369 OFFCURVE",
"439 261 CURVE",
"493 300 LINE",
"127 300 LINE",
"127 232 LINE",
"528 232 LINE",
"528 261 LINE SMOOTH",
"528 415 OFFCURVE",
"447 534 OFFCURVE",
"300 534 CURVE SMOOTH",
"154 534 OFFCURVE",
"66 417 OFFCURVE",
"66 264 CURVE SMOOTH",
"66 102 OFFCURVE",
"164 -12 OFFCURVE",
"327 -12 CURVE SMOOTH"
);
}
);
width = 594;
},
{
layerId = "CD42366C-28E1-4C24-AB95-7D2C522D2B07";
name = Bold;
paths = (
{
closed = 1;
nodes = (
"399 -12 OFFCURVE",
"475 11 OFFCURVE",
"528 52 CURVE",
"528 159 LINE",
"524 159 LINE",
"463 119 OFFCURVE",
"381 97 OFFCURVE",
"321 97 CURVE SMOOTH",
"222 97 OFFCURVE",
"170 156 OFFCURVE",
"170 260 CURVE SMOOTH",
"170 363 OFFCURVE",
"222 428 OFFCURVE",
"302 428 CURVE SMOOTH",
"378 428 OFFCURVE",
"417 368 OFFCURVE",
"417 261 CURVE",
"493 311 LINE",
"127 311 LINE",
"127 221 LINE",
"550 221 LINE",
"550 261 LINE SMOOTH",
"550 429 OFFCURVE",
"455 534 OFFCURVE",
"302 534 CURVE SMOOTH",
"147 534 OFFCURVE",
"44 425 OFFCURVE",
"44 261 CURVE SMOOTH",
"44 93 OFFCURVE",
"151 -12 OFFCURVE",
"320 -12 CURVE SMOOTH"
);
}
);
width = 594;
}
);
unicode = 0065;
},
{
glyphname = f;
lastChange = "2015-05-28 17:59:49 +0000";
layers = (
{
layerId = UUID0;
name = Regular;
paths = (
{
closed = 1;
nodes = (
"242 0 LINE",
"242 446 LINE",
"396 446 LINE",
"396 522 LINE",
"242 522 LINE",
"242 592 LINE SMOOTH",
"242 646 OFFCURVE",
"266 689 OFFCURVE",
"334 689 CURVE SMOOTH",
"355 689 OFFCURVE",
"370 685 OFFCURVE",
"396 673 CURVE",
"396 749 LINE",
"365 761 OFFCURVE",
"346 766 OFFCURVE",
"316 766 CURVE SMOOTH",
"205 766 OFFCURVE",
"154 695 OFFCURVE",
"154 582 CURVE SMOOTH",
"154 522 LINE",
"44 522 LINE",
"44 446 LINE",
"154 446 LINE",
"154 0 LINE"
);
}
);
width = 440;
},
{
layerId = "CD42366C-28E1-4C24-AB95-7D2C522D2B07";
name = Bold;
paths = (
{
closed = 1;
nodes = (
"264 0 LINE",
"264 424 LINE",
"418 424 LINE",
"418 522 LINE",
"264 522 LINE",
"264 582 LINE SMOOTH",
"264 637 OFFCURVE",
"286 656 OFFCURVE",
"336 656 CURVE SMOOTH",
"366 656 OFFCURVE",
"391 649 OFFCURVE",
"418 633 CURVE",
"418 742 LINE",
"393 758 OFFCURVE",
"368 766 OFFCURVE",
"323 766 CURVE SMOOTH",
"201 766 OFFCURVE",
"132 708 OFFCURVE",
"132 582 CURVE SMOOTH",
"132 522 LINE",
"22 522 LINE",
"22 424 LINE",
"132 424 LINE",
"132 0 LINE"
);
}
);
width = 440;
}
);
unicode = 0066;
},
{
glyphname = g;
lastChange = "2015-05-28 17:59:49 +0000";
layers = (
{
layerId = UUID0;
name = Regular;
paths = (
{
closed = 1;
nodes = (
"371 7 OFFCURVE",
"416 24 OFFCURVE",
"474 74 CURVE",
"474 159 LINE",
"413 113 OFFCURVE",
"372 88 OFFCURVE",
"295 88 CURVE SMOOTH",
"198 88 OFFCURVE",
"161 160 OFFCURVE",
"161 267 CURVE SMOOTH",
"161 381 OFFCURVE",
"207 456 OFFCURVE",
"314 456 CURVE SMOOTH",
"377 456 OFFCURVE",
"414 447 OFFCURVE",
"473 424 CURVE",
"473 489 LINE",
"410 517 OFFCURVE",
"373 534 OFFCURVE",
"304 534 CURVE SMOOTH",
"144 534 OFFCURVE",
"66 432 OFFCURVE",
"66 266 CURVE SMOOTH",
"66 106 OFFCURVE",
"141 7 OFFCURVE",
"294 7 CURVE SMOOTH"
);
},
{
closed = 1;
nodes = (
"450 -244 OFFCURVE",
"528 -137 OFFCURVE",
"528 34 CURVE SMOOTH",
"528 407 LINE",
"550 523 LINE",
"462 523 LINE",
"440 435 LINE",
"440 22 LINE SMOOTH",
"440 -90 OFFCURVE",
"392 -162 OFFCURVE",
"286 -162 CURVE SMOOTH",
"201 -162 OFFCURVE",
"152 -144 OFFCURVE",
"87 -90 CURVE",
"87 -179 LINE",
"151 -233 OFFCURVE",
"202 -244 OFFCURVE",
"286 -244 CURVE SMOOTH"
);
}
);
width = 638;
},
{
layerId = "CD42366C-28E1-4C24-AB95-7D2C522D2B07";
name = Bold;
paths = (
{
closed = 1;
nodes = (
"364 7 OFFCURVE",
"423 30 OFFCURVE",
"474 74 CURVE",
"474 192 LINE",
"410 144 OFFCURVE",
"352 121 OFFCURVE",
"296 121 CURVE SMOOTH",
"218 121 OFFCURVE",
"183 166 OFFCURVE",
"183 268 CURVE SMOOTH",
"183 376 OFFCURVE",
"222 423 OFFCURVE",
"314 423 CURVE SMOOTH",
"362 423 OFFCURVE",
"419 423 OFFCURVE",
"473 391 CURVE",
"473 489 LINE",
"398 522 OFFCURVE",
"356 534 OFFCURVE",
"301 534 CURVE SMOOTH",
"143 534 OFFCURVE",
"44 434 OFFCURVE",
"44 268 CURVE SMOOTH",
"44 105 OFFCURVE",
"139 7 OFFCURVE",
"291 7 CURVE SMOOTH"
);
},
{
closed = 1;
nodes = (
"452 -244 OFFCURVE",
"550 -162 OFFCURVE",
"550 0 CURVE SMOOTH",
"550 407 LINE",
"572 522 LINE",
"440 522 LINE",
"418 435 LINE",
"418 0 LINE SMOOTH",
"418 -81 OFFCURVE",
"379 -129 OFFCURVE",
"278 -129 CURVE SMOOTH",
"204 -129 OFFCURVE",
"136 -103 OFFCURVE",
"76 -57 CURVE",
"76 -168 LINE",
"131 -216 OFFCURVE",
"184 -244 OFFCURVE",
"283 -244 CURVE SMOOTH"
);
}
);
width = 638;
}
);
unicode = 0067;
},
{
glyphname = h;
lastChange = "2015-05-28 17:59:49 +0000";
layers = (
{
layerId = UUID0;
name = Regular;
paths = (
{
closed = 1;
nodes = (
"440 0 LINE",
"528 0 LINE",
"528 362 LINE SMOOTH",
"528 468 OFFCURVE",
"479 534 OFFCURVE",
"378 534 CURVE SMOOTH",
"288 534 OFFCURVE",
"241 500 OFFCURVE",
"176 436 CURVE",
"176 367 LINE",
"235 421 OFFCURVE",
"275 455 OFFCURVE",
"355 455 CURVE SMOOTH",
"414 455 OFFCURVE",
"440 414 OFFCURVE",
"440 350 CURVE SMOOTH"
);
},
{
closed = 1;
nodes = (
"110 0 LINE",
"198 0 LINE",
"198 754 LINE",
"110 754 LINE"
);
}
);
width = 638;
},
{
layerId = "CD42366C-28E1-4C24-AB95-7D2C522D2B07";
name = Bold;
paths = (
{
closed = 1;
nodes = (
"418 0 LINE",
"550 0 LINE",
"550 365 LINE SMOOTH",
"550 466 OFFCURVE",
"480 534 OFFCURVE",
"374 534 CURVE SMOOTH",
"311 534 OFFCURVE",
"260 509 OFFCURVE",
"198 447 CURVE",
"198 334 LINE",
"244 389 OFFCURVE",
"289 417 OFFCURVE",
"330 417 CURVE SMOOTH",
"393 417 OFFCURVE",
"418 381 OFFCURVE",
"418 290 CURVE SMOOTH"
);
},
{
closed = 1;
nodes = (
"88 0 LINE",
"220 0 LINE",
"220 754 LINE",
"88 754 LINE"
);
}
);
width = 638;
}
);
unicode = 0068;
},
{
glyphname = i;
lastChange = "2015-05-28 17:59:49 +0000";
layers = (
{
layerId = UUID0;
name = Regular;
paths = (
{
closed = 1;
nodes = (
"176 0 LINE",
"264 0 LINE",
"264 522 LINE",
"66 522 LINE",
"66 446 LINE",
"176 446 LINE"
);
},
{
closed = 1;
nodes = (
"261 640 OFFCURVE",
"283 663 OFFCURVE",
"283 704 CURVE SMOOTH",
"283 745 OFFCURVE",
"261 768 OFFCURVE",
"220 768 CURVE SMOOTH",
"179 768 OFFCURVE",
"157 745 OFFCURVE",
"157 704 CURVE SMOOTH",
"157 663 OFFCURVE",
"179 640 OFFCURVE",
"220 640 CURVE SMOOTH"
);
}
);
width = 396;
},
{
layerId = "CD42366C-28E1-4C24-AB95-7D2C522D2B07";
name = Bold;
paths = (
{
closed = 1;
nodes = (
"154 0 LINE",
"286 0 LINE",
"286 522 LINE",
"44 522 LINE",
"44 424 LINE",
"154 424 LINE"
);
},
{
closed = 1;
nodes = (
"264 600 OFFCURVE",
"302 633 OFFCURVE",
"302 683 CURVE SMOOTH",
"302 733 OFFCURVE",
"264 766 OFFCURVE",
"220 766 CURVE SMOOTH",
"176 766 OFFCURVE",
"138 733 OFFCURVE",
"138 683 CURVE SMOOTH",
"138 633 OFFCURVE",
"176 600 OFFCURVE",
"220 600 CURVE SMOOTH"
);
}
);
width = 396;
}
);
unicode = 0069;
},
{
glyphname = j;
lastChange = "2015-05-28 17:59:49 +0000";
layers = (
{
layerId = UUID0;
name = Regular;
paths = (
{
closed = 1;
nodes = (
"213 -244 OFFCURVE",
"264 -173 OFFCURVE",
"264 -60 CURVE SMOOTH",
"264 522 LINE",
"66 522 LINE",
"66 446 LINE",
"176 446 LINE",
"176 -60 LINE SMOOTH",
"176 -124 OFFCURVE",
"152 -167 OFFCURVE",
"93 -167 CURVE SMOOTH",
"64 -167 OFFCURVE",
"48 -164 OFFCURVE",
"22 -151 CURVE",
"22 -227 LINE",
"51 -243 OFFCURVE",
"72 -244 OFFCURVE",
"105 -244 CURVE SMOOTH"
);
},
{
closed = 1;
nodes = (
"261 640 OFFCURVE",
"283 663 OFFCURVE",
"283 704 CURVE SMOOTH",
"283 745 OFFCURVE",
"261 768 OFFCURVE",
"220 768 CURVE SMOOTH",
"179 768 OFFCURVE",
"157 745 OFFCURVE",
"157 704 CURVE SMOOTH",
"157 663 OFFCURVE",
"179 640 OFFCURVE",
"220 640 CURVE SMOOTH"
);
}
);
width = 396;
},
{
layerId = "CD42366C-28E1-4C24-AB95-7D2C522D2B07";
name = Bold;
paths = (
{
closed = 1;
nodes = (
"221 -244 OFFCURVE",
"286 -186 OFFCURVE",
"286 -60 CURVE SMOOTH",
"286 522 LINE",
"44 522 LINE",
"44 424 LINE",
"154 424 LINE",
"154 -60 LINE SMOOTH",
"154 -115 OFFCURVE",
"135 -134 OFFCURVE",
"93 -134 CURVE SMOOTH",
"59 -134 OFFCURVE",
"31 -127 OFFCURVE",
"0 -107 CURVE",
"0 -216 LINE",
"28 -236 OFFCURVE",
"56 -244 OFFCURVE",
"105 -244 CURVE SMOOTH"
);
},
{
closed = 1;
nodes = (
"264 600 OFFCURVE",
"302 633 OFFCURVE",
"302 683 CURVE SMOOTH",
"302 733 OFFCURVE",
"264 766 OFFCURVE",
"220 766 CURVE SMOOTH",
"176 766 OFFCURVE",
"138 733 OFFCURVE",
"138 683 CURVE SMOOTH",
"138 633 OFFCURVE",
"176 600 OFFCURVE",
"220 600 CURVE SMOOTH"
);
}
);
width = 396;
}
);
unicode = 006A;
},
{
glyphname = k;
lastChange = "2015-05-28 17:59:49 +0000";
layers = (
{
layerId = UUID0;
name = Regular;
paths = (
{
closed = 1;
nodes = (
"198 0 LINE",
"198 754 LINE",
"110 754 LINE",
"110 0 LINE"
);
},
{
closed = 1;
nodes = (
"159 110 LINE",
"550 522 LINE",
"444 522 LINE",
"148 204 LINE"
);
},
{
closed = 1;
nodes = (
"572 0 LINE",
"348 318 LINE",
"277 274 LINE",
"460 0 LINE"
);
}
);
width = 594;
},
{
layerId = "CD42366C-28E1-4C24-AB95-7D2C522D2B07";
name = Bold;
paths = (
{
closed = 1;
nodes = (
"220 0 LINE",
"220 754 LINE",
"88 754 LINE",
"88 0 LINE"
);
},
{
closed = 1;
nodes = (
"181 110 LINE",
"572 522 LINE",
"422 522 LINE",
"126 204 LINE"
);
},
{
closed = 1;
nodes = (
"594 0 LINE",
"370 318 LINE",
"255 274 LINE",
"438 0 LINE"
);
}
);
width = 594;
}
);
unicode = 006B;
},
{
glyphname = l;
lastChange = "2015-05-28 17:59:49 +0000";
layers = (
{
layerId = UUID0;
name = Regular;
paths = (
{
closed = 1;
nodes = (
"198 0 LINE",
"198 754 LINE",
"110 754 LINE",
"110 0 LINE"
);
}
);
width = 308;
},
{
layerId = "CD42366C-28E1-4C24-AB95-7D2C522D2B07";
name = Bold;
paths = (
{
closed = 1;
nodes = (
"220 0 LINE",
"220 754 LINE",
"88 754 LINE",
"88 0 LINE"
);
}
);
width = 308;
}
);
unicode = 006C;
},
{
glyphname = m;
lastChange = "2015-05-28 17:59:49 +0000";
layers = (
{
layerId = UUID0;
name = Regular;
paths = (
{
closed = 1;
nodes = (
"418 0 LINE",
"506 0 LINE",
"506 362 LINE SMOOTH",
"506 466 OFFCURVE",
"464 534 OFFCURVE",
"367 534 CURVE SMOOTH",
"280 534 OFFCURVE",
"236 499 OFFCURVE",
"176 436 CURVE",
"176 367 LINE",
"231 420 OFFCURVE",
"268 455 OFFCURVE",
"344 455 CURVE SMOOTH",
"400 455 OFFCURVE",
"418 412 OFFCURVE",
"418 350 CURVE SMOOTH"
);
},
{
closed = 1;
nodes = (
"110 0 LINE",
"198 0 LINE",
"198 406 LINE",
"176 522 LINE",
"88 522 LINE",
"110 406 LINE"
);
},
{
closed = 1;
nodes = (
"726 0 LINE",
"814 0 LINE",
"814 362 LINE SMOOTH",
"814 468 OFFCURVE",
"770 536 OFFCURVE",
"675 534 CURVE SMOOTH",
"594 532 OFFCURVE",
"544 499 OFFCURVE",
"484 436 CURVE",
"484 367 LINE",
"539 420 OFFCURVE",
"576 455 OFFCURVE",
"652 455 CURVE SMOOTH",
"708 455 OFFCURVE",
"726 412 OFFCURVE",
"726 350 CURVE SMOOTH"
);
}
);
width = 924;
},
{
layerId = "CD42366C-28E1-4C24-AB95-7D2C522D2B07";
name = Bold;
paths = (
{
closed = 1;
nodes = (
"396 0 LINE",
"528 0 LINE",
"528 372 LINE SMOOTH",
"528 471 OFFCURVE",
"464 534 OFFCURVE",
"363 534 CURVE SMOOTH",
"296 534 OFFCURVE",
"245 510 OFFCURVE",
"188 450 CURVE",
"188 337 LINE",
"230 389 OFFCURVE",
"275 417 OFFCURVE",
"319 417 CURVE SMOOTH",
"374 417 OFFCURVE",
"396 381 OFFCURVE",
"396 290 CURVE SMOOTH"
);
},
{
closed = 1;
nodes = (
"88 0 LINE",
"220 0 LINE",
"220 406 LINE",
"187 522 LINE",
"66 522 LINE",
"88 406 LINE"
);
},
{
closed = 1;
nodes = (
"704 0 LINE",
"836 0 LINE",
"836 372 LINE SMOOTH",
"836 471 OFFCURVE",
"772 534 OFFCURVE",
"671 534 CURVE SMOOTH",
"602 534 OFFCURVE",
"548 508 OFFCURVE",
"496 451 CURVE",
"496 337 LINE",
"538 389 OFFCURVE",
"583 417 OFFCURVE",
"627 417 CURVE SMOOTH",
"682 417 OFFCURVE",
"704 381 OFFCURVE",
"704 290 CURVE SMOOTH"
);
}
);
width = 924;
}
);
unicode = 006D;
},
{
glyphname = n;
lastChange = "2015-05-28 17:59:49 +0000";
layers = (
{
layerId = UUID0;
name = Regular;
paths = (
{
closed = 1;
nodes = (
"440 0 LINE",
"528 0 LINE",
"528 362 LINE SMOOTH",
"528 468 OFFCURVE",
"479 534 OFFCURVE",
"378 534 CURVE SMOOTH",
"288 534 OFFCURVE",
"241 500 OFFCURVE",
"176 436 CURVE",
"176 367 LINE",
"235 421 OFFCURVE",
"275 455 OFFCURVE",
"355 455 CURVE SMOOTH",
"414 455 OFFCURVE",
"440 414 OFFCURVE",
"440 350 CURVE SMOOTH"
);
},
{
closed = 1;
nodes = (
"110 0 LINE",
"198 0 LINE",
"198 406 LINE",
"176 522 LINE",
"88 522 LINE",
"110 406 LINE"
);
}
);
width = 638;
},
{
layerId = "CD42366C-28E1-4C24-AB95-7D2C522D2B07";
name = Bold;
paths = (
{
closed = 1;
nodes = (
"418 0 LINE",
"550 0 LINE",
"550 365 LINE SMOOTH",
"550 466 OFFCURVE",
"480 534 OFFCURVE",
"374 534 CURVE SMOOTH",
"311 534 OFFCURVE",
"260 509 OFFCURVE",
"198 447 CURVE",
"198 334 LINE",
"243 389 OFFCURVE",
"289 417 OFFCURVE",
"330 417 CURVE SMOOTH",
"393 417 OFFCURVE",
"418 381 OFFCURVE",
"418 290 CURVE SMOOTH"
);
},
{
closed = 1;
nodes = (
"88 0 LINE",
"220 0 LINE",
"220 406 LINE",
"187 522 LINE",
"66 522 LINE",
"88 406 LINE"
);
}
);
width = 638;
}
);
unicode = 006E;
},
{
glyphname = o;
lastChange = "2015-05-28 17:59:49 +0000";
layers = (
{
layerId = UUID0;
name = Regular;
paths = (
{
closed = 1;
nodes = (
"463 -12 OFFCURVE",
"550 99 OFFCURVE",
"550 261 CURVE SMOOTH",
"550 423 OFFCURVE",
"463 534 OFFCURVE",
"308 534 CURVE SMOOTH",
"153 534 OFFCURVE",
"66 423 OFFCURVE",
"66 261 CURVE SMOOTH",
"66 99 OFFCURVE",
"153 -12 OFFCURVE",
"308 -12 CURVE SMOOTH"
);
},
{
closed = 1;
nodes = (
"206 64 OFFCURVE",
"162 149 OFFCURVE",
"162 261 CURVE SMOOTH",
"162 373 OFFCURVE",
"206 458 OFFCURVE",
"308 458 CURVE SMOOTH",
"410 458 OFFCURVE",
"455 373 OFFCURVE",
"455 261 CURVE SMOOTH",
"455 149 OFFCURVE",
"410 64 OFFCURVE",
"308 64 CURVE SMOOTH"
);
}
);
width = 616;
},
{
layerId = "CD42366C-28E1-4C24-AB95-7D2C522D2B07";
name = Bold;
paths = (
{
closed = 1;
nodes = (
"468 -12 OFFCURVE",
"572 95 OFFCURVE",
"572 261 CURVE SMOOTH",
"572 427 OFFCURVE",
"468 534 OFFCURVE",
"308 534 CURVE SMOOTH",
"148 534 OFFCURVE",
"44 427 OFFCURVE",
"44 261 CURVE SMOOTH",
"44 95 OFFCURVE",
"148 -12 OFFCURVE",
"308 -12 CURVE SMOOTH"
);
},
{
closed = 1;
nodes = (
"231 97 OFFCURVE",
"183 154 OFFCURVE",
"183 261 CURVE SMOOTH",
"183 369 OFFCURVE",
"231 425 OFFCURVE",
"308 425 CURVE SMOOTH",
"385 425 OFFCURVE",
"433 369 OFFCURVE",
"433 261 CURVE SMOOTH",
"433 154 OFFCURVE",
"385 97 OFFCURVE",
"308 97 CURVE SMOOTH"
);
}
);
width = 616;
}
);
unicode = 006F;
},
{
glyphname = p;
lastChange = "2015-05-28 17:59:49 +0000";
layers = (
{
layerId = UUID0;
name = Regular;
paths = (
{
closed = 1;
nodes = (
"198 -232 LINE",
"198 406 LINE",
"176 522 LINE",
"88 522 LINE",
"110 406 LINE",
"110 -232 LINE"
);
},
{
closed = 1;
nodes = (
"484 -11 OFFCURVE",
"572 105 OFFCURVE",
"572 260 CURVE SMOOTH",
"572 413 OFFCURVE",
"500 534 OFFCURVE",
"359 534 CURVE SMOOTH",
"273 534 OFFCURVE",
"212 494 OFFCURVE",
"164 423 CURVE",
"164 338 LINE",
"216 404 OFFCURVE",
"268 453 OFFCURVE",
"351 453 CURVE SMOOTH",
"443 453 OFFCURVE",
"477 364 OFFCURVE",
"477 260 CURVE SMOOTH",
"477 152 OFFCURVE",
"426 67 OFFCURVE",
"326 67 CURVE SMOOTH",
"266 67 OFFCURVE",
"221 78 OFFCURVE",
"165 99 CURVE",
"165 34 LINE",
"223 8 OFFCURVE",
"271 -11 OFFCURVE",
"335 -11 CURVE SMOOTH"
);
}
);
width = 638;
},
{
layerId = "CD42366C-28E1-4C24-AB95-7D2C522D2B07";
name = Bold;
paths = (
{
closed = 1;
nodes = (
"220 -232 LINE",
"220 406 LINE",
"187 522 LINE",
"66 522 LINE",
"88 406 LINE",
"88 -232 LINE"
);
},
{
closed = 1;
nodes = (
"491 -12 OFFCURVE",
"594 107 OFFCURVE",
"594 266 CURVE SMOOTH",
"594 425 OFFCURVE",
"508 533 OFFCURVE",
"382 533 CURVE SMOOTH",
"295 533 OFFCURVE",
"211 483 OFFCURVE",
"164 402 CURVE",
"164 301 LINE",
"226 385 OFFCURVE",
"288 425 OFFCURVE",
"352 425 CURVE SMOOTH",
"419 425 OFFCURVE",
"455 366 OFFCURVE",
"455 264 CURVE SMOOTH",
"455 152 OFFCURVE",
"412 97 OFFCURVE",
"325 97 CURVE SMOOTH",
"277 97 OFFCURVE",
"219 108 OFFCURVE",
"165 126 CURVE",
"165 49 LINE",
"224 6 OFFCURVE",
"278 -12 OFFCURVE",
"352 -12 CURVE SMOOTH"
);
}
);
width = 638;
}
);
unicode = 0070;
},
{
glyphname = q;
lastChange = "2015-05-28 17:59:49 +0000";
layers = (
{
layerId = UUID0;
name = Regular;
paths = (
{
closed = 1;
nodes = (
"528 -232 LINE",
"528 407 LINE",
"550 523 LINE",
"462 523 LINE",
"440 441 LINE",
"440 -232 LINE"
);
},
{
closed = 1;
nodes = (
"357 -11 OFFCURVE",
"422 27 OFFCURVE",
"474 100 CURVE",
"474 185 LINE",
"419 119 OFFCURVE",
"366 70 OFFCURVE",
"281 70 CURVE SMOOTH",
"192 70 OFFCURVE",
"161 157 OFFCURVE",
"161 258 CURVE SMOOTH",
"161 368 OFFCURVE",
"212 456 OFFCURVE",
"313 456 CURVE SMOOTH",
"373 456 OFFCURVE",
"418 444 OFFCURVE",
"473 421 CURVE",
"473 484 LINE",
"416 514 OFFCURVE",
"368 534 OFFCURVE",
"304 534 CURVE SMOOTH",
"153 534 OFFCURVE",
"66 415 OFFCURVE",
"66 256 CURVE SMOOTH",
"66 108 OFFCURVE",
"132 -11 OFFCURVE",
"267 -11 CURVE SMOOTH"
);
}
);
width = 638;
},
{
layerId = "CD42366C-28E1-4C24-AB95-7D2C522D2B07";
name = Bold;
paths = (
{
closed = 1;
nodes = (
"550 -231 LINE",
"550 407 LINE",
"572 523 LINE",
"440 523 LINE",
"418 417 LINE",
"418 -231 LINE"
);
},
{
closed = 1;
nodes = (
"362 -11 OFFCURVE",
"427 18 OFFCURVE",
"474 67 CURVE",
"474 174 LINE",
"411 127 OFFCURVE",
"353 103 OFFCURVE",
"298 103 CURVE SMOOTH",
"217 103 OFFCURVE",
"183 153 OFFCURVE",
"183 275 CURVE SMOOTH",
"183 376 OFFCURVE",
"224 423 OFFCURVE",
"313 423 CURVE SMOOTH",
"389 423 OFFCURVE",
"433 414 OFFCURVE",
"473 391 CURVE",
"473 484 LINE",
"397 521 OFFCURVE",
"354 534 OFFCURVE",
"304 534 CURVE SMOOTH",
"146 534 OFFCURVE",
"44 433 OFFCURVE",
"44 275 CURVE SMOOTH",
"44 90 OFFCURVE",
"134 -11 OFFCURVE",
"298 -11 CURVE SMOOTH"
);
}
);
width = 638;
}
);
unicode = 0071;
},
{
glyphname = r;
lastChange = "2015-05-28 17:59:49 +0000";
layers = (
{
layerId = UUID0;
name = Regular;
paths = (
{
closed = 1;
nodes = (
"196 368 LINE",
"237 413 OFFCURVE",
"301 437 OFFCURVE",
"381 437 CURVE SMOOTH",
"396 437 LINE",
"396 534 LINE",
"365 534 LINE SMOOTH",
"300 534 OFFCURVE",
"259 506 OFFCURVE",
"182 412 CURVE"
);
},
{
closed = 1;
nodes = (
"110 0 LINE",
"198 0 LINE",
"198 406 LINE",
"176 522 LINE",
"88 522 LINE",
"110 406 LINE"
);
}
);
width = 440;
},
{
layerId = "CD42366C-28E1-4C24-AB95-7D2C522D2B07";
name = Bold;
paths = (
{
closed = 1;
nodes = (
"196 335 LINE",
"237 380 OFFCURVE",
"301 404 OFFCURVE",
"381 404 CURVE SMOOTH",
"418 404 LINE",
"418 534 LINE",
"365 534 LINE SMOOTH",
"300 534 OFFCURVE",
"259 506 OFFCURVE",
"182 412 CURVE"
);
},
{
closed = 1;
nodes = (
"88 0 LINE",
"220 0 LINE",
"220 406 LINE",
"198 522 LINE",
"66 522 LINE",
"88 406 LINE"
);
}
);
width = 440;
}
);
unicode = 0072;
},
{
glyphname = s;
lastChange = "2015-05-28 17:59:49 +0000";
layers = (
{
layerId = UUID0;
name = Regular;
paths = (
{
closed = 1;
nodes = (
"376 -12 OFFCURVE",
"462 55 OFFCURVE",
"462 153 CURVE SMOOTH",
"462 255 OFFCURVE",
"368 281 OFFCURVE",
"286 304 CURVE SMOOTH",
"222 323 OFFCURVE",
"164 339 OFFCURVE",
"164 388 CURVE SMOOTH",
"164 431 OFFCURVE",
"208 456 OFFCURVE",
"278 456 CURVE SMOOTH",
"334 456 OFFCURVE",
"383 440 OFFCURVE",
"440 400 CURVE",
"440 489 LINE",
"387 521 OFFCURVE",
"329 534 OFFCURVE",
"274 534 CURVE SMOOTH",
"156 534 OFFCURVE",
"76 474 OFFCURVE",
"76 380 CURVE SMOOTH",
"76 282 OFFCURVE",
"167 255 OFFCURVE",
"248 233 CURVE SMOOTH",
"314 214 OFFCURVE",
"374 198 OFFCURVE",
"374 145 CURVE SMOOTH",
"374 97 OFFCURVE",
"325 66 OFFCURVE",
"252 66 CURVE SMOOTH",
"189 66 OFFCURVE",
"129 89 OFFCURVE",
"66 136 CURVE",
"66 44 LINE",
"122 8 OFFCURVE",
"188 -12 OFFCURVE",
"254 -12 CURVE SMOOTH"
);
}
);
width = 528;
},
{
layerId = "CD42366C-28E1-4C24-AB95-7D2C522D2B07";
name = Bold;
paths = (
{
closed = 1;
nodes = (
"389 -12 OFFCURVE",
"484 55 OFFCURVE",
"484 151 CURVE SMOOTH",
"484 282 OFFCURVE",
"372 306 OFFCURVE",
"285 324 CURVE SMOOTH",
"230 336 OFFCURVE",
"186 346 OFFCURVE",
"186 378 CURVE SMOOTH",
"186 408 OFFCURVE",
"227 423 OFFCURVE",
"292 423 CURVE SMOOTH",
"352 423 OFFCURVE",
"401 406 OFFCURVE",
"462 367 CURVE",
"462 489 LINE",
"402 521 OFFCURVE",
"349 534 OFFCURVE",
"281 534 CURVE SMOOTH",
"143 534 OFFCURVE",
"54 474 OFFCURVE",
"54 380 CURVE SMOOTH",
"54 258 OFFCURVE",
"159 235 OFFCURVE",
"244 215 CURVE SMOOTH",
"303 202 OFFCURVE",
"352 191 OFFCURVE",
"352 152 CURVE SMOOTH",
"352 116 OFFCURVE",
"314 99 OFFCURVE",
"242 99 CURVE SMOOTH",
"168 99 OFFCURVE",
"111 122 OFFCURVE",
"44 169 CURVE",
"44 44 LINE",
"107 8 OFFCURVE",
"180 -12 OFFCURVE",
"254 -12 CURVE SMOOTH"
);
}
);
width = 528;
}
);
unicode = 0073;
},
{
glyphname = t;
lastChange = "2015-05-28 17:59:49 +0000";
layers = (
{
layerId = UUID0;
name = Regular;
paths = (
{
closed = 1;
nodes = (
"154 662 LINE",
"154 522 LINE",
"44 522 LINE",
"44 446 LINE",
"154 446 LINE",
"154 138 LINE SMOOTH",
"154 48 OFFCURVE",
"204 -12 OFFCURVE",
"291 -12 CURVE SMOOTH",
"331 -12 OFFCURVE",
"359 -10 OFFCURVE",
"396 6 CURVE",
"396 84 LINE",
"365 71 OFFCURVE",
"341 65 OFFCURVE",
"307 65 CURVE SMOOTH",
"263 65 OFFCURVE",
"242 100 OFFCURVE",
"242 147 CURVE SMOOTH",
"242 446 LINE",
"396 446 LINE",
"396 522 LINE",
"242 522 LINE",
"242 708 LINE"
);
}
);
width = 440;
},
{
layerId = "CD42366C-28E1-4C24-AB95-7D2C522D2B07";
name = Bold;
paths = (
{
closed = 1;
nodes = (
"132 662 LINE",
"132 522 LINE",
"22 522 LINE",
"22 424 LINE",
"132 424 LINE",
"132 172 LINE SMOOTH",
"132 48 OFFCURVE",
"187 -12 OFFCURVE",
"299 -12 CURVE SMOOTH",
"342 -12 OFFCURVE",
"393 -4 OFFCURVE",
"418 6 CURVE",
"418 115 LINE",
"396 106 OFFCURVE",
"355 98 OFFCURVE",
"319 98 CURVE SMOOTH",
"283 98 OFFCURVE",
"264 122 OFFCURVE",
"264 172 CURVE SMOOTH",
"264 424 LINE",
"418 424 LINE",
"418 522 LINE",
"264 522 LINE",
"264 708 LINE"
);
}
);
width = 440;
}
);
unicode = 0074;
},
{
glyphname = u;
lastChange = "2015-05-28 17:59:49 +0000";
layers = (
{
layerId = UUID0;
name = Regular;
paths = (
{
closed = 1;
nodes = (
"175 522 LINE",
"87 522 LINE",
"87 160 LINE SMOOTH",
"87 58 OFFCURVE",
"140 -12 OFFCURVE",
"237 -12 CURVE SMOOTH",
"323 -12 OFFCURVE",
"377 25 OFFCURVE",
"439 86 CURVE",
"439 155 LINE",
"382 103 OFFCURVE",
"337 67 OFFCURVE",
"260 67 CURVE SMOOTH",
"203 67 OFFCURVE",
"175 111 OFFCURVE",
"175 172 CURVE SMOOTH"
);
},
{
closed = 1;
nodes = (
"505 522 LINE",
"417 522 LINE",
"417 116 LINE",
"439 0 LINE",
"527 0 LINE",
"505 116 LINE"
);
}
);
width = 616;
},
{
layerId = "CD42366C-28E1-4C24-AB95-7D2C522D2B07";
name = Bold;
paths = (
{
closed = 1;
nodes = (
"198 522 LINE",
"66 522 LINE",
"66 157 LINE SMOOTH",
"66 59 OFFCURVE",
"137 -12 OFFCURVE",
"233 -12 CURVE SMOOTH",
"301 -12 OFFCURVE",
"345 8 OFFCURVE",
"418 75 CURVE",
"418 188 LINE",
"365 128 OFFCURVE",
"325 105 OFFCURVE",
"276 105 CURVE SMOOTH",
"225 105 OFFCURVE",
"198 148 OFFCURVE",
"198 232 CURVE SMOOTH"
);
},
{
closed = 1;
nodes = (
"528 522 LINE",
"396 522 LINE",
"396 116 LINE",
"429 0 LINE",
"550 0 LINE",
"528 116 LINE"
);
}
);
width = 616;
}
);
unicode = 0075;
},
{
glyphname = v;
lastChange = "2015-05-28 17:59:49 +0000";
layers = (
{
layerId = UUID0;
name = Regular;
paths = (
{
closed = 1;
nodes = (
"325 0 LINE",
"134 522 LINE",
"44 522 LINE",
"237 0 LINE"
);
},
{
closed = 1;
nodes = (
"357 0 LINE",
"550 522 LINE",
"464 522 LINE",
"273 0 LINE"
);
}
);
width = 594;
},
{
layerId = "CD42366C-28E1-4C24-AB95-7D2C522D2B07";
name = Bold;
paths = (
{
closed = 1;
nodes = (
"337 0 LINE",
"156 522 LINE",
"22 522 LINE",
"215 0 LINE"
);
},
{
closed = 1;
nodes = (
"379 0 LINE",
"572 522 LINE",
"442 522 LINE",
"261 0 LINE"
);
}
);
width = 594;
}
);
unicode = 0076;
},
{
glyphname = w;
lastChange = "2015-05-28 17:59:49 +0000";
layers = (
{
layerId = UUID0;
name = Regular;
paths = (
{
closed = 1;
nodes = (
"292 0 LINE",
"134 522 LINE",
"44 522 LINE",
"204 0 LINE"
);
},
{
closed = 1;
nodes = (
"318 0 LINE",
"476 522 LINE",
"396 522 LINE",
"240 0 LINE"
);
},
{
closed = 1;
nodes = (
"644 0 LINE",
"486 522 LINE",
"402 522 LINE",
"562 0 LINE"
);
},
{
closed = 1;
nodes = (
"676 0 LINE",
"835 522 LINE",
"749 522 LINE",
"592 0 LINE"
);
}
);
width = 880;
},
{
layerId = "CD42366C-28E1-4C24-AB95-7D2C522D2B07";
name = Bold;
paths = (
{
closed = 1;
nodes = (
"304 0 LINE",
"156 522 LINE",
"22 522 LINE",
"182 0 LINE"
);
},
{
closed = 1;
nodes = (
"340 0 LINE",
"488 522 LINE",
"374 522 LINE",
"228 0 LINE"
);
},
{
closed = 1;
nodes = (
"656 0 LINE",
"508 522 LINE",
"390 522 LINE",
"540 0 LINE"
);
},
{
closed = 1;
nodes = (
"698 0 LINE",
"857 522 LINE",
"727 522 LINE",
"580 0 LINE"
);
}
);
width = 880;
}
);
unicode = 0077;
},
{
glyphname = x;
lastChange = "2015-05-28 17:59:49 +0000";
layers = (
{
layerId = UUID0;
name = Regular;
paths = (
{
closed = 1;
nodes = (
"550 0 LINE",
"146 522 LINE",
"44 522 LINE",
"448 0 LINE"
);
},
{
closed = 1;
nodes = (
"260 310 LINE",
"22 0 LINE",
"117 0 LINE",
"300 244 LINE"
);
},
{
closed = 1;
nodes = (
"313 241 LINE",
"528 522 LINE",
"433 522 LINE",
"273 307 LINE"
);
}
);
width = 572;
},
{
layerId = "CD42366C-28E1-4C24-AB95-7D2C522D2B07";
name = Bold;
paths = (
{
closed = 1;
nodes = (
"572 0 LINE",
"168 522 LINE",
"22 522 LINE",
"426 0 LINE"
);
},
{
closed = 1;
nodes = (
"238 310 LINE",
"0 0 LINE",
"139 0 LINE",
"322 244 LINE"
);
},
{
closed = 1;
nodes = (
"335 241 LINE",
"550 522 LINE",
"411 522 LINE",
"251 307 LINE"
);
}
);
width = 572;
}
);
unicode = 0078;
},
{
glyphname = y;
lastChange = "2015-05-28 17:59:49 +0000";
layers = (
{
layerId = UUID0;
name = Regular;
paths = (
{
closed = 1;
nodes = (
"333 0 LINE",
"134 522 LINE",
"44 522 LINE",
"255 -17 LINE"
);
},
{
closed = 1;
nodes = (
"251 -232 LINE",
"550 522 LINE",
"456 522 LINE",
"281 50 LINE",
"273 50 LINE",
"161 -232 LINE"
);
}
);
width = 594;
},
{
layerId = "CD42366C-28E1-4C24-AB95-7D2C522D2B07";
name = Bold;
paths = (
{
closed = 1;
nodes = (
"354 0 LINE",
"156 522 LINE",
"22 522 LINE",
"233 -17 LINE"
);
},
{
closed = 1;
nodes = (
"273 -232 LINE",
"571 522 LINE",
"439 522 LINE",
"268 50 LINE",
"260 50 LINE",
"148 -232 LINE"
);
}
);
width = 594;
}
);
unicode = 0079;
},
{
glyphname = z;
lastChange = "2015-05-28 17:59:49 +0000";
layers = (
{
layerId = UUID0;
name = Regular;
paths = (
{
closed = 1;
nodes = (
"506 522 LINE",
"88 522 LINE",
"88 453 LINE",
"444 453 LINE",
"506 463 LINE"
);
},
{
closed = 1;
nodes = (
"528 69 LINE",
"96 69 LINE",
"66 59 LINE",
"66 0 LINE",
"528 0 LINE"
);
},
{
closed = 1;
nodes = (
"171 59 LINE",
"506 463 LINE",
"402 463 LINE",
"66 59 LINE"
);
}
);
width = 594;
},
{
layerId = "CD42366C-28E1-4C24-AB95-7D2C522D2B07";
name = Bold;
paths = (
{
closed = 1;
nodes = (
"529 522 LINE",
"66 522 LINE",
"66 420 LINE",
"466 420 LINE",
"529 430 LINE"
);
},
{
closed = 1;
nodes = (
"550 102 LINE",
"74 102 LINE",
"44 92 LINE",
"44 0 LINE",
"550 0 LINE"
);
},
{
closed = 1;
nodes = (
"220 98 LINE",
"529 430 LINE",
"354 424 LINE",
"44 92 LINE"
);
}
);
width = 594;
}
);
unicode = 007A;
},
{
glyphname = "aShort-deva";
lastChange = "2015-05-28 17:59:49 +0000";
layers = (
{
components = (
{
name = "a-deva";
}
);
layerId = UUID0;
name = Regular;
paths = (
{
closed = 1;
nodes = (
"763 610 LINE",
"763 638 LINE SMOOTH",
"763 727 OFFCURVE",
"723 820 OFFCURVE",
"605 833 CURVE SMOOTH",
"469 848 OFFCURVE",
"435 863 OFFCURVE",
"435 928 CURVE",
"367 928 LINE",
"367 824 OFFCURVE",
"427 789 OFFCURVE",
"569 776 CURVE SMOOTH",
"656 768 OFFCURVE",
"686 725 OFFCURVE",
"686 638 CURVE",
"686 610 LINE"
);
}
);
width = 902;
},
{
components = (
{
name = "a-deva";
}
);
layerId = "CD42366C-28E1-4C24-AB95-7D2C522D2B07";
name = Bold;
paths = (
{
closed = 1;
nodes = (
"785 610 LINE",
"785 638 LINE SMOOTH",
"785 732 OFFCURVE",
"745 831 OFFCURVE",
"627 844 CURVE SMOOTH",
"491 859 OFFCURVE",
"457 871 OFFCURVE",
"457 928 CURVE",
"345 928 LINE",
"345 817 OFFCURVE",
"405 778 OFFCURVE",
"547 765 CURVE SMOOTH",
"634 757 OFFCURVE",
"664 718 OFFCURVE",
"664 638 CURVE",
"664 610 LINE"
);
}
);
width = 902;
}
);
unicode = 0904;
},
{
glyphname = "a-deva";
lastChange = "2015-05-28 17:59:49 +0000";
layers = (
{
layerId = UUID0;
name = Regular;
paths = (
{
closed = 1;
nodes = (
"207 327 LINE",
"262 327 LINE",
"389 351 OFFCURVE",
"450 406 OFFCURVE",
"450 497 CURVE SMOOTH",
"450 592 OFFCURVE",
"384 650 OFFCURVE",
"278 650 CURVE SMOOTH",
"193 650 OFFCURVE",
"112 613 OFFCURVE",
"64 552 CURVE",
"64 548 LINE",
"94 493 LINE",
"98 493 LINE",
"145 549 OFFCURVE",
"207 580 OFFCURVE",
"273 580 CURVE SMOOTH",
"334 580 OFFCURVE",
"370 554 OFFCURVE",
"370 504 CURVE SMOOTH",
"370 439 OFFCURVE",
"311 386 OFFCURVE",
"236 386 CURVE SMOOTH",
"207 386 LINE"
);
},
{
closed = 1;
nodes = (
"380 20 OFFCURVE",
"454 89 OFFCURVE",
"454 179 CURVE SMOOTH",
"454 279 OFFCURVE",
"364 363 OFFCURVE",
"262 363 CURVE SMOOTH",
"242 363 LINE",
"242 327 LINE",
"311 327 OFFCURVE",
"375 278 OFFCURVE",
"375 204 CURVE SMOOTH",
"375 141 OFFCURVE",
"329 98 OFFCURVE",
"260 98 CURVE SMOOTH",
"191 98 OFFCURVE",
"128 141 OFFCURVE",
"65 235 CURVE",
"61 235 LINE",
"26 191 LINE",
"26 187 LINE",
"80 84 OFFCURVE",
"175 20 OFFCURVE",
"276 20 CURVE SMOOTH"
);
},
{
closed = 1;
nodes = (
"682 0 LINE",
"770 0 LINE",
"770 580 LINE",
"924 580 LINE",
"924 638 LINE",
"594 638 LINE",
"594 580 LINE",
"682 580 LINE"
);
},
{
closed = 1;
nodes = (
"352 289 LINE",
"726 289 LINE",
"726 348 LINE",
"312 348 LINE"
);
}
);
width = 902;
},
{
layerId = "CD42366C-28E1-4C24-AB95-7D2C522D2B07";
name = Bold;
paths = (
{
closed = 1;
nodes = (
"185 316 LINE",
"262 316 LINE",
"407 341 OFFCURVE",
"472 404 OFFCURVE",
"472 495 CURVE SMOOTH",
"472 592 OFFCURVE",
"398 650 OFFCURVE",
"282 650 CURVE SMOOTH",
"187 650 OFFCURVE",
"111 611 OFFCURVE",
"64 552 CURVE",
"64 548 LINE",
"116 493 LINE",
"120 493 LINE",
"161 535 OFFCURVE",
"218 558 OFFCURVE",
"267 558 CURVE SMOOTH",
"321 558 OFFCURVE",
"348 530 OFFCURVE",
"348 488 CURVE SMOOTH",
"348 431 OFFCURVE",
"299 396 OFFCURVE",
"236 396 CURVE SMOOTH",
"185 396 LINE"
);
},
{
closed = 1;
nodes = (
"392 20 OFFCURVE",
"476 88 OFFCURVE",
"476 183 CURVE SMOOTH",
"476 286 OFFCURVE",
"376 379 OFFCURVE",
"262 379 CURVE SMOOTH",
"242 379 LINE",
"242 316 LINE",
"300 316 OFFCURVE",
"353 276 OFFCURVE",
"353 213 CURVE SMOOTH",
"353 160 OFFCURVE",
"316 120 OFFCURVE",
"258 120 CURVE SMOOTH",
"200 120 OFFCURVE",
"143 160 OFFCURVE",
"87 246 CURVE",
"83 246 LINE",
"26 191 LINE",
"26 187 LINE",
"79 87 OFFCURVE",
"169 20 OFFCURVE",
"280 20 CURVE SMOOTH"
);
},
{
closed = 1;
nodes = (
"660 0 LINE",
"792 0 LINE",
"792 558 LINE",
"924 558 LINE",
"924 638 LINE",
"572 638 LINE",
"572 558 LINE",
"660 558 LINE"
);
},
{
closed = 1;
nodes = (
"352 290 LINE",
"726 290 LINE",
"726 371 LINE",
"312 371 LINE"
);
}
);
width = 902;
}
);
unicode = 0905;
},
{
glyphname = "aa-deva";
lastChange = "2015-05-28 17:59:49 +0000";
layers = (
{
layerId = UUID0;
name = Regular;
paths = (
{
closed = 1;
nodes = (
"207 327 LINE",
"262 327 LINE",
"389 351 OFFCURVE",
"450 406 OFFCURVE",
"450 497 CURVE SMOOTH",
"450 592 OFFCURVE",
"384 650 OFFCURVE",
"278 650 CURVE SMOOTH",
"193 650 OFFCURVE",
"112 613 OFFCURVE",
"64 552 CURVE",
"64 548 LINE",
"94 493 LINE",
"98 493 LINE",
"145 549 OFFCURVE",
"207 580 OFFCURVE",
"273 580 CURVE SMOOTH",
"334 580 OFFCURVE",
"370 554 OFFCURVE",
"370 504 CURVE SMOOTH",
"370 439 OFFCURVE",
"311 386 OFFCURVE",
"236 386 CURVE SMOOTH",
"207 386 LINE"
);
},
{
closed = 1;
nodes = (
"380 20 OFFCURVE",
"454 89 OFFCURVE",
"454 179 CURVE SMOOTH",
"454 279 OFFCURVE",
"364 363 OFFCURVE",
"262 363 CURVE SMOOTH",
"242 363 LINE",
"242 327 LINE",
"311 327 OFFCURVE",
"375 278 OFFCURVE",
"375 204 CURVE SMOOTH",
"375 141 OFFCURVE",
"329 98 OFFCURVE",
"260 98 CURVE SMOOTH",
"191 98 OFFCURVE",
"128 141 OFFCURVE",
"65 235 CURVE",
"61 235 LINE",
"26 191 LINE",
"26 187 LINE",
"80 84 OFFCURVE",
"175 20 OFFCURVE",
"276 20 CURVE SMOOTH"
);
},
{
closed = 1;
nodes = (
"682 0 LINE",
"770 0 LINE",
"770 580 LINE",
"924 580 LINE",
"924 638 LINE",
"594 638 LINE",
"594 580 LINE",
"682 580 LINE"
);
},
{
closed = 1;
nodes = (
"1122 0 LINE",
"1122 580 LINE",
"1276 580 LINE",
"1276 638 LINE",
"880 638 LINE",
"880 580 LINE",
"1034 580 LINE",
"1034 0 LINE"
);
},
{
closed = 1;
nodes = (
"352 289 LINE",
"726 289 LINE",
"726 348 LINE",
"312 348 LINE"
);
}
);
width = 1254;
},
{
layerId = "CD42366C-28E1-4C24-AB95-7D2C522D2B07";
name = Bold;
paths = (
{
closed = 1;
nodes = (
"185 316 LINE",
"262 316 LINE",
"407 341 OFFCURVE",
"472 404 OFFCURVE",
"472 495 CURVE SMOOTH",
"472 592 OFFCURVE",
"398 650 OFFCURVE",
"282 650 CURVE SMOOTH",
"187 650 OFFCURVE",
"111 611 OFFCURVE",
"64 552 CURVE",
"64 548 LINE",
"116 493 LINE",
"120 493 LINE",
"161 535 OFFCURVE",
"218 558 OFFCURVE",
"267 558 CURVE SMOOTH",
"321 558 OFFCURVE",
"348 530 OFFCURVE",
"348 488 CURVE SMOOTH",
"348 431 OFFCURVE",
"299 396 OFFCURVE",
"236 396 CURVE SMOOTH",
"185 396 LINE"
);
},
{
closed = 1;
nodes = (
"392 20 OFFCURVE",
"476 88 OFFCURVE",
"476 183 CURVE SMOOTH",
"476 286 OFFCURVE",
"376 379 OFFCURVE",
"262 379 CURVE SMOOTH",
"242 379 LINE",
"242 316 LINE",
"300 316 OFFCURVE",
"353 276 OFFCURVE",
"353 213 CURVE SMOOTH",
"353 160 OFFCURVE",
"316 120 OFFCURVE",
"258 120 CURVE SMOOTH",
"200 120 OFFCURVE",
"143 160 OFFCURVE",
"87 246 CURVE",
"83 246 LINE",
"26 191 LINE",
"26 187 LINE",
"79 87 OFFCURVE",
"169 20 OFFCURVE",
"280 20 CURVE SMOOTH"
);
},
{
closed = 1;
nodes = (
"660 0 LINE",
"792 0 LINE",
"792 558 LINE",
"924 558 LINE",
"924 638 LINE",
"572 638 LINE",
"572 558 LINE",
"660 558 LINE"
);
},
{
closed = 1;
nodes = (
"1144 0 LINE",
"1144 558 LINE",
"1276 558 LINE",
"1276 638 LINE",
"880 638 LINE",
"880 558 LINE",
"1012 558 LINE",
"1012 0 LINE"
);
},
{
closed = 1;
nodes = (
"352 290 LINE",
"726 290 LINE",
"726 371 LINE",
"312 371 LINE"
);
}
);
width = 1254;
}
);
unicode = 0906;
},
{
glyphname = "i-deva";
lastChange = "2015-05-28 17:59:49 +0000";
layers = (
{
layerId = UUID0;
name = Regular;
paths = (
{
closed = 1;
nodes = (
"202 36 LINE",
"209 64 LINE",
"128 192 LINE",
"58 154 LINE",
"55 147 OFFCURVE",
"54 139 OFFCURVE",
"54 131 CURVE SMOOTH",
"54 109 OFFCURVE",
"61 89 OFFCURVE",
"75 70 CURVE"
);
},
{
closed = 1;
nodes = (
"479 -123 LINE",
"368 -71 OFFCURVE",
"225 45 OFFCURVE",
"185 90 CURVE",
"161 48 LINE",
"205 -2 OFFCURVE",
"323 -121 OFFCURVE",
"415 -176 CURVE"
);
},
{
closed = 1;
nodes = (
"154 72 LINE",
"206 47 OFFCURVE",
"275 31 OFFCURVE",
"339 31 CURVE SMOOTH",
"439 31 OFFCURVE",
"529 69 OFFCURVE",
"529 167 CURVE SMOOTH",
"529 255 OFFCURVE",
"463 316 OFFCURVE",
"373 316 CURVE SMOOTH",
"306 316 OFFCURVE",
"267 301 OFFCURVE",
"201 290 CURVE",
"177 310 OFFCURVE",
"147 351 OFFCURVE",
"147 382 CURVE SMOOTH",
"147 403 OFFCURVE",
"160 419 OFFCURVE",
"195 419 CURVE SMOOTH",
"462 419 LINE",
"462 580 LINE",
"616 580 LINE",
"616 638 LINE",
"-22 638 LINE",
"-22 580 LINE",
"374 580 LINE",
"374 483 LINE",
"151 483 LINE SMOOTH",
"90 483 OFFCURVE",
"66 451 OFFCURVE",
"66 410 CURVE SMOOTH",
"66 346 OFFCURVE",
"128 258 OFFCURVE",
"196 229 CURVE",
"256 240 OFFCURVE",
"291 246 OFFCURVE",
"355 246 CURVE SMOOTH",
"408 246 OFFCURVE",
"452 218 OFFCURVE",
"452 168 CURVE SMOOTH",
"452 111 OFFCURVE",
"386 89 OFFCURVE",
"313 89 CURVE SMOOTH",
"254 89 OFFCURVE",
"191 103 OFFCURVE",
"154 124 CURVE"
);
}
);
width = 594;
},
{
layerId = "CD42366C-28E1-4C24-AB95-7D2C522D2B07";
name = Bold;
paths = (
{
closed = 1;
nodes = (
"202 36 LINE",
"220 64 LINE",
"128 214 LINE",
"36 165 LINE",
"33 155 OFFCURVE",
"32 142 OFFCURVE",
"32 133 CURVE SMOOTH",
"32 108 OFFCURVE",
"39 89 OFFCURVE",
"53 70 CURVE"
);
},
{
closed = 1;
nodes = (
"484 -101 LINE",
"373 -49 OFFCURVE",
"230 67 OFFCURVE",
"190 112 CURVE",
"144 48 LINE",
"188 -2 OFFCURVE",
"306 -121 OFFCURVE",
"398 -176 CURVE"
);
},
{
closed = 1;
nodes = (
"462 28 OFFCURVE",
"551 81 OFFCURVE",
"551 169 CURVE SMOOTH",
"551 247 OFFCURVE",
"482 320 OFFCURVE",
"406 320 CURVE SMOOTH",
"386 320 OFFCURVE",
"352 315 OFFCURVE",
"227 292 CURVE",
"197 306 OFFCURVE",
"170 337 OFFCURVE",
"170 366 CURVE SMOOTH",
"170 385 OFFCURVE",
"182 397 OFFCURVE",
"214 397 CURVE SMOOTH",
"484 397 LINE",
"484 558 LINE",
"616 558 LINE",
"616 638 LINE",
"-22 638 LINE",
"-22 558 LINE",
"352 558 LINE",
"352 483 LINE",
"132 483 LINE SMOOTH",
"79 483 OFFCURVE",
"44 451 OFFCURVE",
"44 404 CURVE SMOOTH",
"44 334 OFFCURVE",
"124 243 OFFCURVE",
"216 204 CURVE",
"301 225 OFFCURVE",
"351 233 OFFCURVE",
"377 233 CURVE SMOOTH",
"415 233 OFFCURVE",
"430 216 OFFCURVE",
"430 180 CURVE SMOOTH",
"430 134 OFFCURVE",
"405 112 OFFCURVE",
"319 112 CURVE SMOOTH",
"270 112 OFFCURVE",
"202 119 OFFCURVE",
"153 129 CURVE",
"166 50 LINE",
"217 37 OFFCURVE",
"265 28 OFFCURVE",
"322 28 CURVE SMOOTH"
);
}
);
width = 594;
}
);
unicode = 0907;
},
{
glyphname = "ii-deva";
lastChange = "2015-05-28 17:59:49 +0000";
layers = (
{
components = (
{
name = "i-deva";
}
);
layerId = UUID0;
name = Regular;
paths = (
{
closed = 1;
nodes = (
"352 621 LINE",
"484 621 LINE",
"484 638 LINE",
"445 638 LINE",
"368 707 OFFCURVE",
"340 748 OFFCURVE",
"340 796 CURVE SMOOTH",
"340 841 OFFCURVE",
"364 866 OFFCURVE",
"413 866 CURVE SMOOTH",
"445 866 OFFCURVE",
"489 855 OFFCURVE",
"547 834 CURVE",
"569 882 LINE",
"507 912 OFFCURVE",
"448 928 OFFCURVE",
"399 928 CURVE SMOOTH",
"313 928 OFFCURVE",
"257 880 OFFCURVE",
"257 806 CURVE SMOOTH",
"257 749 OFFCURVE",
"291 700 OFFCURVE",
"372 638 CURVE",
"352 638 LINE"
);
}
);
width = 594;
},
{
components = (
{
name = "i-deva";
}
);
layerId = "CD42366C-28E1-4C24-AB95-7D2C522D2B07";
name = Bold;
paths = (
{
closed = 1;
nodes = (
"330 621 LINE",
"506 621 LINE",
"506 638 LINE",
"457 638 LINE",
"392 677 OFFCURVE",
"367 706 OFFCURVE",
"367 738 CURVE SMOOTH",
"367 767 OFFCURVE",
"386 783 OFFCURVE",
"427 783 CURVE SMOOTH",
"460 783 OFFCURVE",
"495 773 OFFCURVE",
"542 752 CURVE",
"564 819 LINE",
"508 849 OFFCURVE",
"434 870 OFFCURVE",
"373 870 CURVE SMOOTH",
"290 870 OFFCURVE",
"233 831 OFFCURVE",
"233 767 CURVE SMOOTH",
"233 719 OFFCURVE",
"266 680 OFFCURVE",
"350 638 CURVE",
"330 638 LINE"
);
}
);
width = 594;
}
);
unicode = 0908;
},
{
glyphname = "u-deva";
lastChange = "2015-05-28 17:59:49 +0000";
layers = (
{
layerId = UUID0;
name = Regular;
paths = (
{
closed = 1;
nodes = (
"594 580 LINE",
"594 638 LINE",
"-22 638 LINE",
"-22 580 LINE"
);
},
{
closed = 1;
nodes = (
"263 315 LINE",
"318 315 LINE",
"445 341 OFFCURVE",
"506 388 OFFCURVE",
"506 486 CURVE SMOOTH",
"506 566 OFFCURVE",
"439 612 OFFCURVE",
"334 612 CURVE",
"329 580 LINE",
"385 580 OFFCURVE",
"421 554 OFFCURVE",
"421 494 CURVE SMOOTH",
"421 421 OFFCURVE",
"372 374 OFFCURVE",
"292 374 CURVE SMOOTH",
"263 374 LINE"
);
},
{
closed = 1;
nodes = (
"248 64 OFFCURVE",
"182 99 OFFCURVE",
"88 184 CURVE",
"66 111 LINE",
"141 35 OFFCURVE",
"227 -4 OFFCURVE",
"321 -4 CURVE SMOOTH",
"434 -4 OFFCURVE",
"528 62 OFFCURVE",
"528 181 CURVE SMOOTH",
"528 295 OFFCURVE",
"453 374 OFFCURVE",
"351 374 CURVE SMOOTH",
"193 374 LINE",
"193 304 LINE",
"333 304 LINE SMOOTH",
"397 304 OFFCURVE",
"446 260 OFFCURVE",
"446 182 CURVE SMOOTH",
"446 100 OFFCURVE",
"395 64 OFFCURVE",
"323 64 CURVE SMOOTH"
);
}
);
width = 572;
},
{
layerId = "CD42366C-28E1-4C24-AB95-7D2C522D2B07";
name = Bold;
paths = (
{
closed = 1;
nodes = (
"594 558 LINE",
"594 638 LINE",
"-22 638 LINE",
"-22 558 LINE"
);
},
{
closed = 1;
nodes = (
"241 304 LINE",
"318 304 LINE",
"442 327 OFFCURVE",
"528 379 OFFCURVE",
"528 476 CURVE SMOOTH",
"528 572 OFFCURVE",
"442 612 OFFCURVE",
"312 612 CURVE",
"307 558 LINE",
"364 558 OFFCURVE",
"399 535 OFFCURVE",
"399 483 CURVE SMOOTH",
"399 423 OFFCURVE",
"350 385 OFFCURVE",
"270 385 CURVE SMOOTH",
"241 385 LINE"
);
},
{
closed = 1;
nodes = (
"245 91 OFFCURVE",
"172 128 OFFCURVE",
"77 206 CURVE",
"44 111 LINE",
"125 35 OFFCURVE",
"220 -4 OFFCURVE",
"320 -4 CURVE SMOOTH",
"446 -4 OFFCURVE",
"550 59 OFFCURVE",
"550 186 CURVE SMOOTH",
"550 300 OFFCURVE",
"466 385 OFFCURVE",
"351 385 CURVE SMOOTH",
"171 385 LINE",
"171 293 LINE",
"311 293 LINE SMOOTH",
"376 293 OFFCURVE",
"424 253 OFFCURVE",
"424 181 CURVE SMOOTH",
"424 119 OFFCURVE",
"385 91 OFFCURVE",
"320 91 CURVE SMOOTH"
);
}
);
width = 572;
}
);
unicode = 0909;
},
{
glyphname = "uu-deva";
lastChange = "2015-05-28 17:59:49 +0000";
layers = (
{
layerId = UUID0;
name = Regular;
paths = (
{
closed = 1;
nodes = (
"753 33 LINE",
"826 102 OFFCURVE",
"858 144 OFFCURVE",
"858 214 CURVE SMOOTH",
"858 311 OFFCURVE",
"781 396 OFFCURVE",
"669 396 CURVE SMOOTH",
"593 396 OFFCURVE",
"531 341 OFFCURVE",
"483 251 CURVE",
"483 152 LINE",
"536 257 OFFCURVE",
"603 319 OFFCURVE",
"673 319 CURVE SMOOTH",
"738 319 OFFCURVE",
"777 285 OFFCURVE",
"777 220 CURVE SMOOTH",
"777 173 OFFCURVE",
"763 140 OFFCURVE",
"690 82 CURVE"
);
},
{
closed = 1;
nodes = (
"924 580 LINE",
"924 638 LINE",
"-22 638 LINE",
"-22 580 LINE"
);
},
{
closed = 1;
nodes = (
"263 315 LINE",
"318 315 LINE",
"445 340 OFFCURVE",
"506 393 OFFCURVE",
"506 479 CURVE SMOOTH",
"506 570 OFFCURVE",
"438 612 OFFCURVE",
"334 612 CURVE",
"329 580 LINE",
"386 580 OFFCURVE",
"421 554 OFFCURVE",
"421 493 CURVE SMOOTH",
"421 421 OFFCURVE",
"371 374 OFFCURVE",
"292 374 CURVE SMOOTH",
"263 374 LINE"
);
},
{
closed = 1;
nodes = (
"249 64 OFFCURVE",
"182 99 OFFCURVE",
"88 184 CURVE",
"66 111 LINE",
"141 35 OFFCURVE",
"228 -4 OFFCURVE",
"318 -4 CURVE SMOOTH",
"434 -4 OFFCURVE",
"528 60 OFFCURVE",
"528 184 CURVE SMOOTH",
"528 294 OFFCURVE",
"453 374 OFFCURVE",
"351 374 CURVE SMOOTH",
"193 374 LINE",
"193 304 LINE",
"333 304 LINE SMOOTH",
"397 304 OFFCURVE",
"446 261 OFFCURVE",
"446 181 CURVE SMOOTH",
"446 100 OFFCURVE",
"395 64 OFFCURVE",
"321 64 CURVE SMOOTH"
);
}
);
width = 902;
},
{
layerId = "CD42366C-28E1-4C24-AB95-7D2C522D2B07";
name = Bold;
paths = (
{
closed = 1;
nodes = (
"924 558 LINE",
"924 638 LINE",
"-22 638 LINE",
"-22 558 LINE"
);
},
{
closed = 1;
nodes = (
"241 304 LINE",
"318 304 LINE",
"442 327 OFFCURVE",
"528 379 OFFCURVE",
"528 476 CURVE SMOOTH",
"528 572 OFFCURVE",
"442 612 OFFCURVE",
"312 612 CURVE",
"307 558 LINE",
"364 558 OFFCURVE",
"399 535 OFFCURVE",
"399 483 CURVE SMOOTH",
"399 423 OFFCURVE",
"350 385 OFFCURVE",
"270 385 CURVE SMOOTH",
"241 385 LINE"
);
},
{
closed = 1;
nodes = (
"245 91 OFFCURVE",
"172 130 OFFCURVE",
"77 206 CURVE",
"44 111 LINE",
"125 35 OFFCURVE",
"220 -4 OFFCURVE",
"320 -4 CURVE SMOOTH",
"446 -4 OFFCURVE",
"550 59 OFFCURVE",
"550 186 CURVE SMOOTH",
"550 300 OFFCURVE",
"466 385 OFFCURVE",
"351 385 CURVE SMOOTH",
"171 385 LINE",
"171 293 LINE",
"311 293 LINE SMOOTH",
"376 293 OFFCURVE",
"424 253 OFFCURVE",
"424 181 CURVE SMOOTH",
"424 121 OFFCURVE",
"385 91 OFFCURVE",
"320 91 CURVE SMOOTH"
);
},
{
closed = 1;
nodes = (
"753 11 LINE",
"837 84 OFFCURVE",
"880 135 OFFCURVE",
"880 211 CURVE SMOOTH",
"880 324 OFFCURVE",
"784 407 OFFCURVE",
"677 407 CURVE SMOOTH",
"596 407 OFFCURVE",
"538 360 OFFCURVE",
"483 251 CURVE",
"483 152 LINE",
"535 248 OFFCURVE",
"600 308 OFFCURVE",
"675 308 CURVE SMOOTH",
"724 308 OFFCURVE",
"755 283 OFFCURVE",
"755 222 CURVE SMOOTH",
"755 175 OFFCURVE",
"736 134 OFFCURVE",
"668 82 CURVE"
);
}
);
width = 902;
}
);
unicode = 090A;
},
{
glyphname = "rVocalic-deva";
lastChange = "2015-05-28 17:59:49 +0000";
layers = (
{
layerId = UUID0;
name = Regular;
paths = (
{
closed = 1;
nodes = (
"528 0 LINE",
"528 580 LINE",
"990 580 LINE",
"990 638 LINE",
"-22 638 LINE",
"-22 580 LINE",
"440 580 LINE",
"440 0 LINE"
);
},
{
closed = 1;
nodes = (
"470 319 LINE",
"440 319 LINE",
"110 129 LINE",
"110 125 LINE",
"161 58 LINE",
"165 58 LINE",
"440 244 LINE",
"470 244 LINE"
);
},
{
closed = 1;
nodes = (
"72 365 LINE",
"106 386 OFFCURVE",
"169 403 OFFCURVE",
"228 403 CURVE SMOOTH",
"310 403 OFFCURVE",
"388 370 OFFCURVE",
"447 303 CURVE",
"458 377 LINE",
"405 434 OFFCURVE",
"321 474 OFFCURVE",
"206 474 CURVE SMOOTH",
"146 474 OFFCURVE",
"78 463 OFFCURVE",
"44 439 CURVE"
);
},
{
closed = 1;
nodes = (
"455 308 LINE",
"502 284 OFFCURVE",
"553 261 OFFCURVE",
"625 261 CURVE SMOOTH",
"693 261 OFFCURVE",
"738 282 OFFCURVE",
"796 328 CURVE",
"753 395 LINE",
"707 358 OFFCURVE",
"659 327 OFFCURVE",
"599 327 CURVE SMOOTH",
"555 327 OFFCURVE",
"504 344 OFFCURVE",
"467 371 CURVE"
);
},
{
closed = 1;
nodes = (
"779 276 OFFCURVE",
"823 237 OFFCURVE",
"823 172 CURVE SMOOTH",
"823 106 OFFCURVE",
"777 68 OFFCURVE",
"682 68 CURVE",
"682 -12 LINE",
"802 -12 OFFCURVE",
"902 36 OFFCURVE",
"902 174 CURVE SMOOTH",
"902 232 OFFCURVE",
"862 298 OFFCURVE",
"820 336 CURVE",
"814 414 LINE",
"798 449 OFFCURVE",
"781 470 OFFCURVE",
"753 495 CURVE",
"683 456 LINE",
"700 383 OFFCURVE",
"708 364 OFFCURVE",
"741 323 CURVE SMOOTH"
);
}
);
width = 968;
},
{
layerId = "CD42366C-28E1-4C24-AB95-7D2C522D2B07";
name = Bold;
paths = (
{
closed = 1;
nodes = (
"550 0 LINE",
"550 558 LINE",
"990 558 LINE",
"990 638 LINE",
"-22 638 LINE",
"-22 558 LINE",
"418 558 LINE",
"418 0 LINE"
);
},
{
closed = 1;
nodes = (
"470 330 LINE",
"440 330 LINE",
"94 140 LINE",
"94 136 LINE",
"161 47 LINE",
"165 47 LINE",
"440 233 LINE",
"470 233 LINE"
);
},
{
closed = 1;
nodes = (
"83 343 LINE",
"115 364 OFFCURVE",
"173 381 OFFCURVE",
"228 381 CURVE SMOOTH",
"310 381 OFFCURVE",
"388 348 OFFCURVE",
"447 281 CURVE",
"458 377 LINE",
"405 434 OFFCURVE",
"321 474 OFFCURVE",
"206 474 CURVE SMOOTH",
"146 474 OFFCURVE",
"78 463 OFFCURVE",
"44 439 CURVE"
);
},
{
closed = 1;
nodes = (
"455 286 LINE",
"502 262 OFFCURVE",
"553 239 OFFCURVE",
"625 239 CURVE SMOOTH",
"693 239 OFFCURVE",
"738 260 OFFCURVE",
"796 306 CURVE",
"753 395 LINE",
"707 358 OFFCURVE",
"659 327 OFFCURVE",
"599 327 CURVE SMOOTH",
"555 327 OFFCURVE",
"504 344 OFFCURVE",
"467 371 CURVE"
);
},
{
closed = 1;
nodes = (
"769 276 OFFCURVE",
"801 237 OFFCURVE",
"801 172 CURVE SMOOTH",
"801 120 OFFCURVE",
"755 90 OFFCURVE",
"660 90 CURVE",
"660 -12 LINE",
"804 -12 OFFCURVE",
"924 36 OFFCURVE",
"924 174 CURVE SMOOTH",
"924 232 OFFCURVE",
"884 298 OFFCURVE",
"842 336 CURVE",
"836 414 LINE",
"820 449 OFFCURVE",
"803 470 OFFCURVE",
"775 495 CURVE",
"683 456 LINE",
"700 383 OFFCURVE",
"708 364 OFFCURVE",
"741 323 CURVE SMOOTH"
);
}
);
width = 968;
}
);
unicode = 090B;
},
{
glyphname = "rrVocalic-deva";
lastChange = "2015-05-28 17:59:49 +0000";
layers = (
{
layerId = UUID0;
name = Regular;
paths = (
{
closed = 1;
nodes = (
"528 0 LINE",
"528 580 LINE",
"990 580 LINE",
"990 638 LINE",
"-22 638 LINE",
"-22 580 LINE",
"440 580 LINE",
"440 0 LINE"
);
},
{
closed = 1;
nodes = (
"470 319 LINE",
"440 319 LINE",
"110 129 LINE",
"110 125 LINE",
"161 58 LINE",
"165 58 LINE",
"440 244 LINE",
"470 244 LINE"
);
},
{
closed = 1;
nodes = (
"72 365 LINE",
"106 386 OFFCURVE",
"169 403 OFFCURVE",
"228 403 CURVE SMOOTH",
"310 403 OFFCURVE",
"388 370 OFFCURVE",
"447 303 CURVE",
"458 377 LINE",
"405 434 OFFCURVE",
"321 474 OFFCURVE",
"206 474 CURVE SMOOTH",
"146 474 OFFCURVE",
"78 463 OFFCURVE",
"44 439 CURVE"
);
},
{
closed = 1;
nodes = (
"455 308 LINE",
"502 284 OFFCURVE",
"552 261 OFFCURVE",
"627 261 CURVE SMOOTH",
"692 261 OFFCURVE",
"733 278 OFFCURVE",
"785 320 CURVE",
"753 395 LINE",
"707 358 OFFCURVE",
"659 327 OFFCURVE",
"599 327 CURVE SMOOTH",
"555 327 OFFCURVE",
"504 344 OFFCURVE",
"467 371 CURVE"
);
},
{
closed = 1;
nodes = (
"794 245 LINE",
"701 228 OFFCURVE",
"650 184 OFFCURVE",
"650 111 CURVE SMOOTH",
"650 38 OFFCURVE",
"702 -12 OFFCURVE",
"791 -12 CURVE SMOOTH",
"836 -12 OFFCURVE",
"883 1 OFFCURVE",
"924 27 CURVE",
"894 89 LINE",
"860 69 OFFCURVE",
"820 58 OFFCURVE",
"787 58 CURVE SMOOTH",
"745 58 OFFCURVE",
"726 76 OFFCURVE",
"726 103 CURVE SMOOTH",
"726 164 OFFCURVE",
"819 191 OFFCURVE",
"860 192 CURVE",
"860 196 LINE"
);
},
{
closed = 1;
nodes = (
"860 196 LINE",
"829 258 OFFCURVE",
"820 280 OFFCURVE",
"802 329 CURVE",
"814 414 LINE",
"799 449 OFFCURVE",
"781 470 OFFCURVE",
"753 495 CURVE",
"683 456 LINE",
"722 356 OFFCURVE",
"744 277 OFFCURVE",
"785 185 CURVE"
);
}
);
width = 968;
},
{
layerId = "CD42366C-28E1-4C24-AB95-7D2C522D2B07";
name = Bold;
paths = (
{
closed = 1;
nodes = (
"550 0 LINE",
"550 558 LINE",
"990 558 LINE",
"990 638 LINE",
"-22 638 LINE",
"-22 558 LINE",
"418 558 LINE",
"418 0 LINE"
);
},
{
closed = 1;
nodes = (
"470 330 LINE",
"440 330 LINE",
"88 140 LINE",
"88 136 LINE",
"161 36 LINE",
"165 36 LINE",
"440 222 LINE",
"470 222 LINE"
);
},
{
closed = 1;
nodes = (
"72 343 LINE",
"106 364 OFFCURVE",
"169 381 OFFCURVE",
"228 381 CURVE SMOOTH",
"310 381 OFFCURVE",
"388 348 OFFCURVE",
"447 281 CURVE",
"458 377 LINE",
"405 434 OFFCURVE",
"322 474 OFFCURVE",
"205 474 CURVE SMOOTH",
"143 474 OFFCURVE",
"69 463 OFFCURVE",
"33 439 CURVE"
);
},
{
closed = 1;
nodes = (
"455 297 LINE",
"502 273 OFFCURVE",
"552 250 OFFCURVE",
"627 250 CURVE SMOOTH",
"692 250 OFFCURVE",
"733 267 OFFCURVE",
"785 309 CURVE",
"753 406 LINE",
"707 369 OFFCURVE",
"659 338 OFFCURVE",
"599 338 CURVE SMOOTH",
"555 338 OFFCURVE",
"504 355 OFFCURVE",
"467 382 CURVE"
);
},
{
closed = 1;
nodes = (
"794 245 LINE",
"687 228 OFFCURVE",
"628 184 OFFCURVE",
"628 111 CURVE SMOOTH",
"628 38 OFFCURVE",
"688 -12 OFFCURVE",
"791 -12 CURVE SMOOTH",
"843 -12 OFFCURVE",
"898 1 OFFCURVE",
"946 27 CURVE",
"916 111 LINE",
"876 91 OFFCURVE",
"823 80 OFFCURVE",
"792 80 CURVE SMOOTH",
"764 80 OFFCURVE",
"747 89 OFFCURVE",
"747 109 CURVE SMOOTH",
"747 149 OFFCURVE",
"815 170 OFFCURVE",
"882 170 CURVE",
"882 174 LINE"
);
},
{
closed = 1;
nodes = (
"882 174 LINE",
"851 246 OFFCURVE",
"842 272 OFFCURVE",
"824 329 CURVE",
"836 414 LINE",
"821 449 OFFCURVE",
"803 470 OFFCURVE",
"775 495 CURVE",
"661 456 LINE",
"700 348 OFFCURVE",
"722 262 OFFCURVE",
"763 163 CURVE"
);
}
);
width = 968;
}
);
unicode = 0960;
},
{
glyphname = "lVocalic-deva";
lastChange = "2015-05-28 17:59:49 +0000";
layers = (
{
layerId = UUID0;
name = Regular;
paths = (
{
closed = 1;
nodes = (
"240 34 LINE",
"173 129 OFFCURVE",
"145 198 OFFCURVE",
"145 269 CURVE SMOOTH",
"145 335 OFFCURVE",
"169 367 OFFCURVE",
"212 367 CURVE SMOOTH",
"259 367 OFFCURVE",
"300 328 OFFCURVE",
"348 245 CURVE",
"375 304 LINE",
"302 415 OFFCURVE",
"268 443 OFFCURVE",
"205 443 CURVE SMOOTH",
"116 443 OFFCURVE",
"65 386 OFFCURVE",
"65 284 CURVE SMOOTH",
"65 200 OFFCURVE",
"99 122 OFFCURVE",
"188 0 CURVE"
);
},
{
closed = 1;
nodes = (
"473 407 LINE",
"539 407 LINE",
"539 580 LINE",
"726 580 LINE",
"726 638 LINE",
"-22 638 LINE",
"-22 580 LINE",
"473 580 LINE"
);
},
{
closed = 1;
nodes = (
"428 28 OFFCURVE",
"638 42 OFFCURVE",
"638 245 CURVE SMOOTH",
"638 360 OFFCURVE",
"570 435 OFFCURVE",
"476 435 CURVE SMOOTH",
"379 435 OFFCURVE",
"304 356 OFFCURVE",
"304 195 CURVE SMOOTH",
"304 144 LINE",
"381 144 LINE",
"381 188 LINE SMOOTH",
"381 320 OFFCURVE",
"414 358 OFFCURVE",
"475 358 CURVE SMOOTH",
"535 358 OFFCURVE",
"557 321 OFFCURVE",
"557 258 CURVE SMOOTH",
"557 65 OFFCURVE",
"352 73 OFFCURVE",
"352 -86 CURVE SMOOTH",
"352 -170 OFFCURVE",
"410 -244 OFFCURVE",
"525 -244 CURVE SMOOTH",
"561 -244 OFFCURVE",
"606 -237 OFFCURVE",
"638 -226 CURVE",
"638 -146 LINE",
"608 -164 OFFCURVE",
"571 -176 OFFCURVE",
"534 -176 CURVE SMOOTH",
"461 -176 OFFCURVE",
"428 -137 OFFCURVE",
"428 -90 CURVE SMOOTH"
);
}
);
width = 704;
},
{
layerId = "CD42366C-28E1-4C24-AB95-7D2C522D2B07";
name = Bold;
paths = (
{
closed = 1;
nodes = (
"262 34 LINE",
"195 129 OFFCURVE",
"167 198 OFFCURVE",
"167 269 CURVE SMOOTH",
"167 322 OFFCURVE",
"183 345 OFFCURVE",
"215 345 CURVE SMOOTH",
"261 345 OFFCURVE",
"305 298 OFFCURVE",
"348 223 CURVE",
"375 326 LINE",
"303 417 OFFCURVE",
"271 443 OFFCURVE",
"203 443 CURVE SMOOTH",
"102 443 OFFCURVE",
"43 386 OFFCURVE",
"43 281 CURVE SMOOTH",
"43 201 OFFCURVE",
"77 122 OFFCURVE",
"166 0 CURVE"
);
},
{
closed = 1;
nodes = (
"451 407 LINE",
"561 407 LINE",
"561 558 LINE",
"726 558 LINE",
"726 638 LINE",
"-22 638 LINE",
"-22 558 LINE",
"451 558 LINE"
);
},
{
closed = 1;
nodes = (
"450 36 OFFCURVE",
"660 49 OFFCURVE",
"660 243 CURVE SMOOTH",
"660 361 OFFCURVE",
"583 435 OFFCURVE",
"477 435 CURVE SMOOTH",
"367 435 OFFCURVE",
"282 356 OFFCURVE",
"282 195 CURVE SMOOTH",
"282 144 LINE",
"403 144 LINE",
"403 188 LINE SMOOTH",
"403 303 OFFCURVE",
"428 336 OFFCURVE",
"475 336 CURVE SMOOTH",
"519 336 OFFCURVE",
"535 308 OFFCURVE",
"535 256 CURVE SMOOTH",
"535 72 OFFCURVE",
"330 80 OFFCURVE",
"330 -77 CURVE SMOOTH",
"330 -165 OFFCURVE",
"395 -244 OFFCURVE",
"528 -244 CURVE SMOOTH",
"567 -244 OFFCURVE",
"622 -237 OFFCURVE",
"660 -226 CURVE",
"660 -124 LINE",
"624 -142 OFFCURVE",
"577 -154 OFFCURVE",
"539 -154 CURVE SMOOTH",
"474 -154 OFFCURVE",
"450 -120 OFFCURVE",
"450 -81 CURVE SMOOTH"
);
}
);
width = 704;
}
);
unicode = 090C;
},
{
glyphname = "llVocalic-deva";
lastChange = "2015-05-28 17:59:49 +0000";
layers = (
{
layerId = UUID0;
name = Regular;
paths = (
{
closed = 1;
nodes = (
"240 34 LINE",
"173 129 OFFCURVE",
"145 198 OFFCURVE",
"145 269 CURVE SMOOTH",
"145 335 OFFCURVE",
"169 367 OFFCURVE",
"212 367 CURVE SMOOTH",
"259 367 OFFCURVE",
"300 328 OFFCURVE",
"348 245 CURVE",
"375 304 LINE",
"302 415 OFFCURVE",
"268 443 OFFCURVE",
"205 443 CURVE SMOOTH",
"116 443 OFFCURVE",
"65 386 OFFCURVE",
"65 284 CURVE SMOOTH",
"65 200 OFFCURVE",
"99 122 OFFCURVE",
"188 0 CURVE"
);
},
{
closed = 1;
nodes = (
"473 407 LINE",
"539 407 LINE",
"539 580 LINE",
"726 580 LINE",
"726 638 LINE",
"-22 638 LINE",
"-22 580 LINE",
"473 580 LINE"
);
},
{
closed = 1;
nodes = (
"499 61 OFFCURVE",
"638 96 OFFCURVE",
"638 250 CURVE SMOOTH",
"638 357 OFFCURVE",
"570 435 OFFCURVE",
"475 435 CURVE SMOOTH",
"379 435 OFFCURVE",
"304 355 OFFCURVE",
"304 195 CURVE SMOOTH",
"304 144 LINE",
"381 144 LINE",
"381 188 LINE SMOOTH",
"381 319 OFFCURVE",
"414 358 OFFCURVE",
"475 358 CURVE SMOOTH",
"533 358 OFFCURVE",
"557 323 OFFCURVE",
"557 262 CURVE SMOOTH",
"557 114 OFFCURVE",
"418 98 OFFCURVE",
"418 5 CURVE SMOOTH",
"418 -58 OFFCURVE",
"481 -93 OFFCURVE",
"607 -93 CURVE",
"607 -39 LINE",
"537 -39 OFFCURVE",
"499 -25 OFFCURVE",
"499 5 CURVE SMOOTH"
);
},
{
closed = 1;
nodes = (
"638 -181 LINE",
"609 -197 OFFCURVE",
"580 -205 OFFCURVE",
"551 -205 CURVE SMOOTH",
"506 -205 OFFCURVE",
"482 -187 OFFCURVE",
"482 -160 CURVE SMOOTH",
"482 -124 OFFCURVE",
"525 -93 OFFCURVE",
"571 -93 CURVE SMOOTH",
"607 -93 LINE",
"607 -58 LINE",
"481 -58 LINE",
"427 -76 OFFCURVE",
"407 -122 OFFCURVE",
"407 -163 CURVE SMOOTH",
"407 -239 OFFCURVE",
"475 -273 OFFCURVE",
"549 -273 CURVE SMOOTH",
"581 -273 OFFCURVE",
"610 -267 OFFCURVE",
"638 -255 CURVE"
);
}
);
width = 704;
},
{
layerId = "CD42366C-28E1-4C24-AB95-7D2C522D2B07";
name = Bold;
paths = (
{
closed = 1;
nodes = (
"262 34 LINE",
"202 118 OFFCURVE",
"167 196 OFFCURVE",
"167 277 CURVE SMOOTH",
"167 326 OFFCURVE",
"180 345 OFFCURVE",
"212 345 CURVE SMOOTH",
"259 345 OFFCURVE",
"300 306 OFFCURVE",
"348 223 CURVE",
"397 304 LINE",
"315 415 OFFCURVE",
"276 443 OFFCURVE",
"204 443 CURVE SMOOTH",
"102 443 OFFCURVE",
"43 387 OFFCURVE",
"43 281 CURVE SMOOTH",
"43 201 OFFCURVE",
"77 122 OFFCURVE",
"166 0 CURVE"
);
},
{
closed = 1;
nodes = (
"451 407 LINE",
"561 407 LINE",
"561 558 LINE",
"726 558 LINE",
"726 638 LINE",
"-22 638 LINE",
"-22 558 LINE",
"451 558 LINE"
);
},
{
closed = 1;
nodes = (
"499 81 OFFCURVE",
"660 106 OFFCURVE",
"660 253 CURVE SMOOTH",
"660 355 OFFCURVE",
"583 435 OFFCURVE",
"475 435 CURVE SMOOTH",
"367 435 OFFCURVE",
"282 355 OFFCURVE",
"282 195 CURVE SMOOTH",
"282 144 LINE",
"403 144 LINE",
"403 188 LINE SMOOTH",
"403 302 OFFCURVE",
"428 336 OFFCURVE",
"475 336 CURVE SMOOTH",
"517 336 OFFCURVE",
"535 309 OFFCURVE",
"535 260 CURVE SMOOTH",
"535 125 OFFCURVE",
"396 117 OFFCURVE",
"396 23 CURVE SMOOTH",
"396 -48 OFFCURVE",
"474 -93 OFFCURVE",
"629 -93 CURVE",
"629 -17 LINE",
"547 -17 OFFCURVE",
"499 -4 OFFCURVE",
"499 26 CURVE SMOOTH"
);
},
{
closed = 1;
nodes = (
"660 -159 LINE",
"628 -175 OFFCURVE",
"593 -183 OFFCURVE",
"563 -183 CURVE SMOOTH",
"524 -183 OFFCURVE",
"504 -169 OFFCURVE",
"504 -146 CURVE SMOOTH",
"504 -117 OFFCURVE",
"537 -93 OFFCURVE",
"571 -93 CURVE SMOOTH",
"629 -93 LINE",
"629 -58 LINE",
"459 -58 LINE",
"405 -76 OFFCURVE",
"385 -122 OFFCURVE",
"385 -161 CURVE SMOOTH",
"385 -240 OFFCURVE",
"464 -273 OFFCURVE",
"551 -273 CURVE SMOOTH",
"588 -273 OFFCURVE",
"625 -267 OFFCURVE",
"660 -255 CURVE"
);
}
);
width = 704;
}
);
unicode = 0961;
},
{
glyphname = "eShort-deva";
lastChange = "2015-05-28 17:59:49 +0000";
layers = (
{
components = (
{
name = "e-deva";
}
);
layerId = UUID0;
name = Regular;
paths = (
{
closed = 1;
nodes = (
"543 610 LINE",
"543 638 LINE SMOOTH",
"543 727 OFFCURVE",
"503 820 OFFCURVE",
"385 833 CURVE SMOOTH",
"249 848 OFFCURVE",
"215 863 OFFCURVE",
"215 928 CURVE",
"147 928 LINE",
"147 824 OFFCURVE",
"207 789 OFFCURVE",
"349 776 CURVE SMOOTH",
"436 768 OFFCURVE",
"466 725 OFFCURVE",
"466 638 CURVE SMOOTH",
"466 610 LINE"
);
}
);
width = 682;
},
{
components = (
{
name = "e-deva";
}
);
layerId = "CD42366C-28E1-4C24-AB95-7D2C522D2B07";
name = Bold;
paths = (
{
closed = 1;
nodes = (
"565 610 LINE",
"565 638 LINE SMOOTH",
"565 727 OFFCURVE",
"531 828 OFFCURVE",
"407 844 CURVE SMOOTH",
"274 861 OFFCURVE",
"237 866 OFFCURVE",
"237 928 CURVE",
"125 928 LINE",
"125 794 OFFCURVE",
"207 782 OFFCURVE",
"327 765 CURVE SMOOTH",
"391 756 OFFCURVE",
"444 743 OFFCURVE",
"444 638 CURVE SMOOTH",
"444 610 LINE"
);
}
);
width = 682;
}
);
unicode = 090E;
},
{
glyphname = "e-deva";
lastChange = "2015-05-28 17:59:49 +0000";
layers = (
{
layerId = UUID0;
name = Regular;
paths = (
{
closed = 1;
nodes = (
"470 -115 LINE",
"482 -85 OFFCURVE",
"488 -55 OFFCURVE",
"488 -27 CURVE SMOOTH",
"488 136 OFFCURVE",
"220 175 OFFCURVE",
"220 277 CURVE SMOOTH",
"220 588 LINE",
"132 588 LINE",
"132 306 LINE SMOOTH",
"132 97 OFFCURVE",
"398 107 OFFCURVE",
"398 -33 CURVE SMOOTH",
"398 -58 OFFCURVE",
"391 -87 OFFCURVE",
"379 -115 CURVE"
);
},
{
closed = 1;
nodes = (
"423 238 LINE",
"502 274 OFFCURVE",
"550 346 OFFCURVE",
"550 424 CURVE SMOOTH",
"550 588 LINE",
"462 588 LINE",
"462 416 LINE SMOOTH",
"462 367 OFFCURVE",
"435 334 OFFCURVE",
"379 318 CURVE"
);
},
{
closed = 1;
nodes = (
"-22 580 LINE",
"704 580 LINE",
"704 638 LINE",
"-22 638 LINE"
);
}
);
width = 682;
},
{
layerId = "CD42366C-28E1-4C24-AB95-7D2C522D2B07";
name = Bold;
paths = (
{
closed = 1;
nodes = (
"492 -115 LINE",
"505 -85 OFFCURVE",
"510 -54 OFFCURVE",
"510 -31 CURVE SMOOTH",
"510 139 OFFCURVE",
"242 174 OFFCURVE",
"242 277 CURVE SMOOTH",
"242 566 LINE",
"110 566 LINE",
"110 306 LINE SMOOTH",
"110 96 OFFCURVE",
"376 109 OFFCURVE",
"376 -35 CURVE SMOOTH",
"376 -57 OFFCURVE",
"370 -87 OFFCURVE",
"357 -115 CURVE"
);
},
{
closed = 1;
nodes = (
"423 216 LINE",
"516 256 OFFCURVE",
"572 336 OFFCURVE",
"572 424 CURVE SMOOTH",
"572 566 LINE",
"440 566 LINE",
"440 416 LINE SMOOTH",
"440 367 OFFCURVE",
"413 334 OFFCURVE",
"357 318 CURVE"
);
},
{
closed = 1;
nodes = (
"-22 558 LINE",
"704 558 LINE",
"704 638 LINE",
"-22 638 LINE"
);
}
);
width = 682;
}
);
unicode = 090F;
},
{
glyphname = "ai-deva";
lastChange = "2015-05-28 17:59:49 +0000";
layers = (
{
components = (
{
name = "e-deva";
}
);
layerId = UUID0;
name = Regular;
paths = (
{
closed = 1;
nodes = (
"533 608 LINE",
"533 638 LINE",
"350 928 LINE",
"346 928 LINE",
"274 887 LINE",
"274 883 LINE",
"460 638 LINE",
"460 608 LINE"
);
}
);
width = 682;
},
{
components = (
{
name = "e-deva";
}
);
layerId = "CD42366C-28E1-4C24-AB95-7D2C522D2B07";
name = Bold;
paths = (
{
closed = 1;
nodes = (
"440 638 LINE",
"440 608 LINE",
"557 608 LINE",
"557 638 LINE",
"363 928 LINE",
"359 928 LINE",
"254 865 LINE",
"254 861 LINE"
);
}
);
width = 682;
}
);
unicode = 0910;
},
{
glyphname = "oShort-deva";
lastChange = "2015-05-28 17:59:49 +0000";
layers = (
{
components = (
{
name = "aa-deva";
}
);
layerId = UUID0;
name = Regular;
paths = (
{
closed = 1;
nodes = (
"1115 610 LINE",
"1115 638 LINE SMOOTH",
"1115 727 OFFCURVE",
"1075 820 OFFCURVE",
"957 833 CURVE SMOOTH",
"821 848 OFFCURVE",
"787 863 OFFCURVE",
"787 928 CURVE",
"719 928 LINE",
"719 824 OFFCURVE",
"779 789 OFFCURVE",
"921 776 CURVE SMOOTH",
"1008 768 OFFCURVE",
"1038 725 OFFCURVE",
"1038 638 CURVE SMOOTH",
"1038 610 LINE"
);
}
);
width = 1254;
},
{
components = (
{
name = "aa-deva";
}
);
layerId = "CD42366C-28E1-4C24-AB95-7D2C522D2B07";
name = Bold;
paths = (
{
closed = 1;
nodes = (
"1137 610 LINE",
"1137 638 LINE SMOOTH",
"1137 727 OFFCURVE",
"1103 828 OFFCURVE",
"979 844 CURVE SMOOTH",
"846 861 OFFCURVE",
"809 866 OFFCURVE",
"809 928 CURVE",
"697 928 LINE",
"697 794 OFFCURVE",
"779 782 OFFCURVE",
"899 765 CURVE SMOOTH",
"963 756 OFFCURVE",
"1016 743 OFFCURVE",
"1016 638 CURVE SMOOTH",
"1016 610 LINE"
);
}
);
width = 1254;
}
);
unicode = 0912;
},
{
glyphname = "o-deva";
lastChange = "2015-05-28 17:59:49 +0000";
layers = (
{
components = (
{
name = "aa-deva";
}
);
layerId = UUID0;
name = Regular;
paths = (
{
closed = 1;
nodes = (
"1105 608 LINE",
"1105 638 LINE",
"922 928 LINE",
"918 928 LINE",
"846 887 LINE",
"846 883 LINE",
"1032 638 LINE",
"1032 608 LINE"
);
}
);
width = 1254;
},
{
components = (
{
name = "aa-deva";
}
);
layerId = "CD42366C-28E1-4C24-AB95-7D2C522D2B07";
name = Bold;
paths = (
{
closed = 1;
nodes = (
"1010 638 LINE",
"1010 608 LINE",
"1127 608 LINE",
"1127 638 LINE",
"933 928 LINE",
"929 928 LINE",
"824 865 LINE",
"824 861 LINE"
);
}
);
width = 1254;
}
);
unicode = 0913;
},
{
glyphname = "au-deva";
lastChange = "2015-05-28 17:59:49 +0000";
layers = (
{
components = (
{
name = "aa-deva";
}
);
layerId = UUID0;
name = Regular;
paths = (
{
closed = 1;
nodes = (
"1120 610 LINE",
"1120 638 LINE",
"1080 928 LINE",
"1076 928 LINE",
"991 906 LINE",
"991 902 LINE",
"1044 670 LINE",
"1040 670 LINE",
"796 873 LINE",
"792 873 LINE",
"727 811 LINE",
"727 807 LINE",
"1001 638 LINE",
"1001 610 LINE"
);
}
);
width = 1254;
},
{
components = (
{
name = "aa-deva";
}
);
layerId = "CD42366C-28E1-4C24-AB95-7D2C522D2B07";
name = Bold;
paths = (
{
closed = 1;
nodes = (
"979 610 LINE",
"1142 610 LINE",
"1142 638 LINE",
"1102 928 LINE",
"1098 928 LINE",
"976 906 LINE",
"976 902 LINE",
"1029 692 LINE",
"1025 692 LINE",
"815 887 LINE",
"811 887 LINE",
"705 789 LINE",
"705 785 LINE",
"979 638 LINE"
);
}
);
width = 1254;
}
);
unicode = 0914;
},
{
glyphname = "oe-deva";
lastChange = "2015-05-28 17:59:49 +0000";
layers = (
{
components = (
{
name = "a-deva";
}
);
layerId = UUID0;
name = Regular;
paths = (
{
closed = 1;
nodes = (
"770 610 LINE",
"770 812 LINE",
"682 812 LINE",
"682 610 LINE"
);
}
);
width = 902;
},
{
components = (
{
name = "a-deva";
}
);
layerId = "CD42366C-28E1-4C24-AB95-7D2C522D2B07";
name = Bold;
paths = (
{
closed = 1;
nodes = (
"792 610 LINE",
"792 812 LINE",
"660 812 LINE",
"660 610 LINE"
);
}
);
width = 902;
}
);
unicode = 0973;
},
{
glyphname = "ooe-deva";
lastChange = "2015-05-28 17:59:49 +0000";
layers = (
{
components = (
{
name = "aa-deva";
}
);
layerId = UUID0;
name = Regular;
paths = (
{
closed = 1;
nodes = (
"1122 610 LINE",
"1122 812 LINE",
"1034 812 LINE",
"1034 610 LINE"
);
}
);
width = 1254;
},
{
components = (
{
name = "aa-deva";
}
);
layerId = "CD42366C-28E1-4C24-AB95-7D2C522D2B07";
name = Bold;
paths = (
{
closed = 1;
nodes = (
"1144 610 LINE",
"1144 812 LINE",
"1012 812 LINE",
"1012 610 LINE"
);
}
);
width = 1254;
}
);
unicode = 0974;
},
{
glyphname = "aw-deva";
lastChange = "2015-05-28 17:59:49 +0000";
layers = (
{
components = (
{
name = "aa-deva";
}
);
layerId = UUID0;
name = Regular;
paths = (
{
closed = 1;
nodes = (
"1052 605 LINE",
"1123 605 LINE",
"1123 708 LINE SMOOTH",
"1123 778 OFFCURVE",
"1110 863 OFFCURVE",
"1004 872 CURVE SMOOTH",
"901 880 OFFCURVE",
"879 883 OFFCURVE",
"879 928 CURVE",
"809 928 LINE",
"809 835 OFFCURVE",
"854 828 OFFCURVE",
"959 814 CURVE SMOOTH",
"1014 807 OFFCURVE",
"1052 796 OFFCURVE",
"1052 692 CURVE SMOOTH"
);
},
{
closed = 1;
nodes = (
"1089 605 LINE",
"1089 730 OFFCURVE",
"951 747 OFFCURVE",
"889 754 CURVE SMOOTH",
"781 767 OFFCURVE",
"733 773 OFFCURVE",
"733 848 CURVE",
"665 848 LINE",
"665 744 OFFCURVE",
"713 711 OFFCURVE",
"853 696 CURVE SMOOTH",
"951 686 OFFCURVE",
"1009 678 OFFCURVE",
"1009 605 CURVE"
);
}
);
width = 1254;
},
{
components = (
{
name = "aa-deva";
}
);
layerId = "CD42366C-28E1-4C24-AB95-7D2C522D2B07";
name = Bold;
paths = (
{
closed = 1;
nodes = (
"1030 605 LINE",
"1145 605 LINE",
"1145 708 LINE SMOOTH",
"1145 783 OFFCURVE",
"1132 875 OFFCURVE",
"1026 883 CURVE SMOOTH",
"923 891 OFFCURVE",
"901 892 OFFCURVE",
"901 928 CURVE",
"787 928 LINE",
"787 833 OFFCURVE",
"833 828 OFFCURVE",
"937 814 CURVE SMOOTH",
"991 807 OFFCURVE",
"1030 798 OFFCURVE",
"1030 692 CURVE SMOOTH"
);
},
{
closed = 1;
nodes = (
"1111 605 LINE",
"1111 730 OFFCURVE",
"973 746 OFFCURVE",
"911 754 CURVE SMOOTH",
"782 770 OFFCURVE",
"755 787 OFFCURVE",
"755 848 CURVE",
"643 848 LINE",
"643 710 OFFCURVE",
"707 691 OFFCURVE",
"831 674 CURVE SMOOTH",
"960 657 OFFCURVE",
"987 653 OFFCURVE",
"987 605 CURVE"
);
}
);
width = 1254;
}
);
unicode = 0975;
},
{
glyphname = "ue-deva";
lastChange = "2015-05-28 17:59:49 +0000";
layers = (
{
components = (
{
name = "a-deva";
}
);
layerId = UUID0;
name = Regular;
paths = (
{
closed = 1;
nodes = (
"628 -213 OFFCURVE",
"728 -138 OFFCURVE",
"728 -33 CURVE",
"649 -33 LINE",
"649 -102 OFFCURVE",
"585 -147 OFFCURVE",
"473 -147 CURVE SMOOTH",
"361 -147 OFFCURVE",
"297 -102 OFFCURVE",
"297 -33 CURVE",
"218 -33 LINE",
"218 -138 OFFCURVE",
"318 -213 OFFCURVE",
"473 -213 CURVE SMOOTH"
);
}
);
width = 902;
},
{
components = (
{
name = "a-deva";
}
);
layerId = "CD42366C-28E1-4C24-AB95-7D2C522D2B07";
name = Bold;
paths = (
{
closed = 1;
nodes = (
"641 -235 OFFCURVE",
"750 -151 OFFCURVE",
"750 -33 CURVE",
"627 -33 LINE",
"627 -102 OFFCURVE",
"571 -147 OFFCURVE",
"473 -147 CURVE SMOOTH",
"375 -147 OFFCURVE",
"319 -102 OFFCURVE",
"319 -33 CURVE",
"196 -33 LINE",
"196 -151 OFFCURVE",
"305 -235 OFFCURVE",
"473 -235 CURVE SMOOTH"
);
}
);
width = 902;
}
);
unicode = 0976;
},
{
glyphname = "uue-deva";
lastChange = "2015-05-28 17:59:49 +0000";
layers = (
{
components = (
{
name = "a-deva";
}
);
layerId = UUID0;
name = Regular;
paths = (
{
closed = 1;
nodes = (
"628 -213 OFFCURVE",
"728 -138 OFFCURVE",
"728 -33 CURVE",
"649 -33 LINE",
"649 -102 OFFCURVE",
"585 -147 OFFCURVE",
"473 -147 CURVE SMOOTH",
"361 -147 OFFCURVE",
"297 -102 OFFCURVE",
"297 -33 CURVE",
"218 -33 LINE",
"218 -138 OFFCURVE",
"318 -213 OFFCURVE",
"473 -213 CURVE SMOOTH"
);
},
{
closed = 1;
nodes = (
"628 -406 OFFCURVE",
"728 -331 OFFCURVE",
"728 -226 CURVE",
"649 -226 LINE",
"649 -295 OFFCURVE",
"585 -340 OFFCURVE",
"473 -340 CURVE SMOOTH",
"361 -340 OFFCURVE",
"297 -295 OFFCURVE",
"297 -226 CURVE",
"218 -226 LINE",
"218 -331 OFFCURVE",
"318 -406 OFFCURVE",
"473 -406 CURVE SMOOTH"
);
}
);
width = 902;
},
{
components = (
{
name = "a-deva";
}
);
layerId = "CD42366C-28E1-4C24-AB95-7D2C522D2B07";
name = Bold;
paths = (
{
closed = 1;
nodes = (
"641 -213 OFFCURVE",
"750 -138 OFFCURVE",
"750 -33 CURVE",
"627 -33 LINE",
"627 -89 OFFCURVE",
"571 -125 OFFCURVE",
"473 -125 CURVE SMOOTH",
"375 -125 OFFCURVE",
"319 -89 OFFCURVE",
"319 -33 CURVE",
"196 -33 LINE",
"196 -138 OFFCURVE",
"305 -213 OFFCURVE",
"473 -213 CURVE SMOOTH"
);
},
{
closed = 1;
nodes = (
"641 -406 OFFCURVE",
"750 -331 OFFCURVE",
"750 -226 CURVE",
"627 -226 LINE",
"627 -282 OFFCURVE",
"571 -318 OFFCURVE",
"473 -318 CURVE SMOOTH",
"375 -318 OFFCURVE",
"319 -282 OFFCURVE",
"319 -226 CURVE",
"196 -226 LINE",
"196 -331 OFFCURVE",
"305 -406 OFFCURVE",
"473 -406 CURVE SMOOTH"
);
}
);
width = 902;
}
);
unicode = 0977;
},
{
glyphname = "aaMatra-deva";
lastChange = "2015-05-28 17:59:49 +0000";
layers = (
{
layerId = UUID0;
name = Regular;
paths = (
{
closed = 1;
nodes = (
"220 0 LINE",
"220 580 LINE",
"374 580 LINE",
"374 638 LINE",
"-22 638 LINE",
"-22 580 LINE",
"132 580 LINE",
"132 0 LINE"
);
}
);
width = 352;
},
{
layerId = "CD42366C-28E1-4C24-AB95-7D2C522D2B07";
name = Bold;
paths = (
{
closed = 1;
nodes = (
"242 0 LINE",
"242 558 LINE",
"374 558 LINE",
"374 638 LINE",
"-22 638 LINE",
"-22 558 LINE",
"110 558 LINE",
"110 0 LINE"
);
}
);
width = 352;
}
);
unicode = 093E;
},
{
glyphname = "iMatra-deva";
lastChange = "2015-05-28 17:59:49 +0000";
layers = (
{
layerId = UUID0;
name = Regular;
paths = (
{
closed = 1;
nodes = (
"132 0 LINE",
"220 0 LINE",
"220 580 LINE",
"374 580 LINE",
"374 638 LINE",
"209 638 LINE",
"191 673 OFFCURVE",
"182 708 OFFCURVE",
"182 739 CURVE SMOOTH",
"182 819 OFFCURVE",
"243 862 OFFCURVE",
"359 862 CURVE SMOOTH",
"498 862 OFFCURVE",
"611 801 OFFCURVE",
"792 628 CURVE",
"880 628 LINE",
"682 836 OFFCURVE",
"518 928 OFFCURVE",
"344 928 CURVE SMOOTH",
"193 928 OFFCURVE",
"102 858 OFFCURVE",
"102 742 CURVE SMOOTH",
"102 703 OFFCURVE",
"112 667 OFFCURVE",
"131 638 CURVE",
"-22 638 LINE",
"-22 580 LINE",
"132 580 LINE"
);
}
);
width = 352;
},
{
layerId = "CD42366C-28E1-4C24-AB95-7D2C522D2B07";
name = Bold;
paths = (
{
closed = 1;
nodes = (
"110 0 LINE",
"242 0 LINE",
"242 558 LINE",
"374 558 LINE",
"374 638 LINE",
"231 638 LINE",
"213 673 OFFCURVE",
"204 709 OFFCURVE",
"204 737 CURVE SMOOTH",
"204 806 OFFCURVE",
"257 840 OFFCURVE",
"360 840 CURVE SMOOTH",
"491 840 OFFCURVE",
"598 785 OFFCURVE",
"770 628 CURVE",
"902 628 LINE",
"690 842 OFFCURVE",
"521 928 OFFCURVE",
"342 928 CURVE SMOOTH",
"180 928 OFFCURVE",
"80 858 OFFCURVE",
"80 741 CURVE SMOOTH",
"80 704 OFFCURVE",
"90 667 OFFCURVE",
"109 638 CURVE",
"-22 638 LINE",
"-22 558 LINE",
"110 558 LINE"
);
}
);
width = 352;
}
);
unicode = 093F;
},
{
glyphname = "iiMatra-deva";
lastChange = "2015-05-28 17:59:49 +0000";
layers = (
{
layerId = UUID0;
name = Regular;
paths = (
{
closed = 1;
nodes = (
"132 0 LINE",
"220 0 LINE",
"220 580 LINE",
"374 580 LINE",
"374 638 LINE",
"217 638 LINE",
"144 831 OFFCURVE",
"47 928 OFFCURVE",
"-74 928 CURVE SMOOTH",
"-179 928 OFFCURVE",
"-252 854 OFFCURVE",
"-252 746 CURVE SMOOTH",
"-252 707 OFFCURVE",
"-242 666 OFFCURVE",
"-223 628 CURVE",
"-150 628 LINE",
"-168 674 OFFCURVE",
"-178 714 OFFCURVE",
"-178 745 CURVE SMOOTH",
"-178 812 OFFCURVE",
"-136 858 OFFCURVE",
"-75 858 CURVE SMOOTH",
"11 858 OFFCURVE",
"82 782 OFFCURVE",
"131 638 CURVE",
"-22 638 LINE",
"-22 580 LINE",
"132 580 LINE"
);
}
);
width = 352;
},
{
layerId = "CD42366C-28E1-4C24-AB95-7D2C522D2B07";
name = Bold;
paths = (
{
closed = 1;
nodes = (
"110 0 LINE",
"242 0 LINE",
"242 558 LINE",
"374 558 LINE",
"374 638 LINE",
"239 638 LINE",
"160 831 OFFCURVE",
"57 928 OFFCURVE",
"-76 928 CURVE SMOOTH",
"-192 928 OFFCURVE",
"-274 854 OFFCURVE",
"-274 745 CURVE SMOOTH",
"-274 707 OFFCURVE",
"-264 666 OFFCURVE",
"-245 628 CURVE",
"-128 628 LINE",
"-146 674 OFFCURVE",
"-156 714 OFFCURVE",
"-156 745 CURVE SMOOTH",
"-156 799 OFFCURVE",
"-125 836 OFFCURVE",
"-72 836 CURVE SMOOTH",
"0 836 OFFCURVE",
"66 767 OFFCURVE",
"109 638 CURVE",
"-22 638 LINE",
"-22 558 LINE",
"110 558 LINE"
);
}
);
width = 352;
}
);
unicode = 0940;
},
{
glyphname = "oCandraMatra-deva";
lastChange = "2015-05-28 17:59:49 +0000";
layers = (
{
layerId = UUID0;
name = Regular;
paths = (
{
closed = 1;
nodes = (
"220 0 LINE",
"220 580 LINE",
"374 580 LINE",
"374 638 LINE",
"-22 638 LINE",
"-22 580 LINE",
"132 580 LINE",
"132 0 LINE"
);
},
{
closed = 1;
nodes = (
"331 720 OFFCURVE",
"431 799 OFFCURVE",
"431 910 CURVE",
"352 910 LINE",
"352 835 OFFCURVE",
"288 786 OFFCURVE",
"176 786 CURVE SMOOTH",
"64 786 OFFCURVE",
"0 835 OFFCURVE",
"0 910 CURVE",
"-79 910 LINE",
"-79 799 OFFCURVE",
"21 720 OFFCURVE",
"176 720 CURVE SMOOTH"
);
}
);
width = 352;
},
{
layerId = "CD42366C-28E1-4C24-AB95-7D2C522D2B07";
name = Bold;
paths = (
{
closed = 1;
nodes = (
"242 0 LINE",
"242 558 LINE",
"374 558 LINE",
"374 638 LINE",
"-22 638 LINE",
"-22 558 LINE",
"110 558 LINE",
"110 0 LINE"
);
},
{
closed = 1;
nodes = (
"344 709 OFFCURVE",
"453 793 OFFCURVE",
"453 910 CURVE",
"330 910 LINE",
"330 841 OFFCURVE",
"274 797 OFFCURVE",
"176 797 CURVE SMOOTH",
"78 797 OFFCURVE",
"22 841 OFFCURVE",
"22 910 CURVE",
"-101 910 LINE",
"-101 793 OFFCURVE",
"8 709 OFFCURVE",
"176 709 CURVE SMOOTH"
);
}
);
width = 352;
}
);
unicode = 0949;
},
{
glyphname = "oShortMatra-deva";
lastChange = "2015-05-28 17:59:49 +0000";
layers = (
{
layerId = UUID0;
name = Regular;
paths = (
{
closed = 1;
nodes = (
"132 0 LINE",
"220 0 LINE",
"220 580 LINE",
"374 580 LINE",
"374 638 LINE",
"213 638 LINE",
"213 727 OFFCURVE",
"173 820 OFFCURVE",
"55 833 CURVE SMOOTH",
"-81 848 OFFCURVE",
"-115 863 OFFCURVE",
"-115 928 CURVE",
"-183 928 LINE",
"-183 824 OFFCURVE",
"-123 789 OFFCURVE",
"19 776 CURVE SMOOTH",
"106 768 OFFCURVE",
"136 725 OFFCURVE",
"136 638 CURVE",
"-22 638 LINE",
"-22 580 LINE",
"132 580 LINE"
);
}
);
width = 352;
},
{
layerId = "CD42366C-28E1-4C24-AB95-7D2C522D2B07";
name = Bold;
paths = (
{
closed = 1;
nodes = (
"110 0 LINE",
"242 0 LINE",
"242 558 LINE",
"374 558 LINE",
"374 638 LINE",
"235 638 LINE",
"235 732 OFFCURVE",
"195 831 OFFCURVE",
"77 844 CURVE SMOOTH",
"-59 859 OFFCURVE",
"-93 871 OFFCURVE",
"-93 928 CURVE",
"-205 928 LINE",
"-205 816 OFFCURVE",
"-145 778 OFFCURVE",
"-3 765 CURVE SMOOTH",
"84 757 OFFCURVE",
"114 718 OFFCURVE",
"114 638 CURVE",
"-22 638 LINE",
"-22 558 LINE",
"110 558 LINE"
);
}
);
width = 352;
}
);
unicode = 094A;
},
{
glyphname = "oMatra-deva";
lastChange = "2015-05-28 17:59:49 +0000";
layers = (
{
layerId = UUID0;
name = Regular;
paths = (
{
closed = 1;
nodes = (
"132 0 LINE",
"220 0 LINE",
"220 580 LINE",
"374 580 LINE",
"374 638 LINE",
"203 638 LINE",
"20 928 LINE",
"16 928 LINE",
"-56 887 LINE",
"-56 883 LINE",
"130 638 LINE",
"-22 638 LINE",
"-22 580 LINE",
"132 580 LINE"
);
}
);
width = 352;
},
{
layerId = "CD42366C-28E1-4C24-AB95-7D2C522D2B07";
name = Bold;
paths = (
{
closed = 1;
nodes = (
"110 0 LINE",
"242 0 LINE",
"242 558 LINE",
"374 558 LINE",
"374 638 LINE",
"225 638 LINE",
"31 928 LINE",
"27 928 LINE",
"-78 865 LINE",
"-78 861 LINE",
"108 638 LINE",
"-22 638 LINE",
"-22 558 LINE",
"110 558 LINE"
);
}
);
width = 352;
}
);
unicode = 094B;
},
{
glyphname = "auMatra-deva";
lastChange = "2015-05-28 17:59:49 +0000";
layers = (
{
layerId = UUID0;
name = Regular;
paths = (
{
closed = 1;
nodes = (
"132 0 LINE",
"220 0 LINE",
"220 580 LINE",
"374 580 LINE",
"374 638 LINE",
"218 638 LINE",
"178 928 LINE",
"174 928 LINE",
"89 906 LINE",
"89 902 LINE",
"142 670 LINE",
"138 670 LINE",
"-106 873 LINE",
"-110 873 LINE",
"-175 811 LINE",
"-175 807 LINE",
"99 638 LINE",
"-22 638 LINE",
"-22 580 LINE",
"132 580 LINE"
);
}
);
width = 352;
},
{
layerId = "CD42366C-28E1-4C24-AB95-7D2C522D2B07";
name = Bold;
paths = (
{
closed = 1;
nodes = (
"110 0 LINE",
"242 0 LINE",
"242 558 LINE",
"374 558 LINE",
"374 638 LINE",
"240 638 LINE",
"200 928 LINE",
"196 928 LINE",
"74 906 LINE",
"74 902 LINE",
"127 692 LINE",
"123 692 LINE",
"-87 887 LINE",
"-91 887 LINE",
"-197 789 LINE",
"-197 785 LINE",
"77 638 LINE",
"-22 638 LINE",
"-22 558 LINE",
"110 558 LINE"
);
}
);
width = 352;
}
);
unicode = 094C;
},
{
glyphname = "prishthaMatraE-deva";
lastChange = "2015-05-28 17:59:49 +0000";
layers = (
{
layerId = UUID0;
name = Regular;
paths = (
{
closed = 1;
nodes = (
"220 0 LINE",
"220 580 LINE",
"374 580 LINE",
"374 638 LINE",
"132 638 LINE",
"132 0 LINE"
);
}
);
width = 352;
},
{
layerId = "CD42366C-28E1-4C24-AB95-7D2C522D2B07";
name = Bold;
paths = (
{
closed = 1;
nodes = (
"242 0 LINE",
"242 558 LINE",
"374 558 LINE",
"374 638 LINE",
"110 638 LINE",
"110 0 LINE"
);
}
);
width = 352;
}
);
unicode = 094E;
},
{
glyphname = "awVowel-deva";
lastChange = "2015-05-28 18:46:49 +0000";
layers = (
{
layerId = UUID0;
name = Regular;
paths = (
{
closed = 1;
nodes = (
"150 605 LINE",
"221 605 LINE",
"221 708 LINE SMOOTH",
"221 778 OFFCURVE",
"208 863 OFFCURVE",
"102 872 CURVE SMOOTH",
"-1 880 OFFCURVE",
"-23 883 OFFCURVE",
"-23 928 CURVE",
"-93 928 LINE",
"-93 835 OFFCURVE",
"-48 828 OFFCURVE",
"57 814 CURVE SMOOTH",
"112 807 OFFCURVE",
"150 796 OFFCURVE",
"150 692 CURVE SMOOTH"
);
},
{
closed = 1;
nodes = (
"187 605 LINE",
"187 730 OFFCURVE",
"49 747 OFFCURVE",
"-13 754 CURVE SMOOTH",
"-121 767 OFFCURVE",
"-169 773 OFFCURVE",
"-169 848 CURVE",
"-237 848 LINE",
"-237 744 OFFCURVE",
"-189 711 OFFCURVE",
"-49 696 CURVE SMOOTH",
"49 686 OFFCURVE",
"107 678 OFFCURVE",
"107 605 CURVE"
);
},
{
closed = 1;
nodes = (
"220 580 LINE",
"374 580 LINE",
"374 638 LINE",
"-22 638 LINE",
"-22 580 LINE",
"132 580 LINE",
"132 0 LINE",
"220 0 LINE"
);
}
);
width = 352;
},
{
layerId = "CD42366C-28E1-4C24-AB95-7D2C522D2B07";
name = Bold;
paths = (
{
closed = 1;
nodes = (
"242 558 LINE",
"374 558 LINE",
"374 638 LINE",
"-22 638 LINE",
"-22 558 LINE",
"110 558 LINE",
"110 0 LINE",
"242 0 LINE"
);
},
{
closed = 1;
nodes = (
"127 605 LINE",
"242 605 LINE",
"242 708 LINE SMOOTH",
"242 783 OFFCURVE",
"229 875 OFFCURVE",
"123 883 CURVE SMOOTH",
"20 891 OFFCURVE",
"-2 892 OFFCURVE",
"-2 928 CURVE",
"-116 928 LINE",
"-116 833 OFFCURVE",
"-70 828 OFFCURVE",
"34 814 CURVE SMOOTH",
"88 807 OFFCURVE",
"127 798 OFFCURVE",
"127 692 CURVE SMOOTH"
);
},
{
closed = 1;
nodes = (
"208 605 LINE",
"208 730 OFFCURVE",
"70 746 OFFCURVE",
"8 754 CURVE SMOOTH",
"-121 770 OFFCURVE",
"-148 787 OFFCURVE",
"-148 848 CURVE",
"-260 848 LINE",
"-260 710 OFFCURVE",
"-196 691 OFFCURVE",
"-72 674 CURVE SMOOTH",
"57 657 OFFCURVE",
"84 653 OFFCURVE",
"84 605 CURVE"
);
}
);
width = 352;
}
);
unicode = 094F;
},
{
glyphname = "ka-deva";
lastChange = "2015-05-28 17:59:49 +0000";
layers = (
{
layerId = UUID0;
name = Regular;
paths = (
{
closed = 1;
nodes = (
"302 86 OFFCURVE",
"368 134 OFFCURVE",
"418 220 CURVE",
"418 330 LINE",
"363 224 OFFCURVE",
"295 163 OFFCURVE",
"231 163 CURVE SMOOTH",
"178 163 OFFCURVE",
"146 206 OFFCURVE",
"146 279 CURVE SMOOTH",
"146 356 OFFCURVE",
"182 401 OFFCURVE",
"244 401 CURVE SMOOTH",
"263 401 OFFCURVE",
"281 397 OFFCURVE",
"310 386 CURVE",
"310 460 LINE",
"286 472 OFFCURVE",
"265 477 OFFCURVE",
"240 477 CURVE SMOOTH",
"141 477 OFFCURVE",
"65 395 OFFCURVE",
"65 287 CURVE SMOOTH",
"65 177 OFFCURVE",
"143 86 OFFCURVE",
"235 86 CURVE SMOOTH"
);
},
{
closed = 1;
nodes = (
"710 83 LINE",
"784 161 OFFCURVE",
"815 212 OFFCURVE",
"815 280 CURVE SMOOTH",
"815 389 OFFCURVE",
"737 479 OFFCURVE",
"645 479 CURVE SMOOTH",
"577 479 OFFCURVE",
"511 431 OFFCURVE",
"462 345 CURVE",
"462 235 LINE",
"514 339 OFFCURVE",
"584 402 OFFCURVE",
"648 402 CURVE SMOOTH",
"701 402 OFFCURVE",
"734 359 OFFCURVE",
"734 289 CURVE SMOOTH",
"734 233 OFFCURVE",
"713 194 OFFCURVE",
"647 132 CURVE"
);
},
{
closed = 1;
nodes = (
"396 0 LINE",
"484 0 LINE",
"484 580 LINE",
"902 580 LINE",
"902 638 LINE",
"-22 638 LINE",
"-22 580 LINE",
"396 580 LINE"
);
}
);
width = 880;
},
{
layerId = "CD42366C-28E1-4C24-AB95-7D2C522D2B07";
name = Bold;
paths = (
{
closed = 1;
nodes = (
"301 86 OFFCURVE",
"370 136 OFFCURVE",
"418 220 CURVE",
"418 352 LINE",
"363 245 OFFCURVE",
"292 185 OFFCURVE",
"234 185 CURVE SMOOTH",
"191 185 OFFCURVE",
"168 219 OFFCURVE",
"168 279 CURVE SMOOTH",
"168 342 OFFCURVE",
"194 379 OFFCURVE",
"249 379 CURVE SMOOTH",
"267 379 OFFCURVE",
"293 375 OFFCURVE",
"332 364 CURVE",
"332 460 LINE",
"301 472 OFFCURVE",
"272 477 OFFCURVE",
"243 477 CURVE SMOOTH",
"127 477 OFFCURVE",
"43 395 OFFCURVE",
"43 287 CURVE SMOOTH",
"43 177 OFFCURVE",
"130 86 OFFCURVE",
"228 86 CURVE SMOOTH"
);
},
{
closed = 1;
nodes = (
"710 83 LINE",
"800 161 OFFCURVE",
"837 212 OFFCURVE",
"837 281 CURVE SMOOTH",
"837 389 OFFCURVE",
"747 479 OFFCURVE",
"648 479 CURVE SMOOTH",
"572 479 OFFCURVE",
"509 427 OFFCURVE",
"462 345 CURVE",
"462 213 LINE",
"512 312 OFFCURVE",
"578 380 OFFCURVE",
"652 380 CURVE SMOOTH",
"686 380 OFFCURVE",
"717 366 OFFCURVE",
"717 303 CURVE SMOOTH",
"717 251 OFFCURVE",
"696 211 OFFCURVE",
"625 154 CURVE"
);
},
{
closed = 1;
nodes = (
"374 0 LINE",
"506 0 LINE",
"506 558 LINE",
"902 558 LINE",
"902 638 LINE",
"-22 638 LINE",
"-22 558 LINE",
"374 558 LINE"
);
}
);
width = 880;
}
);
unicode = 0915;
},
{
glyphname = "kha-deva";
lastChange = "2015-05-28 17:59:49 +0000";
layers = (
{
layerId = UUID0;
name = Regular;
paths = (
{
closed = 1;
nodes = (
"647 -11 OFFCURVE",
"783 45 OFFCURVE",
"868 148 CURVE",
"868 223 LINE",
"742 105 OFFCURVE",
"649 54 OFFCURVE",
"544 54 CURVE SMOOTH",
"397 54 OFFCURVE",
"247 164 OFFCURVE",
"176 291 CURVE",
"182 260 LINE",
"291 265 OFFCURVE",
"374 346 OFFCURVE",
"374 449 CURVE SMOOTH",
"374 498 OFFCURVE",
"355 545 OFFCURVE",
"320 580 CURVE",
"462 580 LINE",
"462 638 LINE",
"-22 638 LINE",
"-22 580 LINE",
"244 580 LINE",
"281 534 OFFCURVE",
"296 499 OFFCURVE",
"296 457 CURVE SMOOTH",
"296 382 OFFCURVE",
"245 330 OFFCURVE",
"169 321 CURVE",
"199 309 LINE",
"126 425 LINE",
"92 425 OFFCURVE",
"67 391 OFFCURVE",
"67 357 CURVE SMOOTH",
"67 331 OFFCURVE",
"85 293 OFFCURVE",
"107 258 CURVE SMOOTH",
"194 119 OFFCURVE",
"370 -11 OFFCURVE",
"537 -11 CURVE SMOOTH"
);
},
{
closed = 1;
nodes = (
"716 202 OFFCURVE",
"791 240 OFFCURVE",
"846 304 CURVE",
"846 408 LINE",
"783 319 OFFCURVE",
"708 269 OFFCURVE",
"638 269 CURVE SMOOTH",
"580 269 OFFCURVE",
"543 303 OFFCURVE",
"543 355 CURVE SMOOTH",
"543 413 OFFCURVE",
"588 449 OFFCURVE",
"661 449 CURVE SMOOTH",
"685 449 OFFCURVE",
"704 445 OFFCURVE",
"727 434 CURVE",
"727 501 LINE",
"701 511 OFFCURVE",
"671 517 OFFCURVE",
"643 517 CURVE SMOOTH",
"546 517 OFFCURVE",
"469 448 OFFCURVE",
"469 361 CURVE SMOOTH",
"469 273 OFFCURVE",
"547 202 OFFCURVE",
"644 202 CURVE SMOOTH"
);
},
{
closed = 1;
nodes = (
"814 0 LINE",
"902 0 LINE",
"902 580 LINE",
"1056 580 LINE",
"1056 638 LINE",
"352 638 LINE",
"352 580 LINE",
"814 580 LINE"
);
}
);
width = 1034;
},
{
layerId = "CD42366C-28E1-4C24-AB95-7D2C522D2B07";
name = Bold;
paths = (
{
closed = 1;
nodes = (
"648 -11 OFFCURVE",
"783 45 OFFCURVE",
"868 148 CURVE",
"868 245 LINE",
"742 127 OFFCURVE",
"649 76 OFFCURVE",
"544 76 CURVE SMOOTH",
"406 76 OFFCURVE",
"265 166 OFFCURVE",
"198 269 CURVE",
"204 238 LINE",
"312 243 OFFCURVE",
"396 337 OFFCURVE",
"396 443 CURVE SMOOTH",
"396 494 OFFCURVE",
"377 528 OFFCURVE",
"342 558 CURVE",
"462 558 LINE",
"462 638 LINE",
"-22 638 LINE",
"-22 558 LINE",
"222 558 LINE",
"259 520 OFFCURVE",
"274 492 OFFCURVE",
"274 456 CURVE SMOOTH",
"274 395 OFFCURVE",
"232 351 OFFCURVE",
"169 343 CURVE",
"199 331 LINE",
"126 447 LINE",
"79 447 OFFCURVE",
"45 400 OFFCURVE",
"45 360 CURVE SMOOTH",
"45 331 OFFCURVE",
"62 294 OFFCURVE",
"85 258 CURVE SMOOTH",
"170 125 OFFCURVE",
"359 -11 OFFCURVE",
"535 -11 CURVE SMOOTH"
);
},
{
closed = 1;
nodes = (
"723 202 OFFCURVE",
"794 244 OFFCURVE",
"846 304 CURVE",
"846 430 LINE",
"783 341 OFFCURVE",
"707 291 OFFCURVE",
"640 291 CURVE SMOOTH",
"592 291 OFFCURVE",
"565 316 OFFCURVE",
"565 355 CURVE SMOOTH",
"565 399 OFFCURVE",
"601 427 OFFCURVE",
"662 427 CURVE SMOOTH",
"685 427 OFFCURVE",
"704 423 OFFCURVE",
"727 412 CURVE",
"727 501 LINE",
"701 511 OFFCURVE",
"672 517 OFFCURVE",
"640 517 CURVE SMOOTH",
"534 517 OFFCURVE",
"447 449 OFFCURVE",
"447 358 CURVE SMOOTH",
"447 276 OFFCURVE",
"517 202 OFFCURVE",
"634 202 CURVE SMOOTH"
);
},
{
closed = 1;
nodes = (
"792 0 LINE",
"924 0 LINE",
"924 558 LINE",
"1056 558 LINE",
"1056 638 LINE",
"352 638 LINE",
"352 558 LINE",
"792 558 LINE"
);
}
);
width = 1034;
}
);
unicode = 0916;
},
{
glyphname = "ga-deva";
lastChange = "2015-05-28 17:59:49 +0000";
layers = (
{
layerId = UUID0;
name = Regular;
paths = (
{
closed = 1;
nodes = (
"484 0 LINE",
"572 0 LINE",
"572 580 LINE",
"726 580 LINE",
"726 638 LINE",
"-22 638 LINE",
"-22 580 LINE",
"484 580 LINE"
);
},
{
closed = 1;
nodes = (
"220 177 LINE",
"242 180 OFFCURVE",
"276 194 OFFCURVE",
"286 209 CURVE",
"286 595 LINE",
"207 595 LINE",
"207 314 LINE",
"66 314 LINE",
"66 263 LINE"
);
}
);
width = 704;
},
{
layerId = "CD42366C-28E1-4C24-AB95-7D2C522D2B07";
name = Bold;
paths = (
{
closed = 1;
nodes = (
"462 0 LINE",
"594 0 LINE",
"594 558 LINE",
"726 558 LINE",
"726 638 LINE",
"-22 638 LINE",
"-22 558 LINE",
"462 558 LINE"
);
},
{
closed = 1;
nodes = (
"220 155 LINE",
"249 159 OFFCURVE",
"292 178 OFFCURVE",
"308 198 CURVE",
"308 573 LINE",
"185 573 LINE",
"185 325 LINE",
"44 325 LINE",
"44 252 LINE"
);
}
);
width = 704;
}
);
unicode = 0917;
},
{
glyphname = "gha-deva";
lastChange = "2015-05-28 17:59:49 +0000";
layers = (
{
layerId = UUID0;
name = Regular;
paths = (
{
closed = 1;
nodes = (
"379 54 OFFCURVE",
"484 109 OFFCURVE",
"572 213 CURVE",
"572 308 LINE",
"451 175 OFFCURVE",
"363 122 OFFCURVE",
"267 122 CURVE SMOOTH",
"192 122 OFFCURVE",
"145 155 OFFCURVE",
"145 208 CURVE SMOOTH",
"145 276 OFFCURVE",
"216 335 OFFCURVE",
"298 335 CURVE SMOOTH",
"352 335 LINE",
"352 371 LINE",
"228 371 LINE",
"127 352 OFFCURVE",
"66 289 OFFCURVE",
"66 210 CURVE SMOOTH",
"66 120 OFFCURVE",
"149 54 OFFCURVE",
"269 54 CURVE SMOOTH"
);
},
{
closed = 1;
nodes = (
"352 345 LINE",
"352 394 LINE",
"294 394 LINE SMOOTH",
"205 394 OFFCURVE",
"149 431 OFFCURVE",
"149 494 CURVE SMOOTH",
"149 544 OFFCURVE",
"187 580 OFFCURVE",
"247 580 CURVE",
"247 603 LINE",
"206 603 LINE SMOOTH",
"122 603 OFFCURVE",
"66 553 OFFCURVE",
"66 486 CURVE SMOOTH",
"66 398 OFFCURVE",
"158 345 OFFCURVE",
"296 345 CURVE"
);
},
{
closed = 1;
nodes = (
"528 0 LINE",
"616 0 LINE",
"616 580 LINE",
"770 580 LINE",
"770 638 LINE",
"-22 638 LINE",
"-22 580 LINE",
"528 580 LINE"
);
}
);
width = 748;
},
{
layerId = "CD42366C-28E1-4C24-AB95-7D2C522D2B07";
name = Bold;
paths = (
{
closed = 1;
nodes = (
"385 54 OFFCURVE",
"486 112 OFFCURVE",
"572 213 CURVE",
"572 330 LINE",
"451 197 OFFCURVE",
"362 144 OFFCURVE",
"268 144 CURVE SMOOTH",
"205 144 OFFCURVE",
"167 168 OFFCURVE",
"167 214 CURVE SMOOTH",
"167 272 OFFCURVE",
"228 324 OFFCURVE",
"298 324 CURVE SMOOTH",
"374 324 LINE",
"374 382 LINE",
"228 382 LINE",
"113 362 OFFCURVE",
"44 293 OFFCURVE",
"44 213 CURVE SMOOTH",
"44 120 OFFCURVE",
"136 54 OFFCURVE",
"265 54 CURVE SMOOTH"
);
},
{
closed = 1;
nodes = (
"374 334 LINE",
"374 405 LINE",
"294 405 LINE SMOOTH",
"219 405 OFFCURVE",
"171 439 OFFCURVE",
"171 491 CURVE SMOOTH",
"171 532 OFFCURVE",
"200 558 OFFCURVE",
"247 558 CURVE",
"247 581 LINE",
"206 581 LINE SMOOTH",
"108 581 OFFCURVE",
"44 539 OFFCURVE",
"44 473 CURVE SMOOTH",
"44 390 OFFCURVE",
"146 334 OFFCURVE",
"296 334 CURVE"
);
},
{
closed = 1;
nodes = (
"-22 558 LINE",
"506 558 LINE",
"506 0 LINE",
"638 0 LINE",
"638 558 LINE",
"770 558 LINE",
"770 638 LINE",
"-22 638 LINE"
);
}
);
width = 748;
}
);
unicode = 0918;
},
{
glyphname = "nga-deva";
lastChange = "2015-05-28 17:59:49 +0000";
layers = (
{
components = (
{
name = "dda-deva";
}
);
layerId = UUID0;
name = Regular;
paths = (
{
closed = 1;
nodes = (
"726 580 LINE",
"726 638 LINE",
"572 638 LINE",
"572 580 LINE"
);
},
{
closed = 1;
nodes = (
"643 288 OFFCURVE",
"674 316 OFFCURVE",
"682 348 CURVE",
"674 380 OFFCURVE",
"643 408 OFFCURVE",
"616 416 CURVE",
"589 408 OFFCURVE",
"558 380 OFFCURVE",
"550 348 CURVE",
"558 316 OFFCURVE",
"589 288 OFFCURVE",
"616 280 CURVE"
);
}
);
width = 704;
},
{
components = (
{
name = "dda-deva";
}
);
layerId = "CD42366C-28E1-4C24-AB95-7D2C522D2B07";
name = Bold;
paths = (
{
closed = 1;
nodes = (
"726 558 LINE",
"726 638 LINE",
"572 638 LINE",
"572 558 LINE"
);
},
{
closed = 1;
nodes = (
"647 278 OFFCURVE",
"684 311 OFFCURVE",
"693 348 CURVE",
"684 385 OFFCURVE",
"647 418 OFFCURVE",
"616 427 CURVE",
"584 418 OFFCURVE",
"548 385 OFFCURVE",
"539 348 CURVE",
"548 311 OFFCURVE",
"584 278 OFFCURVE",
"616 269 CURVE"
);
}
);
width = 704;
}
);
unicode = 0919;
},
{
glyphname = "ca-deva";
lastChange = "2015-05-28 17:59:49 +0000";
layers = (
{
layerId = UUID0;
name = Regular;
paths = (
{
closed = 1;
nodes = (
"432 79 OFFCURVE",
"521 155 OFFCURVE",
"577 284 CURVE",
"547 346 LINE",
"482 219 OFFCURVE",
"397 142 OFFCURVE",
"322 142 CURVE SMOOTH",
"269 142 OFFCURVE",
"231 181 OFFCURVE",
"231 234 CURVE SMOOTH",
"231 297 OFFCURVE",
"284 358 OFFCURVE",
"371 396 CURVE",
"323 429 LINE",
"220 395 OFFCURVE",
"157 325 OFFCURVE",
"157 244 CURVE SMOOTH",
"157 153 OFFCURVE",
"235 79 OFFCURVE",
"333 79 CURVE SMOOTH"
);
},
{
closed = 1;
nodes = (
"528 0 LINE",
"616 0 LINE",
"616 580 LINE",
"770 580 LINE",
"770 638 LINE",
"-22 638 LINE",
"-22 580 LINE",
"528 580 LINE"
);
},
{
closed = 1;
nodes = (
"44 396 LINE",
"440 396 LINE",
"440 464 LINE",
"44 464 LINE"
);
}
);
width = 748;
},
{
layerId = "CD42366C-28E1-4C24-AB95-7D2C522D2B07";
name = Bold;
paths = (
{
closed = 1;
nodes = (
"428 68 OFFCURVE",
"522 148 OFFCURVE",
"577 284 CURVE",
"547 390 LINE",
"482 244 OFFCURVE",
"397 155 OFFCURVE",
"322 155 CURVE SMOOTH",
"282 155 OFFCURVE",
"253 181 OFFCURVE",
"253 228 CURVE SMOOTH",
"253 284 OFFCURVE",
"294 341 OFFCURVE",
"351 374 CURVE",
"292 407 LINE",
"195 374 OFFCURVE",
"135 301 OFFCURVE",
"135 226 CURVE SMOOTH",
"135 137 OFFCURVE",
"218 68 OFFCURVE",
"319 68 CURVE SMOOTH"
);
},
{
closed = 1;
nodes = (
"506 0 LINE",
"638 0 LINE",
"638 558 LINE",
"770 558 LINE",
"770 638 LINE",
"-22 638 LINE",
"-22 558 LINE",
"506 558 LINE"
);
},
{
closed = 1;
nodes = (
"44 374 LINE",
"440 374 LINE",
"440 464 LINE",
"44 464 LINE"
);
}
);
width = 748;
}
);
unicode = 091A;
},
{
glyphname = "cha-deva";
lastChange = "2015-05-28 17:59:49 +0000";
layers = (
{
layerId = UUID0;
name = Regular;
paths = (
{
closed = 1;
nodes = (
"549 26 OFFCURVE",
"704 140 OFFCURVE",
"704 288 CURVE SMOOTH",
"704 400 OFFCURVE",
"614 467 OFFCURVE",
"458 467 CURVE SMOOTH",
"428 467 LINE",
"428 395 LINE",
"448 395 LINE SMOOTH",
"565 395 OFFCURVE",
"622 355 OFFCURVE",
"622 283 CURVE SMOOTH",
"622 177 OFFCURVE",
"500 95 OFFCURVE",
"343 95 CURVE SMOOTH",
"227 95 OFFCURVE",
"146 139 OFFCURVE",
"146 201 CURVE SMOOTH",
"146 261 OFFCURVE",
"223 323 OFFCURVE",
"298 323 CURVE SMOOTH",
"332 323 LINE",
"332 359 LINE",
"228 359 LINE",
"132 339 OFFCURVE",
"65 272 OFFCURVE",
"65 198 CURVE SMOOTH",
"65 99 OFFCURVE",
"184 26 OFFCURVE",
"346 26 CURVE SMOOTH"
);
},
{
closed = 1;
nodes = (
"332 333 LINE",
"332 382 LINE",
"294 382 LINE SMOOTH",
"204 382 OFFCURVE",
"149 422 OFFCURVE",
"149 488 CURVE SMOOTH",
"149 543 OFFCURVE",
"188 580 OFFCURVE",
"247 580 CURVE",
"247 603 LINE",
"206 603 LINE SMOOTH",
"124 603 OFFCURVE",
"66 552 OFFCURVE",
"66 480 CURVE SMOOTH",
"66 390 OFFCURVE",
"156 333 OFFCURVE",
"296 333 CURVE"
);
},
{
closed = 1;
nodes = (
"550 382 LINE",
"638 382 LINE",
"638 580 LINE",
"792 580 LINE",
"792 638 LINE",
"-22 638 LINE",
"-22 580 LINE",
"550 580 LINE"
);
}
);
width = 770;
},
{
layerId = "CD42366C-28E1-4C24-AB95-7D2C522D2B07";
name = Bold;
paths = (
{
closed = 1;
nodes = (
"558 26 OFFCURVE",
"726 140 OFFCURVE",
"726 287 CURVE SMOOTH",
"726 400 OFFCURVE",
"628 467 OFFCURVE",
"458 467 CURVE SMOOTH",
"406 467 LINE",
"406 373 LINE",
"448 373 LINE SMOOTH",
"552 373 OFFCURVE",
"600 341 OFFCURVE",
"600 281 CURVE SMOOTH",
"600 190 OFFCURVE",
"492 117 OFFCURVE",
"334 117 CURVE SMOOTH",
"227 117 OFFCURVE",
"168 150 OFFCURVE",
"168 206 CURVE SMOOTH",
"168 260 OFFCURVE",
"223 312 OFFCURVE",
"298 312 CURVE SMOOTH",
"332 312 LINE",
"332 370 LINE",
"206 370 LINE",
"118 351 OFFCURVE",
"43 298 OFFCURVE",
"43 206 CURVE SMOOTH",
"43 57 OFFCURVE",
"241 26 OFFCURVE",
"350 26 CURVE SMOOTH"
);
},
{
closed = 1;
nodes = (
"332 322 LINE",
"332 404 LINE",
"294 404 LINE SMOOTH",
"217 404 OFFCURVE",
"171 434 OFFCURVE",
"171 485 CURVE SMOOTH",
"171 532 OFFCURVE",
"211 558 OFFCURVE",
"269 558 CURVE",
"269 581 LINE",
"184 581 LINE SMOOTH",
"102 581 OFFCURVE",
"44 539 OFFCURVE",
"44 471 CURVE SMOOTH",
"44 383 OFFCURVE",
"143 322 OFFCURVE",
"296 322 CURVE"
);
},
{
closed = 1;
nodes = (
"528 382 LINE",
"660 382 LINE",
"660 558 LINE",
"792 558 LINE",
"792 638 LINE",
"-22 638 LINE",
"-22 558 LINE",
"528 558 LINE"
);
}
);
width = 770;
}
);
unicode = 091B;
},
{
glyphname = "ja-deva";
lastChange = "2015-05-28 17:59:49 +0000";
layers = (
{
layerId = UUID0;
name = Regular;
paths = (
{
closed = 1;
nodes = (
"388 79 OFFCURVE",
"462 147 OFFCURVE",
"462 242 CURVE SMOOTH",
"462 338 OFFCURVE",
"387 404 OFFCURVE",
"264 429 CURVE",
"258 396 LINE",
"329 381 OFFCURVE",
"383 322 OFFCURVE",
"383 258 CURVE SMOOTH",
"383 196 OFFCURVE",
"331 151 OFFCURVE",
"264 151 CURVE SMOOTH",
"191 151 OFFCURVE",
"133 204 OFFCURVE",
"73 320 CURVE",
"39 284 LINE",
"95 152 OFFCURVE",
"183 79 OFFCURVE",
"287 79 CURVE SMOOTH"
);
},
{
closed = 1;
nodes = (
"594 0 LINE",
"682 0 LINE",
"682 580 LINE",
"836 580 LINE",
"836 638 LINE",
"-22 638 LINE",
"-22 580 LINE",
"594 580 LINE"
);
},
{
closed = 1;
nodes = (
"242 396 LINE",
"644 396 LINE",
"644 464 LINE",
"242 464 LINE"
);
}
);
width = 814;
},
{
layerId = "CD42366C-28E1-4C24-AB95-7D2C522D2B07";
name = Bold;
paths = (
{
closed = 1;
nodes = (
"406 79 OFFCURVE",
"484 147 OFFCURVE",
"484 242 CURVE SMOOTH",
"484 329 OFFCURVE",
"420 393 OFFCURVE",
"308 418 CURVE",
"258 385 LINE",
"319 371 OFFCURVE",
"361 317 OFFCURVE",
"361 262 CURVE SMOOTH",
"361 207 OFFCURVE",
"319 173 OFFCURVE",
"263 173 CURVE SMOOTH",
"199 173 OFFCURVE",
"143 217 OFFCURVE",
"84 331 CURVE",
"39 284 LINE",
"98 150 OFFCURVE",
"190 79 OFFCURVE",
"299 79 CURVE SMOOTH"
);
},
{
closed = 1;
nodes = (
"572 0 LINE",
"704 0 LINE",
"704 558 LINE",
"836 558 LINE",
"836 638 LINE",
"-22 638 LINE",
"-22 558 LINE",
"572 558 LINE"
);
},
{
closed = 1;
nodes = (
"240 385 LINE",
"644 385 LINE",
"644 475 LINE",
"240 475 LINE"
);
}
);
width = 814;
}
);
unicode = 091C;
},
{
glyphname = "jha-deva";
lastChange = "2015-05-28 17:59:49 +0000";
layers = (
{
components = (
{
name = "i-deva";
},
{
name = "aaMatra-deva";
transform = "{1, 0, 0, 1, 616, 0}";
}
);
layerId = UUID0;
name = Regular;
paths = (
{
closed = 1;
nodes = (
"462 198 LINE",
"598 217 OFFCURVE",
"708 259 OFFCURVE",
"792 379 CURVE",
"792 444 LINE",
"748 444 LINE",
"701 341 OFFCURVE",
"568 272 OFFCURVE",
"462 257 CURVE"
);
}
);
width = 968;
},
{
components = (
{
name = "i-deva";
},
{
name = "aaMatra-deva";
transform = "{1, 0, 0, 1, 616, 0}";
}
);
layerId = "CD42366C-28E1-4C24-AB95-7D2C522D2B07";
name = Bold;
paths = (
{
closed = 1;
nodes = (
"462 187 LINE",
"598 206 OFFCURVE",
"708 248 OFFCURVE",
"792 368 CURVE",
"792 455 LINE",
"748 455 LINE",
"701 352 OFFCURVE",
"568 283 OFFCURVE",
"462 268 CURVE"
);
}
);
width = 968;
}
);
unicode = 091D;
},
{
glyphname = "nya-deva";
lastChange = "2015-05-28 17:59:49 +0000";
layers = (
{
layerId = UUID0;
name = Regular;
paths = (
{
closed = 1;
nodes = (
"351 107 OFFCURVE",
"429 187 OFFCURVE",
"429 294 CURVE SMOOTH",
"429 395 OFFCURVE",
"354 470 OFFCURVE",
"253 470 CURVE SMOOTH",
"204 470 OFFCURVE",
"161 464 OFFCURVE",
"115 447 CURVE",
"138 379 LINE",
"185 394 OFFCURVE",
"229 399 OFFCURVE",
"278 399 CURVE SMOOTH",
"321 399 OFFCURVE",
"344 358 OFFCURVE",
"344 312 CURVE SMOOTH",
"344 237 OFFCURVE",
"300 174 OFFCURVE",
"229 174 CURVE SMOOTH",
"172 174 OFFCURVE",
"125 198 OFFCURVE",
"75 225 CURVE",
"66 168 LINE",
"121 131 OFFCURVE",
"177 107 OFFCURVE",
"244 107 CURVE SMOOTH"
);
},
{
closed = 1;
nodes = (
"572 -20 LINE",
"660 -20 LINE",
"660 580 LINE",
"814 580 LINE",
"814 638 LINE",
"-22 638 LINE",
"-22 580 LINE",
"572 580 LINE"
);
},
{
closed = 1;
nodes = (
"374 257 LINE",
"459 257 OFFCURVE",
"538 258 OFFCURVE",
"616 293 CURVE",
"616 371 LINE",
"541 325 OFFCURVE",
"462 317 OFFCURVE",
"374 317 CURVE"
);
}
);
width = 792;
},
{
layerId = "CD42366C-28E1-4C24-AB95-7D2C522D2B07";
name = Bold;
paths = (
{
closed = 1;
nodes = (
"366 107 OFFCURVE",
"451 187 OFFCURVE",
"451 295 CURVE SMOOTH",
"451 399 OFFCURVE",
"373 481 OFFCURVE",
"245 481 CURVE SMOOTH",
"208 481 OFFCURVE",
"149 474 OFFCURVE",
"93 447 CURVE",
"116 357 LINE",
"159 379 OFFCURVE",
"213 388 OFFCURVE",
"244 388 CURVE SMOOTH",
"306 388 OFFCURVE",
"322 352 OFFCURVE",
"322 310 CURVE SMOOTH",
"322 257 OFFCURVE",
"296 196 OFFCURVE",
"220 196 CURVE SMOOTH",
"159 196 OFFCURVE",
"77 236 OFFCURVE",
"53 247 CURVE",
"44 168 LINE",
"106 131 OFFCURVE",
"171 107 OFFCURVE",
"240 107 CURVE SMOOTH"
);
},
{
closed = 1;
nodes = (
"550 -20 LINE",
"682 -20 LINE",
"682 558 LINE",
"814 558 LINE",
"814 638 LINE",
"-22 638 LINE",
"-22 558 LINE",
"550 558 LINE"
);
},
{
closed = 1;
nodes = (
"374 246 LINE",
"459 246 OFFCURVE",
"538 247 OFFCURVE",
"616 282 CURVE",
"616 382 LINE",
"541 336 OFFCURVE",
"462 328 OFFCURVE",
"374 328 CURVE"
);
}
);
width = 792;
}
);
unicode = 091E;
},
{
glyphname = "tta-deva";
lastChange = "2015-05-28 17:59:49 +0000";
layers = (
{
layerId = UUID0;
name = Regular;
paths = (
{
closed = 1;
nodes = (
"372 19 OFFCURVE",
"445 60 OFFCURVE",
"525 105 CURVE",
"493 174 LINE",
"417 126 OFFCURVE",
"345 87 OFFCURVE",
"255 87 CURVE SMOOTH",
"183 87 OFFCURVE",
"148 160 OFFCURVE",
"148 240 CURVE SMOOTH",
"148 312 OFFCURVE",
"191 372 OFFCURVE",
"259 372 CURVE SMOOTH",
"418 372 LINE",
"418 580 LINE",
"594 580 LINE",
"594 638 LINE",
"-22 638 LINE",
"-22 580 LINE",
"330 580 LINE",
"330 436 LINE",
"224 436 LINE SMOOTH",
"128 436 OFFCURVE",
"66 353 OFFCURVE",
"66 251 CURVE SMOOTH",
"66 121 OFFCURVE",
"154 19 OFFCURVE",
"280 19 CURVE SMOOTH"
);
}
);
width = 572;
},
{
layerId = "CD42366C-28E1-4C24-AB95-7D2C522D2B07";
name = Bold;
paths = (
{
closed = 1;
nodes = (
"381 19 OFFCURVE",
"470 65 OFFCURVE",
"547 105 CURVE",
"515 196 LINE",
"452 158 OFFCURVE",
"346 109 OFFCURVE",
"277 109 CURVE SMOOTH",
"219 109 OFFCURVE",
"170 143 OFFCURVE",
"170 228 CURVE SMOOTH",
"170 306 OFFCURVE",
"212 350 OFFCURVE",
"281 350 CURVE SMOOTH",
"440 350 LINE",
"440 558 LINE",
"594 558 LINE",
"594 638 LINE",
"-22 638 LINE",
"-22 558 LINE",
"308 558 LINE",
"308 436 LINE",
"202 436 LINE SMOOTH",
"106 436 OFFCURVE",
"44 354 OFFCURVE",
"44 250 CURVE SMOOTH",
"44 121 OFFCURVE",
"139 19 OFFCURVE",
"284 19 CURVE SMOOTH"
);
}
);
width = 572;
}
);
unicode = 091F;
},
{
glyphname = "ttha-deva";
lastChange = "2015-05-28 17:59:49 +0000";
layers = (
{
layerId = UUID0;
name = Regular;
paths = (
{
closed = 1;
nodes = (
"431 13 OFFCURVE",
"528 98 OFFCURVE",
"528 219 CURVE SMOOTH",
"528 327 OFFCURVE",
"458 412 OFFCURVE",
"352 431 CURVE",
"339 392 LINE",
"412 370 OFFCURVE",
"454 307 OFFCURVE",
"454 231 CURVE SMOOTH",
"454 142 OFFCURVE",
"383 80 OFFCURVE",
"292 80 CURVE SMOOTH",
"201 80 OFFCURVE",
"143 158 OFFCURVE",
"143 254 CURVE SMOOTH",
"143 318 OFFCURVE",
"178 372 OFFCURVE",
"237 372 CURVE SMOOTH",
"418 372 LINE",
"418 580 LINE",
"616 580 LINE",
"616 638 LINE",
"-22 638 LINE",
"-22 580 LINE",
"330 580 LINE",
"330 436 LINE",
"224 436 LINE SMOOTH",
"127 436 OFFCURVE",
"66 350 OFFCURVE",
"66 246 CURVE SMOOTH",
"66 111 OFFCURVE",
"170 13 OFFCURVE",
"307 13 CURVE SMOOTH"
);
}
);
width = 594;
},
{
layerId = "CD42366C-28E1-4C24-AB95-7D2C522D2B07";
name = Bold;
paths = (
{
closed = 1;
nodes = (
"443 13 OFFCURVE",
"550 96 OFFCURVE",
"550 222 CURVE SMOOTH",
"550 325 OFFCURVE",
"479 413 OFFCURVE",
"374 431 CURVE",
"317 392 LINE",
"394 369 OFFCURVE",
"432 300 OFFCURVE",
"432 235 CURVE SMOOTH",
"432 148 OFFCURVE",
"364 102 OFFCURVE",
"296 102 CURVE SMOOTH",
"207 102 OFFCURVE",
"165 179 OFFCURVE",
"165 248 CURVE SMOOTH",
"165 315 OFFCURVE",
"205 350 OFFCURVE",
"259 350 CURVE SMOOTH",
"440 350 LINE",
"440 558 LINE",
"616 558 LINE",
"616 638 LINE",
"-22 638 LINE",
"-22 558 LINE",
"308 558 LINE",
"308 436 LINE",
"202 436 LINE SMOOTH",
"106 436 OFFCURVE",
"44 349 OFFCURVE",
"44 248 CURVE SMOOTH",
"44 111 OFFCURVE",
"157 13 OFFCURVE",
"306 13 CURVE SMOOTH"
);
}
);
width = 594;
}
);
unicode = 0920;
},
{
glyphname = "dda-deva";
lastChange = "2015-05-28 17:59:49 +0000";
layers = (
{
layerId = UUID0;
name = Regular;
paths = (
{
closed = 1;
nodes = (
"435 -4 OFFCURVE",
"529 54 OFFCURVE",
"529 159 CURVE SMOOTH",
"529 247 OFFCURVE",
"463 308 OFFCURVE",
"373 308 CURVE SMOOTH",
"306 308 OFFCURVE",
"253 285 OFFCURVE",
"187 274 CURVE",
"160 295 OFFCURVE",
"148 324 OFFCURVE",
"148 358 CURVE SMOOTH",
"148 389 OFFCURVE",
"169 411 OFFCURVE",
"199 411 CURVE SMOOTH",
"462 411 LINE",
"462 580 LINE",
"616 580 LINE",
"616 638 LINE",
"-22 638 LINE",
"-22 580 LINE",
"374 580 LINE",
"374 475 LINE",
"155 475 LINE SMOOTH",
"102 475 OFFCURVE",
"67 433 OFFCURVE",
"67 378 CURVE SMOOTH",
"67 304 OFFCURVE",
"111 251 OFFCURVE",
"176 213 CURVE",
"239 224 OFFCURVE",
"291 238 OFFCURVE",
"355 238 CURVE SMOOTH",
"408 238 OFFCURVE",
"452 210 OFFCURVE",
"452 160 CURVE SMOOTH",
"452 93 OFFCURVE",
"388 60 OFFCURVE",
"314 60 CURVE SMOOTH",
"223 60 OFFCURVE",
"155 100 OFFCURVE",
"86 156 CURVE",
"60 103 LINE",
"138 40 OFFCURVE",
"214 -4 OFFCURVE",
"321 -4 CURVE SMOOTH"
);
}
);
width = 594;
},
{
layerId = "CD42366C-28E1-4C24-AB95-7D2C522D2B07";
name = Bold;
paths = (
{
closed = 1;
nodes = (
"448 -15 OFFCURVE",
"551 47 OFFCURVE",
"551 159 CURVE SMOOTH",
"551 247 OFFCURVE",
"479 308 OFFCURVE",
"367 308 CURVE SMOOTH",
"317 308 OFFCURVE",
"264 292 OFFCURVE",
"209 274 CURVE",
"184 292 OFFCURVE",
"170 327 OFFCURVE",
"170 351 CURVE SMOOTH",
"170 380 OFFCURVE",
"192 389 OFFCURVE",
"221 389 CURVE SMOOTH",
"484 389 LINE",
"484 558 LINE",
"616 558 LINE",
"616 638 LINE",
"-22 638 LINE",
"-22 558 LINE",
"352 558 LINE",
"352 475 LINE",
"133 475 LINE SMOOTH",
"85 475 OFFCURVE",
"45 442 OFFCURVE",
"45 372 CURVE SMOOTH",
"45 296 OFFCURVE",
"92 231 OFFCURVE",
"154 191 CURVE",
"199 200 OFFCURVE",
"282 216 OFFCURVE",
"343 216 CURVE SMOOTH",
"403 216 OFFCURVE",
"430 200 OFFCURVE",
"430 161 CURVE SMOOTH",
"430 115 OFFCURVE",
"380 93 OFFCURVE",
"308 93 CURVE SMOOTH",
"211 93 OFFCURVE",
"140 140 OFFCURVE",
"75 189 CURVE",
"27 97 LINE",
"115 28 OFFCURVE",
"202 -15 OFFCURVE",
"319 -15 CURVE SMOOTH"
);
}
);
width = 594;
}
);
unicode = 0921;
},
{
glyphname = "ddha-deva";
lastChange = "2015-05-28 17:59:49 +0000";
layers = (
{
layerId = UUID0;
name = Regular;
paths = (
{
closed = 1;
nodes = (
"427 17 OFFCURVE",
"528 68 OFFCURVE",
"528 173 CURVE SMOOTH",
"528 241 OFFCURVE",
"473 285 OFFCURVE",
"402 285 CURVE SMOOTH",
"368 285 OFFCURVE",
"340 278 OFFCURVE",
"308 266 CURVE",
"308 190 LINE",
"337 204 OFFCURVE",
"364 211 OFFCURVE",
"397 211 CURVE SMOOTH",
"426 211 OFFCURVE",
"450 197 OFFCURVE",
"450 171 CURVE SMOOTH",
"450 105 OFFCURVE",
"380 84 OFFCURVE",
"305 84 CURVE SMOOTH",
"209 84 OFFCURVE",
"143 157 OFFCURVE",
"143 255 CURVE SMOOTH",
"143 321 OFFCURVE",
"183 372 OFFCURVE",
"246 372 CURVE SMOOTH",
"418 372 LINE",
"418 580 LINE",
"616 580 LINE",
"616 638 LINE",
"-22 638 LINE",
"-22 580 LINE",
"330 580 LINE",
"330 436 LINE",
"224 436 LINE SMOOTH",
"125 436 OFFCURVE",
"66 351 OFFCURVE",
"66 246 CURVE SMOOTH",
"66 109 OFFCURVE",
"170 17 OFFCURVE",
"310 17 CURVE SMOOTH"
);
}
);
width = 594;
},
{
layerId = "CD42366C-28E1-4C24-AB95-7D2C522D2B07";
name = Bold;
paths = (
{
closed = 1;
nodes = (
"439 17 OFFCURVE",
"550 68 OFFCURVE",
"550 173 CURVE SMOOTH",
"550 248 OFFCURVE",
"485 296 OFFCURVE",
"402 296 CURVE SMOOTH",
"360 296 OFFCURVE",
"325 287 OFFCURVE",
"286 266 CURVE",
"286 168 LINE",
"323 189 OFFCURVE",
"357 200 OFFCURVE",
"389 200 CURVE SMOOTH",
"414 200 OFFCURVE",
"428 190 OFFCURVE",
"428 171 CURVE SMOOTH",
"428 122 OFFCURVE",
"369 106 OFFCURVE",
"305 106 CURVE SMOOTH",
"222 106 OFFCURVE",
"165 170 OFFCURVE",
"165 255 CURVE SMOOTH",
"165 315 OFFCURVE",
"196 356 OFFCURVE",
"263 356 CURVE SMOOTH",
"440 356 LINE",
"440 558 LINE",
"616 558 LINE",
"616 638 LINE",
"-22 638 LINE",
"-22 558 LINE",
"308 558 LINE",
"308 442 LINE",
"202 442 LINE SMOOTH",
"103 442 OFFCURVE",
"44 357 OFFCURVE",
"44 246 CURVE SMOOTH",
"44 109 OFFCURVE",
"157 17 OFFCURVE",
"310 17 CURVE SMOOTH"
);
}
);
width = 594;
}
);
unicode = 0922;
},
{
glyphname = "nna-deva";
lastChange = "2015-05-28 17:59:49 +0000";
layers = (
{
layerId = UUID0;
name = Regular;
paths = (
{
closed = 1;
nodes = (
"660 0 LINE",
"748 0 LINE",
"748 580 LINE",
"902 580 LINE",
"902 638 LINE",
"-22 638 LINE",
"-22 580 LINE",
"132 580 LINE",
"132 334 LINE SMOOTH",
"132 208 OFFCURVE",
"204 135 OFFCURVE",
"313 135 CURVE SMOOTH",
"418 135 OFFCURVE",
"506 203 OFFCURVE",
"506 302 CURVE SMOOTH",
"506 580 LINE",
"660 580 LINE"
);
},
{
closed = 1;
nodes = (
"418 580 LINE",
"418 318 LINE SMOOTH",
"418 249 OFFCURVE",
"366 209 OFFCURVE",
"296 209 CURVE SMOOTH",
"243 209 OFFCURVE",
"220 231 OFFCURVE",
"220 326 CURVE SMOOTH",
"220 580 LINE"
);
}
);
width = 880;
},
{
layerId = "CD42366C-28E1-4C24-AB95-7D2C522D2B07";
name = Bold;
paths = (
{
closed = 1;
nodes = (
"638 0 LINE",
"770 0 LINE",
"770 558 LINE",
"902 558 LINE",
"902 638 LINE",
"-22 638 LINE",
"-22 558 LINE",
"110 558 LINE",
"110 334 LINE SMOOTH",
"110 211 OFFCURVE",
"188 135 OFFCURVE",
"313 135 CURVE SMOOTH",
"435 135 OFFCURVE",
"528 207 OFFCURVE",
"528 302 CURVE SMOOTH",
"528 558 LINE",
"638 558 LINE"
);
},
{
closed = 1;
nodes = (
"396 558 LINE",
"396 329 LINE SMOOTH",
"396 269 OFFCURVE",
"358 231 OFFCURVE",
"304 231 CURVE SMOOTH",
"259 231 OFFCURVE",
"242 257 OFFCURVE",
"242 314 CURVE SMOOTH",
"242 558 LINE"
);
}
);
width = 880;
}
);
unicode = 0923;
},
{
glyphname = "ta-deva";
lastChange = "2015-05-28 17:59:49 +0000";
layers = (
{
layerId = UUID0;
name = Regular;
paths = (
{
closed = 1;
nodes = (
"254 39 LINE",
"230 79 OFFCURVE",
"154 207 OFFCURVE",
"154 298 CURVE SMOOTH",
"154 361 OFFCURVE",
"191 380 OFFCURVE",
"246 380 CURVE SMOOTH",
"468 380 LINE",
"468 454 LINE",
"243 454 LINE SMOOTH",
"134 454 OFFCURVE",
"73 401 OFFCURVE",
"73 306 CURVE SMOOTH",
"73 232 OFFCURVE",
"111 132 OFFCURVE",
"191 0 CURVE"
);
},
{
closed = 1;
nodes = (
"418 0 LINE",
"506 0 LINE",
"506 580 LINE",
"660 580 LINE",
"660 638 LINE",
"-22 638 LINE",
"-22 580 LINE",
"418 580 LINE"
);
}
);
width = 638;
},
{
layerId = "CD42366C-28E1-4C24-AB95-7D2C522D2B07";
name = Bold;
paths = (
{
closed = 1;
nodes = (
"276 39 LINE",
"259 67 OFFCURVE",
"176 206 OFFCURVE",
"176 294 CURVE SMOOTH",
"176 344 OFFCURVE",
"202 358 OFFCURVE",
"246 358 CURVE SMOOTH",
"468 358 LINE",
"468 454 LINE",
"221 454 LINE SMOOTH",
"112 454 OFFCURVE",
"51 401 OFFCURVE",
"51 306 CURVE SMOOTH",
"51 232 OFFCURVE",
"89 132 OFFCURVE",
"169 0 CURVE"
);
},
{
closed = 1;
nodes = (
"396 0 LINE",
"528 0 LINE",
"528 558 LINE",
"660 558 LINE",
"660 638 LINE",
"-22 638 LINE",
"-22 558 LINE",
"396 558 LINE"
);
}
);
width = 638;
}
);
unicode = 0924;
},
{
glyphname = "tha-deva";
lastChange = "2015-05-28 17:59:49 +0000";
layers = (
{
layerId = UUID0;
name = Regular;
paths = (
{
closed = 1;
nodes = (
"344 127 OFFCURVE",
"391 144 OFFCURVE",
"462 192 CURVE",
"462 296 LINE",
"401 230 OFFCURVE",
"350 204 OFFCURVE",
"282 204 CURVE SMOOTH",
"206 204 OFFCURVE",
"160 237 OFFCURVE",
"143 303 CURVE",
"242 313 OFFCURVE",
"301 378 OFFCURVE",
"301 476 CURVE SMOOTH",
"301 579 OFFCURVE",
"237 638 OFFCURVE",
"128 638 CURVE SMOOTH",
"-22 638 LINE",
"-22 580 LINE",
"104 580 LINE SMOOTH",
"182 580 OFFCURVE",
"218 547 OFFCURVE",
"218 476 CURVE SMOOTH",
"218 396 OFFCURVE",
"172 366 OFFCURVE",
"65 362 CURVE",
"72 214 OFFCURVE",
"152 127 OFFCURVE",
"285 127 CURVE SMOOTH"
);
},
{
closed = 1;
nodes = (
"440 0 LINE",
"528 0 LINE",
"528 580 LINE",
"682 580 LINE",
"682 638 LINE",
"396 638 LINE",
"396 580 LINE",
"440 580 LINE"
);
}
);
width = 660;
},
{
layerId = "CD42366C-28E1-4C24-AB95-7D2C522D2B07";
name = Bold;
paths = (
{
closed = 1;
nodes = (
"342 127 OFFCURVE",
"397 147 OFFCURVE",
"462 192 CURVE",
"462 318 LINE",
"407 258 OFFCURVE",
"344 226 OFFCURVE",
"276 226 CURVE SMOOTH",
"211 226 OFFCURVE",
"154 255 OFFCURVE",
"154 292 CURVE",
"262 302 OFFCURVE",
"325 360 OFFCURVE",
"325 452 CURVE SMOOTH",
"325 560 OFFCURVE",
"238 638 OFFCURVE",
"128 638 CURVE SMOOTH",
"-22 638 LINE",
"-22 558 LINE",
"94 558 LINE SMOOTH",
"161 558 OFFCURVE",
"198 525 OFFCURVE",
"198 466 CURVE SMOOTH",
"198 402 OFFCURVE",
"155 377 OFFCURVE",
"43 373 CURVE",
"50 218 OFFCURVE",
"146 127 OFFCURVE",
"279 127 CURVE SMOOTH"
);
},
{
closed = 1;
nodes = (
"418 0 LINE",
"550 0 LINE",
"550 558 LINE",
"682 558 LINE",
"682 638 LINE",
"374 638 LINE",
"374 558 LINE",
"418 558 LINE"
);
}
);
width = 660;
}
);
unicode = 0925;
},
{
glyphname = "da-deva";
lastChange = "2015-05-28 17:59:49 +0000";
layers = (
{
layerId = UUID0;
name = Regular;
paths = (
{
closed = 1;
nodes = (
"364 38 OFFCURVE",
"411 70 OFFCURVE",
"477 105 CURVE",
"445 175 LINE",
"377 132 OFFCURVE",
"323 107 OFFCURVE",
"243 107 CURVE SMOOTH",
"166 107 OFFCURVE",
"148 180 OFFCURVE",
"148 269 CURVE SMOOTH",
"148 351 OFFCURVE",
"186 411 OFFCURVE",
"262 411 CURVE SMOOTH",
"418 411 LINE",
"418 580 LINE",
"594 580 LINE",
"594 638 LINE",
"-22 638 LINE",
"-22 580 LINE",
"330 580 LINE",
"330 475 LINE",
"243 475 LINE SMOOTH",
"131 475 OFFCURVE",
"66 396 OFFCURVE",
"66 280 CURVE SMOOTH",
"66 136 OFFCURVE",
"148 38 OFFCURVE",
"289 38 CURVE SMOOTH"
);
},
{
closed = 1;
nodes = (
"572 -56 LINE",
"529 0 OFFCURVE",
"507 45 OFFCURVE",
"479 109 CURVE",
"506 194 LINE",
"491 229 OFFCURVE",
"473 250 OFFCURVE",
"445 275 CURVE",
"375 236 LINE",
"419 120 OFFCURVE",
"441 34 OFFCURVE",
"492 -79 CURVE"
);
}
);
width = 572;
},
{
layerId = "CD42366C-28E1-4C24-AB95-7D2C522D2B07";
name = Bold;
paths = (
{
closed = 1;
nodes = (
"364 38 OFFCURVE",
"411 70 OFFCURVE",
"477 105 CURVE",
"445 197 LINE",
"381 154 OFFCURVE",
"330 129 OFFCURVE",
"254 129 CURVE SMOOTH",
"206 129 OFFCURVE",
"170 164 OFFCURVE",
"170 269 CURVE SMOOTH",
"170 338 OFFCURVE",
"201 389 OFFCURVE",
"262 389 CURVE SMOOTH",
"440 389 LINE",
"440 558 LINE",
"594 558 LINE",
"594 638 LINE",
"-22 638 LINE",
"-22 558 LINE",
"308 558 LINE",
"308 475 LINE",
"221 475 LINE SMOOTH",
"109 475 OFFCURVE",
"44 396 OFFCURVE",
"44 280 CURVE SMOOTH",
"44 136 OFFCURVE",
"134 38 OFFCURVE",
"289 38 CURVE SMOOTH"
);
},
{
closed = 1;
nodes = (
"492 -79 LINE",
"594 -45 LINE",
"551 11 OFFCURVE",
"529 56 OFFCURVE",
"501 120 CURVE",
"528 194 LINE",
"510 239 OFFCURVE",
"489 266 OFFCURVE",
"456 297 CURVE",
"353 236 LINE",
"397 120 OFFCURVE",
"419 34 OFFCURVE",
"470 -79 CURVE"
);
}
);
width = 572;
}
);
unicode = 0926;
},
{
glyphname = "dha-deva";
lastChange = "2015-05-28 17:59:49 +0000";
layers = (
{
layerId = UUID0;
name = Regular;
paths = (
{
closed = 1;
nodes = (
"379 54 OFFCURVE",
"484 109 OFFCURVE",
"572 213 CURVE",
"572 308 LINE",
"451 175 OFFCURVE",
"363 122 OFFCURVE",
"267 122 CURVE SMOOTH",
"192 122 OFFCURVE",
"145 155 OFFCURVE",
"145 208 CURVE SMOOTH",
"145 276 OFFCURVE",
"216 335 OFFCURVE",
"298 335 CURVE SMOOTH",
"352 335 LINE",
"352 371 LINE",
"228 371 LINE",
"127 352 OFFCURVE",
"66 289 OFFCURVE",
"66 210 CURVE SMOOTH",
"66 120 OFFCURVE",
"149 54 OFFCURVE",
"269 54 CURVE SMOOTH"
);
},
{
closed = 1;
nodes = (
"352 345 LINE",
"352 394 LINE",
"294 394 LINE SMOOTH",
"205 394 OFFCURVE",
"149 431 OFFCURVE",
"149 494 CURVE SMOOTH",
"149 544 OFFCURVE",
"187 580 OFFCURVE",
"247 580 CURVE",
"247 603 LINE",
"206 603 LINE SMOOTH",
"122 603 OFFCURVE",
"66 553 OFFCURVE",
"66 486 CURVE SMOOTH",
"66 398 OFFCURVE",
"158 345 OFFCURVE",
"296 345 CURVE"
);
},
{
closed = 1;
nodes = (
"264 638 LINE",
"-22 638 LINE",
"-22 580 LINE",
"264 580 LINE"
);
},
{
closed = 1;
nodes = (
"462 580 LINE",
"528 580 LINE",
"528 0 LINE",
"616 0 LINE",
"616 580 LINE",
"770 580 LINE",
"770 638 LINE",
"462 638 LINE"
);
}
);
width = 748;
},
{
layerId = "CD42366C-28E1-4C24-AB95-7D2C522D2B07";
name = Bold;
paths = (
{
closed = 1;
nodes = (
"385 54 OFFCURVE",
"486 112 OFFCURVE",
"572 213 CURVE",
"572 330 LINE",
"451 197 OFFCURVE",
"362 144 OFFCURVE",
"268 144 CURVE SMOOTH",
"205 144 OFFCURVE",
"167 168 OFFCURVE",
"167 214 CURVE SMOOTH",
"167 272 OFFCURVE",
"228 324 OFFCURVE",
"298 324 CURVE SMOOTH",
"374 324 LINE",
"374 382 LINE",
"228 382 LINE",
"113 362 OFFCURVE",
"44 293 OFFCURVE",
"44 213 CURVE SMOOTH",
"44 120 OFFCURVE",
"136 54 OFFCURVE",
"265 54 CURVE SMOOTH"
);
},
{
closed = 1;
nodes = (
"374 334 LINE",
"374 405 LINE",
"294 405 LINE SMOOTH",
"219 405 OFFCURVE",
"171 439 OFFCURVE",
"171 491 CURVE SMOOTH",
"171 532 OFFCURVE",
"200 558 OFFCURVE",
"247 558 CURVE",
"247 581 LINE",
"206 581 LINE SMOOTH",
"108 581 OFFCURVE",
"44 539 OFFCURVE",
"44 473 CURVE SMOOTH",
"44 390 OFFCURVE",
"146 334 OFFCURVE",
"296 334 CURVE"
);
},
{
closed = 1;
nodes = (
"286 638 LINE",
"-22 638 LINE",
"-22 558 LINE",
"286 558 LINE"
);
},
{
closed = 1;
nodes = (
"440 558 LINE",
"506 558 LINE",
"506 0 LINE",
"638 0 LINE",
"638 558 LINE",
"770 558 LINE",
"770 638 LINE",
"440 638 LINE"
);
}
);
width = 748;
}
);
unicode = 0927;
},
{
glyphname = "na-deva";
lastChange = "2015-05-28 17:59:49 +0000";
layers = (
{
layerId = UUID0;
name = Regular;
paths = (
{
closed = 1;
nodes = (
"462 0 LINE",
"550 0 LINE",
"550 580 LINE",
"704 580 LINE",
"704 638 LINE",
"-22 638 LINE",
"-22 580 LINE",
"462 580 LINE"
);
},
{
closed = 1;
nodes = (
"157 185 LINE",
"208 185 LINE",
"208 335 LINE",
"512 335 LINE",
"512 405 LINE",
"103 405 LINE",
"88 395 OFFCURVE",
"74 361 OFFCURVE",
"71 339 CURVE"
);
}
);
width = 682;
},
{
layerId = "CD42366C-28E1-4C24-AB95-7D2C522D2B07";
name = Bold;
paths = (
{
closed = 1;
nodes = (
"440 0 LINE",
"572 0 LINE",
"572 558 LINE",
"704 558 LINE",
"704 638 LINE",
"-22 638 LINE",
"-22 558 LINE",
"440 558 LINE"
);
},
{
closed = 1;
nodes = (
"154 163 LINE",
"230 163 LINE",
"230 313 LINE",
"512 313 LINE",
"512 405 LINE",
"81 405 LINE",
"65 395 OFFCURVE",
"52 361 OFFCURVE",
"49 339 CURVE"
);
}
);
width = 682;
}
);
unicode = 0928;
},
{
glyphname = "pa-deva";
lastChange = "2015-05-28 17:59:49 +0000";
layers = (
{
layerId = UUID0;
name = Regular;
paths = (
{
closed = 1;
nodes = (
"356 157 OFFCURVE",
"427 191 OFFCURVE",
"484 245 CURVE",
"484 355 LINE",
"423 281 OFFCURVE",
"354 237 OFFCURVE",
"294 237 CURVE SMOOTH",
"238 237 OFFCURVE",
"220 262 OFFCURVE",
"220 354 CURVE SMOOTH",
"220 588 LINE",
"132 588 LINE",
"132 362 LINE SMOOTH",
"132 242 OFFCURVE",
"198 157 OFFCURVE",
"298 157 CURVE SMOOTH"
);
},
{
closed = 1;
nodes = (
"462 0 LINE",
"550 0 LINE",
"550 580 LINE",
"704 580 LINE",
"704 638 LINE",
"-22 638 LINE",
"-22 580 LINE",
"462 580 LINE"
);
}
);
width = 682;
},
{
layerId = "CD42366C-28E1-4C24-AB95-7D2C522D2B07";
name = Bold;
paths = (
{
closed = 1;
nodes = (
"363 146 OFFCURVE",
"415 173 OFFCURVE",
"462 212 CURVE",
"462 344 LINE",
"404 273 OFFCURVE",
"355 248 OFFCURVE",
"306 248 CURVE SMOOTH",
"258 248 OFFCURVE",
"242 272 OFFCURVE",
"242 336 CURVE SMOOTH",
"242 566 LINE",
"110 566 LINE",
"110 362 LINE SMOOTH",
"110 236 OFFCURVE",
"192 146 OFFCURVE",
"302 146 CURVE SMOOTH"
);
},
{
closed = 1;
nodes = (
"440 0 LINE",
"572 0 LINE",
"572 558 LINE",
"704 558 LINE",
"704 638 LINE",
"-22 638 LINE",
"-22 558 LINE",
"440 558 LINE"
);
}
);
width = 682;
}
);
unicode = 092A;
},
{
glyphname = "pha-deva";
lastChange = "2015-05-28 17:59:49 +0000";
layers = (
{
layerId = UUID0;
name = Regular;
paths = (
{
closed = 1;
nodes = (
"356 163 OFFCURVE",
"427 197 OFFCURVE",
"484 251 CURVE",
"484 355 LINE",
"423 281 OFFCURVE",
"354 237 OFFCURVE",
"294 237 CURVE SMOOTH",
"238 237 OFFCURVE",
"220 262 OFFCURVE",
"220 354 CURVE SMOOTH",
"220 588 LINE",
"132 588 LINE",
"132 362 LINE SMOOTH",
"132 242 OFFCURVE",
"198 163 OFFCURVE",
"298 163 CURVE SMOOTH"
);
},
{
closed = 1;
nodes = (
"462 0 LINE",
"550 0 LINE",
"550 580 LINE",
"968 580 LINE",
"968 638 LINE",
"-22 638 LINE",
"-22 580 LINE",
"462 580 LINE"
);
},
{
closed = 1;
nodes = (
"776 83 LINE",
"850 161 OFFCURVE",
"881 212 OFFCURVE",
"881 280 CURVE SMOOTH",
"881 389 OFFCURVE",
"803 479 OFFCURVE",
"711 479 CURVE SMOOTH",
"643 479 OFFCURVE",
"577 431 OFFCURVE",
"528 345 CURVE",
"528 235 LINE",
"580 339 OFFCURVE",
"650 402 OFFCURVE",
"714 402 CURVE SMOOTH",
"767 402 OFFCURVE",
"800 359 OFFCURVE",
"800 289 CURVE SMOOTH",
"800 233 OFFCURVE",
"779 194 OFFCURVE",
"713 132 CURVE"
);
}
);
width = 946;
},
{
layerId = "CD42366C-28E1-4C24-AB95-7D2C522D2B07";
name = Bold;
paths = (
{
closed = 1;
nodes = (
"360 152 OFFCURVE",
"425 189 OFFCURVE",
"484 251 CURVE",
"484 366 LINE",
"427 292 OFFCURVE",
"363 248 OFFCURVE",
"303 248 CURVE SMOOTH",
"258 248 OFFCURVE",
"242 272 OFFCURVE",
"242 354 CURVE SMOOTH",
"242 566 LINE",
"110 566 LINE",
"110 362 LINE SMOOTH",
"110 236 OFFCURVE",
"188 152 OFFCURVE",
"291 152 CURVE SMOOTH"
);
},
{
closed = 1;
nodes = (
"440 0 LINE",
"572 0 LINE",
"572 558 LINE",
"968 558 LINE",
"968 638 LINE",
"-22 638 LINE",
"-22 558 LINE",
"440 558 LINE"
);
},
{
closed = 1;
nodes = (
"776 83 LINE",
"870 163 OFFCURVE",
"903 220 OFFCURVE",
"903 289 CURVE SMOOTH",
"903 400 OFFCURVE",
"819 479 OFFCURVE",
"717 479 CURVE SMOOTH",
"644 479 OFFCURVE",
"582 438 OFFCURVE",
"528 345 CURVE",
"528 213 LINE",
"577 317 OFFCURVE",
"643 380 OFFCURVE",
"703 380 CURVE SMOOTH",
"749 380 OFFCURVE",
"778 345 OFFCURVE",
"778 289 CURVE SMOOTH",
"778 241 OFFCURVE",
"756 208 OFFCURVE",
"691 154 CURVE"
);
}
);
width = 946;
}
);
unicode = 092B;
},
{
glyphname = "ba-deva";
lastChange = "2015-05-28 17:59:49 +0000";
layers = (
{
layerId = UUID0;
name = Regular;
paths = (
{
closed = 1;
nodes = (
"440 0 LINE",
"528 0 LINE",
"528 580 LINE",
"682 580 LINE",
"682 638 LINE",
"-22 638 LINE",
"-22 580 LINE",
"440 580 LINE"
);
},
{
closed = 1;
nodes = (
"397 181 LINE",
"440 218 LINE",
"209 405 LINE",
"170 368 LINE"
);
},
{
closed = 1;
nodes = (
"331 86 OFFCURVE",
"405 134 OFFCURVE",
"462 220 CURVE",
"462 326 LINE",
"398 217 OFFCURVE",
"321 157 OFFCURVE",
"252 157 CURVE SMOOTH",
"187 157 OFFCURVE",
"146 207 OFFCURVE",
"146 280 CURVE SMOOTH",
"146 357 OFFCURVE",
"193 407 OFFCURVE",
"275 407 CURVE SMOOTH",
"295 407 OFFCURVE",
"318 404 OFFCURVE",
"343 396 CURVE",
"343 463 LINE",
"315 474 OFFCURVE",
"288 477 OFFCURVE",
"266 477 CURVE SMOOTH",
"150 477 OFFCURVE",
"65 394 OFFCURVE",
"65 286 CURVE SMOOTH",
"65 177 OFFCURVE",
"153 86 OFFCURVE",
"256 86 CURVE SMOOTH"
);
}
);
width = 660;
},
{
layerId = "CD42366C-28E1-4C24-AB95-7D2C522D2B07";
name = Bold;
paths = (
{
closed = 1;
nodes = (
"418 0 LINE",
"550 0 LINE",
"550 558 LINE",
"682 558 LINE",
"682 638 LINE",
"-22 638 LINE",
"-22 558 LINE",
"418 558 LINE"
);
},
{
closed = 1;
nodes = (
"375 181 LINE",
"440 218 LINE",
"209 405 LINE",
"148 368 LINE"
);
},
{
closed = 1;
nodes = (
"330 86 OFFCURVE",
"405 134 OFFCURVE",
"462 220 CURVE",
"462 348 LINE",
"398 236 OFFCURVE",
"320 176 OFFCURVE",
"254 176 CURVE SMOOTH",
"199 176 OFFCURVE",
"168 217 OFFCURVE",
"168 280 CURVE SMOOTH",
"168 350 OFFCURVE",
"207 396 OFFCURVE",
"275 396 CURVE SMOOTH",
"301 396 OFFCURVE",
"332 396 OFFCURVE",
"365 385 CURVE",
"365 470 LINE",
"329 483 OFFCURVE",
"295 488 OFFCURVE",
"265 488 CURVE SMOOTH",
"138 488 OFFCURVE",
"43 400 OFFCURVE",
"43 287 CURVE SMOOTH",
"43 177 OFFCURVE",
"134 86 OFFCURVE",
"248 86 CURVE SMOOTH"
);
}
);
width = 660;
}
);
unicode = 092C;
},
{
glyphname = "bha-deva";
lastChange = "2015-05-28 17:59:49 +0000";
layers = (
{
layerId = UUID0;
name = Regular;
paths = (
{
closed = 1;
nodes = (
"166 261 LINE",
"242 261 LINE",
"242 530 LINE SMOOTH",
"242 603 OFFCURVE",
"212 638 OFFCURVE",
"150 638 CURVE SMOOTH",
"-22 638 LINE",
"-22 580 LINE",
"116 580 LINE SMOOTH",
"158 580 OFFCURVE",
"166 570 OFFCURVE",
"166 514 CURVE SMOOTH"
);
},
{
closed = 1;
nodes = (
"191 105 LINE",
"242 105 LINE",
"242 234 LINE",
"534 234 LINE",
"534 304 LINE",
"104 304 LINE",
"90 294 OFFCURVE",
"75 262 OFFCURVE",
"72 238 CURVE"
);
},
{
closed = 1;
nodes = (
"484 0 LINE",
"572 0 LINE",
"572 580 LINE",
"726 580 LINE",
"726 638 LINE",
"440 638 LINE",
"440 580 LINE",
"484 580 LINE"
);
}
);
width = 704;
},
{
layerId = "CD42366C-28E1-4C24-AB95-7D2C522D2B07";
name = Bold;
paths = (
{
closed = 1;
nodes = (
"144 272 LINE",
"264 272 LINE",
"264 530 LINE SMOOTH",
"264 603 OFFCURVE",
"227 638 OFFCURVE",
"150 638 CURVE SMOOTH",
"-22 638 LINE",
"-22 558 LINE",
"112 558 LINE SMOOTH",
"135 558 OFFCURVE",
"144 551 OFFCURVE",
"144 514 CURVE SMOOTH"
);
},
{
closed = 1;
nodes = (
"462 0 LINE",
"594 0 LINE",
"594 558 LINE",
"726 558 LINE",
"726 638 LINE",
"418 638 LINE",
"418 558 LINE",
"462 558 LINE"
);
},
{
closed = 1;
nodes = (
"191 81 LINE",
"264 81 LINE",
"264 234 LINE",
"534 234 LINE",
"534 326 LINE",
"93 326 LINE",
"71 313 OFFCURVE",
"54 267 OFFCURVE",
"50 238 CURVE"
);
}
);
width = 704;
}
);
unicode = 092D;
},
{
glyphname = "ma-deva";
lastChange = "2015-05-28 17:59:49 +0000";
layers = (
{
layerId = UUID0;
name = Regular;
paths = (
{
closed = 1;
nodes = (
"191 103 LINE",
"242 103 LINE",
"242 234 LINE",
"534 234 LINE",
"534 304 LINE",
"104 304 LINE",
"89 294 OFFCURVE",
"75 260 OFFCURVE",
"72 238 CURVE"
);
},
{
closed = 1;
nodes = (
"484 0 LINE",
"572 0 LINE",
"572 580 LINE",
"726 580 LINE",
"726 638 LINE",
"-22 638 LINE",
"-22 580 LINE",
"484 580 LINE"
);
},
{
closed = 1;
nodes = (
"166 261 LINE",
"242 261 LINE",
"242 588 LINE",
"166 588 LINE"
);
}
);
width = 704;
},
{
layerId = "CD42366C-28E1-4C24-AB95-7D2C522D2B07";
name = Bold;
paths = (
{
closed = 1;
nodes = (
"191 81 LINE",
"264 81 LINE",
"264 234 LINE",
"534 234 LINE",
"534 326 LINE",
"93 326 LINE",
"71 313 OFFCURVE",
"54 267 OFFCURVE",
"50 238 CURVE"
);
},
{
closed = 1;
nodes = (
"462 0 LINE",
"594 0 LINE",
"594 558 LINE",
"726 558 LINE",
"726 638 LINE",
"-22 638 LINE",
"-22 558 LINE",
"462 558 LINE"
);
},
{
closed = 1;
nodes = (
"144 261 LINE",
"264 261 LINE",
"264 566 LINE",
"144 566 LINE"
);
}
);
width = 704;
}
);
unicode = 092E;
},
{
glyphname = "ya-deva";
lastChange = "2015-05-28 17:59:49 +0000";
layers = (
{
layerId = UUID0;
name = Regular;
paths = (
{
closed = 1;
nodes = (
"341 135 OFFCURVE",
"397 155 OFFCURVE",
"462 200 CURVE",
"462 304 LINE",
"407 244 OFFCURVE",
"343 212 OFFCURVE",
"279 212 CURVE SMOOTH",
"204 212 OFFCURVE",
"143 256 OFFCURVE",
"143 311 CURVE",
"237 319 OFFCURVE",
"303 372 OFFCURVE",
"303 442 CURVE SMOOTH",
"303 500 OFFCURVE",
"262 582 OFFCURVE",
"218 612 CURVE",
"148 590 LINE",
"193 552 OFFCURVE",
"220 502 OFFCURVE",
"220 457 CURVE SMOOTH",
"220 398 OFFCURVE",
"171 369 OFFCURVE",
"65 366 CURVE",
"72 223 OFFCURVE",
"155 135 OFFCURVE",
"282 135 CURVE SMOOTH"
);
},
{
closed = 1;
nodes = (
"440 0 LINE",
"528 0 LINE",
"528 580 LINE",
"682 580 LINE",
"682 638 LINE",
"-22 638 LINE",
"-22 580 LINE",
"440 580 LINE"
);
}
);
width = 660;
},
{
layerId = "CD42366C-28E1-4C24-AB95-7D2C522D2B07";
name = Bold;
paths = (
{
closed = 1;
nodes = (
"334 135 OFFCURVE",
"383 148 OFFCURVE",
"440 178 CURVE",
"440 304 LINE",
"392 259 OFFCURVE",
"335 234 OFFCURVE",
"278 234 CURVE SMOOTH",
"216 234 OFFCURVE",
"165 263 OFFCURVE",
"165 300 CURVE",
"260 309 OFFCURVE",
"325 362 OFFCURVE",
"325 430 CURVE SMOOTH",
"325 484 OFFCURVE",
"284 562 OFFCURVE",
"240 590 CURVE",
"126 568 LINE",
"168 536 OFFCURVE",
"198 488 OFFCURVE",
"198 450 CURVE SMOOTH",
"198 400 OFFCURVE",
"148 378 OFFCURVE",
"43 377 CURVE",
"50 227 OFFCURVE",
"142 135 OFFCURVE",
"282 135 CURVE SMOOTH"
);
},
{
closed = 1;
nodes = (
"418 0 LINE",
"550 0 LINE",
"550 558 LINE",
"682 558 LINE",
"682 638 LINE",
"-22 638 LINE",
"-22 558 LINE",
"418 558 LINE"
);
}
);
width = 660;
}
);
unicode = 092F;
},
{
glyphname = "ra-deva";
lastChange = "2015-05-28 17:59:49 +0000";
layers = (
{
layerId = UUID0;
name = Regular;
paths = (
{
closed = 1;
nodes = (
"327 -7 LINE",
"391 46 LINE",
"176 287 LINE",
"182 260 LINE",
"305 265 OFFCURVE",
"396 346 OFFCURVE",
"396 450 CURVE SMOOTH",
"396 499 OFFCURVE",
"376 546 OFFCURVE",
"342 580 CURVE",
"484 580 LINE",
"484 638 LINE",
"-22 638 LINE",
"-22 580 LINE",
"266 580 LINE",
"300 542 OFFCURVE",
"318 506 OFFCURVE",
"318 461 CURVE SMOOTH",
"318 380 OFFCURVE",
"261 332 OFFCURVE",
"173 321 CURVE",
"203 309 LINE",
"130 425 LINE",
"94 425 OFFCURVE",
"66 392 OFFCURVE",
"66 350 CURVE SMOOTH",
"66 322 OFFCURVE",
"81 296 OFFCURVE",
"110 261 CURVE SMOOTH"
);
}
);
width = 462;
},
{
layerId = "CD42366C-28E1-4C24-AB95-7D2C522D2B07";
name = Bold;
paths = (
{
closed = 1;
nodes = (
"338 -51 LINE",
"435 46 LINE",
"220 287 LINE",
"182 238 LINE",
"318 244 OFFCURVE",
"418 334 OFFCURVE",
"418 450 CURVE SMOOTH",
"418 491 OFFCURVE",
"398 530 OFFCURVE",
"364 558 CURVE",
"484 558 LINE",
"484 638 LINE",
"-22 638 LINE",
"-22 558 LINE",
"244 558 LINE",
"278 527 OFFCURVE",
"296 498 OFFCURVE",
"296 461 CURVE SMOOTH",
"296 393 OFFCURVE",
"248 352 OFFCURVE",
"173 343 CURVE",
"214 331 LINE",
"141 447 LINE",
"87 447 OFFCURVE",
"44 404 OFFCURVE",
"44 350 CURVE SMOOTH",
"44 322 OFFCURVE",
"59 296 OFFCURVE",
"88 261 CURVE SMOOTH"
);
}
);
width = 462;
}
);
unicode = 0930;
},
{
glyphname = "rra-deva";
lastChange = "2015-05-28 17:59:49 +0000";
layers = (
{
components = (
{
name = "ra-deva";
}
);
layerId = UUID0;
name = Regular;
paths = (
{
closed = 1;
nodes = (
"126 -4 OFFCURVE",
"157 24 OFFCURVE",
"165 56 CURVE",
"157 88 OFFCURVE",
"126 116 OFFCURVE",
"99 124 CURVE",
"72 116 OFFCURVE",
"41 88 OFFCURVE",
"33 56 CURVE",
"41 24 OFFCURVE",
"72 -4 OFFCURVE",
"99 -12 CURVE"
);
}
);
width = 462;
},
{
components = (
{
name = "ra-deva";
}
);
layerId = "CD42366C-28E1-4C24-AB95-7D2C522D2B07";
name = Bold;
paths = (
{
closed = 1;
nodes = (
"152 -15 OFFCURVE",
"189 18 OFFCURVE",
"198 55 CURVE",
"189 92 OFFCURVE",
"152 125 OFFCURVE",
"121 134 CURVE",
"89 125 OFFCURVE",
"53 92 OFFCURVE",
"44 55 CURVE",
"53 18 OFFCURVE",
"89 -15 OFFCURVE",
"121 -24 CURVE"
);
}
);
width = 462;
}
);
unicode = 0931;
},
{
glyphname = "la-deva";
lastChange = "2015-05-28 17:59:49 +0000";
layers = (
{
layerId = UUID0;
name = Regular;
paths = (
{
closed = 1;
nodes = (
"240 34 LINE",
"173 129 OFFCURVE",
"145 198 OFFCURVE",
"145 270 CURVE SMOOTH",
"145 335 OFFCURVE",
"168 367 OFFCURVE",
"214 367 CURVE SMOOTH",
"265 367 OFFCURVE",
"314 328 OFFCURVE",
"370 245 CURVE",
"397 304 LINE",
"316 414 OFFCURVE",
"275 443 OFFCURVE",
"208 443 CURVE SMOOTH",
"115 443 OFFCURVE",
"65 386 OFFCURVE",
"65 284 CURVE SMOOTH",
"65 200 OFFCURVE",
"99 122 OFFCURVE",
"188 0 CURVE"
);
},
{
closed = 1;
nodes = (
"326 144 LINE",
"403 144 LINE",
"403 188 LINE SMOOTH",
"403 324 OFFCURVE",
"424 364 OFFCURVE",
"494 364 CURVE SMOOTH",
"523 364 OFFCURVE",
"544 357 OFFCURVE",
"594 331 CURVE",
"594 399 LINE",
"542 424 OFFCURVE",
"511 433 OFFCURVE",
"476 433 CURVE SMOOTH",
"375 433 OFFCURVE",
"326 356 OFFCURVE",
"326 195 CURVE SMOOTH"
);
},
{
closed = 1;
nodes = (
"572 0 LINE",
"660 0 LINE",
"660 580 LINE",
"814 580 LINE",
"814 638 LINE",
"-22 638 LINE",
"-22 580 LINE",
"572 580 LINE"
);
}
);
width = 792;
},
{
layerId = "CD42366C-28E1-4C24-AB95-7D2C522D2B07";
name = Bold;
paths = (
{
closed = 1;
nodes = (
"262 34 LINE",
"195 129 OFFCURVE",
"167 197 OFFCURVE",
"167 273 CURVE SMOOTH",
"167 331 OFFCURVE",
"183 356 OFFCURVE",
"218 356 CURVE SMOOTH",
"263 356 OFFCURVE",
"316 316 OFFCURVE",
"370 234 CURVE",
"397 315 LINE",
"316 425 OFFCURVE",
"276 454 OFFCURVE",
"205 454 CURVE SMOOTH",
"102 454 OFFCURVE",
"43 393 OFFCURVE",
"43 284 CURVE SMOOTH",
"43 200 OFFCURVE",
"77 122 OFFCURVE",
"166 0 CURVE"
);
},
{
closed = 1;
nodes = (
"304 144 LINE",
"425 144 LINE",
"425 188 LINE SMOOTH",
"425 317 OFFCURVE",
"441 353 OFFCURVE",
"496 353 CURVE SMOOTH",
"522 353 OFFCURVE",
"544 345 OFFCURVE",
"594 320 CURVE",
"594 410 LINE",
"542 435 OFFCURVE",
"512 444 OFFCURVE",
"474 444 CURVE SMOOTH",
"360 444 OFFCURVE",
"304 362 OFFCURVE",
"304 195 CURVE SMOOTH"
);
},
{
closed = 1;
nodes = (
"550 0 LINE",
"682 0 LINE",
"682 558 LINE",
"814 558 LINE",
"814 638 LINE",
"-22 638 LINE",
"-22 558 LINE",
"550 558 LINE"
);
}
);
width = 792;
}
);
unicode = 0932;
},
{
glyphname = "lla-deva";
lastChange = "2015-05-28 17:59:49 +0000";
layers = (
{
layerId = UUID0;
name = Regular;
paths = (
{
closed = 1;
nodes = (
"340 58 OFFCURVE",
"400 108 OFFCURVE",
"422 202 CURVE SMOOTH",
"448 313 LINE SMOOTH",
"462 373 OFFCURVE",
"499 397 OFFCURVE",
"554 397 CURVE SMOOTH",
"619 397 OFFCURVE",
"646 365 OFFCURVE",
"646 289 CURVE SMOOTH",
"646 189 OFFCURVE",
"598 121 OFFCURVE",
"528 121 CURVE SMOOTH",
"486 121 OFFCURVE",
"430 146 OFFCURVE",
"396 179 CURVE",
"375 130 LINE",
"432 80 OFFCURVE",
"481 58 OFFCURVE",
"538 58 CURVE SMOOTH",
"650 58 OFFCURVE",
"726 143 OFFCURVE",
"726 270 CURVE SMOOTH",
"726 394 OFFCURVE",
"660 462 OFFCURVE",
"541 462 CURVE SMOOTH",
"443 462 OFFCURVE",
"393 416 OFFCURVE",
"373 331 CURVE SMOOTH",
"347 220 LINE SMOOTH",
"331 152 OFFCURVE",
"297 125 OFFCURVE",
"242 125 CURVE SMOOTH",
"177 125 OFFCURVE",
"146 163 OFFCURVE",
"146 241 CURVE SMOOTH",
"146 337 OFFCURVE",
"192 399 OFFCURVE",
"263 399 CURVE SMOOTH",
"309 399 OFFCURVE",
"365 372 OFFCURVE",
"395 335 CURVE",
"421 384 LINE",
"376 438 OFFCURVE",
"322 464 OFFCURVE",
"255 464 CURVE SMOOTH",
"139 464 OFFCURVE",
"66 388 OFFCURVE",
"66 266 CURVE SMOOTH",
"66 140 OFFCURVE",
"139 58 OFFCURVE",
"251 58 CURVE SMOOTH"
);
},
{
closed = 1;
nodes = (
"506 426 LINE",
"594 426 LINE",
"594 580 LINE",
"814 580 LINE",
"814 638 LINE",
"-22 638 LINE",
"-22 580 LINE",
"506 580 LINE"
);
}
);
width = 792;
},
{
layerId = "CD42366C-28E1-4C24-AB95-7D2C522D2B07";
name = Bold;
paths = (
{
closed = 1;
nodes = (
"347 58 OFFCURVE",
"411 111 OFFCURVE",
"433 202 CURVE SMOOTH",
"460 313 LINE SMOOTH",
"471 356 OFFCURVE",
"504 375 OFFCURVE",
"551 375 CURVE SMOOTH",
"603 375 OFFCURVE",
"624 352 OFFCURVE",
"624 288 CURVE SMOOTH",
"624 203 OFFCURVE",
"586 143 OFFCURVE",
"526 143 CURVE SMOOTH",
"487 143 OFFCURVE",
"430 169 OFFCURVE",
"396 201 CURVE",
"364 130 LINE",
"425 80 OFFCURVE",
"478 58 OFFCURVE",
"537 58 CURVE SMOOTH",
"651 58 OFFCURVE",
"726 142 OFFCURVE",
"726 272 CURVE SMOOTH",
"726 394 OFFCURVE",
"660 462 OFFCURVE",
"539 462 CURVE SMOOTH",
"444 462 OFFCURVE",
"383 420 OFFCURVE",
"362 331 CURVE SMOOTH",
"336 220 LINE SMOOTH",
"323 165 OFFCURVE",
"284 147 OFFCURVE",
"244 147 CURVE SMOOTH",
"192 147 OFFCURVE",
"168 176 OFFCURVE",
"168 242 CURVE SMOOTH",
"168 325 OFFCURVE",
"205 377 OFFCURVE",
"265 377 CURVE SMOOTH",
"308 377 OFFCURVE",
"365 350 OFFCURVE",
"395 313 CURVE",
"432 384 LINE",
"384 438 OFFCURVE",
"325 464 OFFCURVE",
"256 464 CURVE SMOOTH",
"138 464 OFFCURVE",
"66 389 OFFCURVE",
"66 264 CURVE SMOOTH",
"66 139 OFFCURVE",
"139 58 OFFCURVE",
"254 58 CURVE SMOOTH"
);
},
{
closed = 1;
nodes = (
"484 426 LINE",
"616 426 LINE",
"616 558 LINE",
"814 558 LINE",
"814 638 LINE",
"-22 638 LINE",
"-22 558 LINE",
"484 558 LINE"
);
}
);
width = 792;
}
);
unicode = 0933;
},
{
glyphname = "va-deva";
lastChange = "2015-05-28 17:59:49 +0000";
layers = (
{
layerId = UUID0;
name = Regular;
paths = (
{
closed = 1;
nodes = (
"440 0 LINE",
"528 0 LINE",
"528 580 LINE",
"682 580 LINE",
"682 638 LINE",
"-22 638 LINE",
"-22 580 LINE",
"440 580 LINE"
);
},
{
closed = 1;
nodes = (
"331 86 OFFCURVE",
"405 134 OFFCURVE",
"462 220 CURVE",
"462 330 LINE",
"400 222 OFFCURVE",
"324 161 OFFCURVE",
"251 161 CURVE SMOOTH",
"188 161 OFFCURVE",
"146 207 OFFCURVE",
"146 278 CURVE SMOOTH",
"146 354 OFFCURVE",
"194 401 OFFCURVE",
"274 401 CURVE SMOOTH",
"297 401 OFFCURVE",
"317 397 OFFCURVE",
"343 386 CURVE",
"343 461 LINE",
"319 471 OFFCURVE",
"292 477 OFFCURVE",
"263 477 CURVE SMOOTH",
"154 477 OFFCURVE",
"65 394 OFFCURVE",
"65 285 CURVE SMOOTH",
"65 177 OFFCURVE",
"153 86 OFFCURVE",
"256 86 CURVE SMOOTH"
);
}
);
width = 660;
},
{
layerId = "CD42366C-28E1-4C24-AB95-7D2C522D2B07";
name = Bold;
paths = (
{
closed = 1;
nodes = (
"418 0 LINE",
"550 0 LINE",
"550 558 LINE",
"682 558 LINE",
"682 638 LINE",
"-22 638 LINE",
"-22 558 LINE",
"418 558 LINE"
);
},
{
closed = 1;
nodes = (
"333 86 OFFCURVE",
"406 136 OFFCURVE",
"462 220 CURVE",
"462 352 LINE",
"398 243 OFFCURVE",
"322 183 OFFCURVE",
"253 183 CURVE SMOOTH",
"199 183 OFFCURVE",
"168 219 OFFCURVE",
"168 276 CURVE SMOOTH",
"168 341 OFFCURVE",
"208 379 OFFCURVE",
"274 379 CURVE SMOOTH",
"296 379 OFFCURVE",
"313 375 OFFCURVE",
"343 364 CURVE",
"343 460 LINE",
"313 472 OFFCURVE",
"290 477 OFFCURVE",
"260 477 CURVE SMOOTH",
"137 477 OFFCURVE",
"43 393 OFFCURVE",
"43 286 CURVE SMOOTH",
"43 178 OFFCURVE",
"140 86 OFFCURVE",
"251 86 CURVE SMOOTH"
);
}
);
width = 660;
}
);
unicode = 0935;
},
{
glyphname = "sha-deva";
lastChange = "2015-05-28 17:59:49 +0000";
layers = (
{
layerId = UUID0;
name = Regular;
paths = (
{
closed = 1;
nodes = (
"378 12 LINE",
"426 71 LINE",
"194 203 LINE",
"212 182 LINE",
"352 219 OFFCURVE",
"449 331 OFFCURVE",
"449 454 CURVE SMOOTH",
"449 570 OFFCURVE",
"368 651 OFFCURVE",
"253 651 CURVE SMOOTH",
"149 651 OFFCURVE",
"70 587 OFFCURVE",
"70 502 CURVE SMOOTH",
"70 427 OFFCURVE",
"131 384 OFFCURVE",
"238 383 CURVE",
"257 441 LINE",
"185 442 OFFCURVE",
"148 463 OFFCURVE",
"148 503 CURVE SMOOTH",
"148 548 OFFCURVE",
"198 586 OFFCURVE",
"257 586 CURVE SMOOTH",
"327 586 OFFCURVE",
"376 532 OFFCURVE",
"376 455 CURVE SMOOTH",
"376 353 OFFCURVE",
"282 255 OFFCURVE",
"161 231 CURVE",
"187 215 LINE",
"109 301 LINE",
"82 299 OFFCURVE",
"63 279 OFFCURVE",
"63 253 CURVE SMOOTH",
"63 224 OFFCURVE",
"83 201 OFFCURVE",
"140 165 CURVE SMOOTH"
);
},
{
closed = 1;
nodes = (
"594 0 LINE",
"682 0 LINE",
"682 580 LINE",
"836 580 LINE",
"836 638 LINE",
"484 638 LINE",
"484 580 LINE",
"594 580 LINE"
);
}
);
width = 814;
},
{
layerId = "CD42366C-28E1-4C24-AB95-7D2C522D2B07";
name = Bold;
paths = (
{
closed = 1;
nodes = (
"374 0 LINE",
"437 82 LINE",
"216 203 LINE",
"234 182 LINE",
"374 219 OFFCURVE",
"471 331 OFFCURVE",
"471 454 CURVE SMOOTH",
"471 570 OFFCURVE",
"381 651 OFFCURVE",
"253 651 CURVE SMOOTH",
"136 651 OFFCURVE",
"48 587 OFFCURVE",
"48 502 CURVE SMOOTH",
"48 413 OFFCURVE",
"125 362 OFFCURVE",
"260 361 CURVE",
"279 441 LINE",
"207 442 OFFCURVE",
"170 463 OFFCURVE",
"170 503 CURVE SMOOTH",
"170 536 OFFCURVE",
"198 564 OFFCURVE",
"253 564 CURVE SMOOTH",
"314 564 OFFCURVE",
"354 519 OFFCURVE",
"354 455 CURVE SMOOTH",
"354 363 OFFCURVE",
"270 275 OFFCURVE",
"161 253 CURVE",
"187 237 LINE",
"109 323 LINE",
"69 320 OFFCURVE",
"41 291 OFFCURVE",
"41 253 CURVE SMOOTH",
"41 224 OFFCURVE",
"61 202 OFFCURVE",
"118 165 CURVE SMOOTH"
);
},
{
closed = 1;
nodes = (
"572 0 LINE",
"704 0 LINE",
"704 558 LINE",
"836 558 LINE",
"836 638 LINE",
"484 638 LINE",
"484 558 LINE",
"572 558 LINE"
);
}
);
width = 814;
}
);
unicode = 0936;
},
{
glyphname = "ssa-deva";
lastChange = "2015-05-28 17:59:49 +0000";
layers = (
{
layerId = UUID0;
name = Regular;
paths = (
{
closed = 1;
nodes = (
"356 157 OFFCURVE",
"427 191 OFFCURVE",
"484 245 CURVE",
"484 351 LINE",
"423 277 OFFCURVE",
"354 233 OFFCURVE",
"294 233 CURVE SMOOTH",
"238 233 OFFCURVE",
"216 262 OFFCURVE",
"216 354 CURVE SMOOTH",
"216 588 LINE",
"132 588 LINE",
"132 362 LINE SMOOTH",
"132 242 OFFCURVE",
"198 157 OFFCURVE",
"298 157 CURVE SMOOTH"
);
},
{
closed = 1;
nodes = (
"462 0 LINE",
"550 0 LINE",
"550 580 LINE",
"704 580 LINE",
"704 638 LINE",
"-22 638 LINE",
"-22 580 LINE",
"462 580 LINE"
);
},
{
closed = 1;
nodes = (
"178 562 LINE",
"445 265 LINE",
"485 307 LINE",
"218 604 LINE"
);
}
);
width = 682;
},
{
layerId = "CD42366C-28E1-4C24-AB95-7D2C522D2B07";
name = Bold;
paths = (
{
closed = 1;
nodes = (
"440 0 LINE",
"572 0 LINE",
"572 558 LINE",
"704 558 LINE",
"704 638 LINE",
"-22 638 LINE",
"-22 558 LINE",
"440 558 LINE"
);
},
{
closed = 1;
nodes = (
"167 562 LINE",
"434 265 LINE",
"496 307 LINE",
"229 604 LINE"
);
},
{
closed = 1;
nodes = (
"362 146 OFFCURVE",
"413 172 OFFCURVE",
"462 212 CURVE",
"462 344 LINE",
"414 282 OFFCURVE",
"361 244 OFFCURVE",
"302 244 CURVE SMOOTH",
"257 244 OFFCURVE",
"242 266 OFFCURVE",
"242 336 CURVE SMOOTH",
"242 577 LINE",
"110 577 LINE",
"110 362 LINE SMOOTH",
"110 234 OFFCURVE",
"194 146 OFFCURVE",
"303 146 CURVE SMOOTH"
);
}
);
width = 682;
}
);
unicode = 0937;
},
{
glyphname = "sa-deva";
lastChange = "2015-05-28 17:59:49 +0000";
layers = (
{
layerId = UUID0;
name = Regular;
paths = (
{
closed = 1;
nodes = (
"307 -7 LINE",
"365 42 LINE",
"170 283 LINE",
"178 260 LINE",
"271 265 OFFCURVE",
"338 346 OFFCURVE",
"338 453 CURVE SMOOTH",
"338 496 OFFCURVE",
"329 544 OFFCURVE",
"316 580 CURVE",
"550 580 LINE",
"550 0 LINE",
"638 0 LINE",
"638 580 LINE",
"792 580 LINE",
"792 638 LINE",
"-22 638 LINE",
"-22 580 LINE",
"244 580 LINE",
"257 540 OFFCURVE",
"264 503 OFFCURVE",
"264 463 CURVE SMOOTH",
"264 384 OFFCURVE",
"232 333 OFFCURVE",
"173 321 CURVE",
"186 309 LINE",
"130 411 LINE",
"96 411 OFFCURVE",
"67 385 OFFCURVE",
"67 353 CURVE SMOOTH",
"67 327 OFFCURVE",
"85 295 OFFCURVE",
"110 261 CURVE SMOOTH"
);
},
{
closed = 1;
nodes = (
"179 255 LINE",
"593 255 LINE",
"593 318 LINE",
"179 318 LINE"
);
}
);
width = 770;
},
{
layerId = "CD42366C-28E1-4C24-AB95-7D2C522D2B07";
name = Bold;
paths = (
{
closed = 1;
nodes = (
"301 -29 LINE",
"387 42 LINE",
"192 283 LINE",
"200 260 LINE",
"293 265 OFFCURVE",
"360 346 OFFCURVE",
"360 453 CURVE SMOOTH",
"360 489 OFFCURVE",
"351 528 OFFCURVE",
"338 558 CURVE",
"528 558 LINE",
"528 0 LINE",
"660 0 LINE",
"660 558 LINE",
"792 558 LINE",
"792 638 LINE",
"-22 638 LINE",
"-22 558 LINE",
"222 558 LINE",
"235 526 OFFCURVE",
"242 495 OFFCURVE",
"242 463 CURVE SMOOTH",
"242 384 OFFCURVE",
"210 333 OFFCURVE",
"151 321 CURVE",
"208 309 LINE",
"142 444 LINE",
"93 444 OFFCURVE",
"45 403 OFFCURVE",
"45 353 CURVE SMOOTH",
"45 327 OFFCURVE",
"63 295 OFFCURVE",
"88 261 CURVE SMOOTH"
);
},
{
closed = 1;
nodes = (
"201 244 LINE",
"593 244 LINE",
"593 329 LINE",
"179 329 LINE"
);
}
);
width = 770;
}
);
unicode = 0938;
},
{
glyphname = "ha-deva";
lastChange = "2015-05-28 17:59:49 +0000";
layers = (
{
layerId = UUID0;
name = Regular;
paths = (
{
closed = 1;
nodes = (
"362 -72 LINE",
"260 -33 OFFCURVE",
"156 8 OFFCURVE",
"156 112 CURVE SMOOTH",
"156 199 OFFCURVE",
"242 243 OFFCURVE",
"338 243 CURVE SMOOTH",
"393 243 OFFCURVE",
"444 222 OFFCURVE",
"444 173 CURVE SMOOTH",
"444 135 OFFCURVE",
"400 126 OFFCURVE",
"356 126 CURVE SMOOTH",
"342 126 OFFCURVE",
"328 127 OFFCURVE",
"315 128 CURVE",
"341 57 LINE",
"348 56 OFFCURVE",
"356 56 OFFCURVE",
"363 56 CURVE SMOOTH",
"446 56 OFFCURVE",
"528 87 OFFCURVE",
"528 161 CURVE SMOOTH",
"528 264 OFFCURVE",
"411 311 OFFCURVE",
"294 311 CURVE SMOOTH",
"175 311 OFFCURVE",
"66 237 OFFCURVE",
"66 125 CURVE SMOOTH",
"66 0 OFFCURVE",
"193 -70 OFFCURVE",
"317 -114 CURVE"
);
},
{
closed = 1;
nodes = (
"237 290 LINE",
"195 312 OFFCURVE",
"148 337 OFFCURVE",
"148 383 CURVE SMOOTH",
"148 412 OFFCURVE",
"185 419 OFFCURVE",
"219 419 CURVE SMOOTH",
"462 419 LINE",
"462 580 LINE",
"616 580 LINE",
"616 638 LINE",
"-22 638 LINE",
"-22 580 LINE",
"374 580 LINE",
"374 483 LINE",
"154 483 LINE SMOOTH",
"107 483 OFFCURVE",
"66 451 OFFCURVE",
"66 407 CURVE SMOOTH",
"66 321 OFFCURVE",
"142 261 OFFCURVE",
"226 233 CURVE"
);
}
);
width = 594;
},
{
layerId = "CD42366C-28E1-4C24-AB95-7D2C522D2B07";
name = Bold;
paths = (
{
closed = 1;
nodes = (
"384 -50 LINE",
"278 -15 OFFCURVE",
"178 21 OFFCURVE",
"178 113 CURVE SMOOTH",
"178 192 OFFCURVE",
"252 232 OFFCURVE",
"328 232 CURVE SMOOTH",
"379 232 OFFCURVE",
"422 214 OFFCURVE",
"422 172 CURVE SMOOTH",
"422 135 OFFCURVE",
"389 126 OFFCURVE",
"352 126 CURVE SMOOTH",
"340 126 OFFCURVE",
"320 127 OFFCURVE",
"304 128 CURVE",
"330 35 LINE",
"340 34 OFFCURVE",
"352 34 OFFCURVE",
"363 34 CURVE SMOOTH",
"456 34 OFFCURVE",
"550 70 OFFCURVE",
"550 162 CURVE SMOOTH",
"550 272 OFFCURVE",
"417 322 OFFCURVE",
"303 322 CURVE SMOOTH",
"161 322 OFFCURVE",
"44 244 OFFCURVE",
"44 127 CURVE SMOOTH",
"44 -1 OFFCURVE",
"182 -70 OFFCURVE",
"317 -114 CURVE"
);
},
{
closed = 1;
nodes = (
"259 290 LINE",
"219 306 OFFCURVE",
"170 326 OFFCURVE",
"170 360 CURVE SMOOTH",
"170 390 OFFCURVE",
"207 397 OFFCURVE",
"241 397 CURVE SMOOTH",
"484 397 LINE",
"484 558 LINE",
"616 558 LINE",
"616 638 LINE",
"-22 638 LINE",
"-22 558 LINE",
"352 558 LINE",
"352 483 LINE",
"132 483 LINE SMOOTH",
"93 483 OFFCURVE",
"44 461 OFFCURVE",
"44 401 CURVE SMOOTH",
"44 325 OFFCURVE",
"122 259 OFFCURVE",
"204 233 CURVE"
);
}
);
width = 594;
}
);
unicode = 0939;
},
{
glyphname = zero;
lastChange = "2015-05-28 17:59:49 +0000";
layers = (
{
layerId = UUID0;
name = Regular;
paths = (
{
closed = 1;
nodes = (
"479 -12 OFFCURVE",
"550 146 OFFCURVE",
"550 348 CURVE SMOOTH",
"550 550 OFFCURVE",
"479 708 OFFCURVE",
"297 708 CURVE SMOOTH",
"115 708 OFFCURVE",
"44 550 OFFCURVE",
"44 348 CURVE SMOOTH",
"44 146 OFFCURVE",
"115 -12 OFFCURVE",
"297 -12 CURVE SMOOTH"
);
},
{
closed = 1;
nodes = (
"166 68 OFFCURVE",
"139 196 OFFCURVE",
"139 348 CURVE SMOOTH",
"139 500 OFFCURVE",
"166 628 OFFCURVE",
"297 628 CURVE SMOOTH",
"428 628 OFFCURVE",
"455 500 OFFCURVE",
"455 348 CURVE SMOOTH",
"455 196 OFFCURVE",
"428 68 OFFCURVE",
"297 68 CURVE SMOOTH"
);
}
);
width = 594;
},
{
layerId = "CD42366C-28E1-4C24-AB95-7D2C522D2B07";
name = Bold;
paths = (
{
closed = 1;
nodes = (
"495 -12 OFFCURVE",
"572 146 OFFCURVE",
"572 348 CURVE SMOOTH",
"572 550 OFFCURVE",
"495 708 OFFCURVE",
"297 708 CURVE SMOOTH",
"99 708 OFFCURVE",
"22 550 OFFCURVE",
"22 348 CURVE SMOOTH",
"22 146 OFFCURVE",
"99 -12 OFFCURVE",
"297 -12 CURVE SMOOTH"
);
},
{
closed = 1;
nodes = (
"194 101 OFFCURVE",
"161 214 OFFCURVE",
"161 348 CURVE SMOOTH",
"161 482 OFFCURVE",
"194 595 OFFCURVE",
"297 595 CURVE SMOOTH",
"400 595 OFFCURVE",
"433 482 OFFCURVE",
"433 348 CURVE SMOOTH",
"433 214 OFFCURVE",
"400 101 OFFCURVE",
"297 101 CURVE SMOOTH"
);
}
);
width = 594;
}
);
unicode = 0030;
},
{
glyphname = one;
lastChange = "2015-05-28 17:59:49 +0000";
layers = (
{
layerId = UUID0;
name = Regular;
paths = (
{
closed = 1;
nodes = (
"374 58 LINE",
"374 649 LINE",
"286 649 LINE",
"286 58 LINE"
);
},
{
closed = 1;
nodes = (
"528 0 LINE",
"528 83 LINE",
"66 83 LINE",
"66 0 LINE"
);
},
{
closed = 1;
nodes = (
"374 592 LINE",
"374 696 LINE",
"308 696 LINE",
"110 572 LINE",
"110 568 LINE",
"128 506 LINE",
"132 506 LINE",
"308 592 LINE"
);
}
);
width = 594;
},
{
layerId = "CD42366C-28E1-4C24-AB95-7D2C522D2B07";
name = Bold;
paths = (
{
closed = 1;
nodes = (
"396 58 LINE",
"396 649 LINE",
"264 649 LINE",
"264 58 LINE"
);
},
{
closed = 1;
nodes = (
"550 0 LINE",
"550 116 LINE",
"44 116 LINE",
"44 0 LINE"
);
},
{
closed = 1;
nodes = (
"396 557 LINE",
"396 696 LINE",
"286 696 LINE",
"66 572 LINE",
"66 568 LINE",
"107 473 LINE",
"111 473 LINE",
"286 557 LINE"
);
}
);
width = 594;
}
);
unicode = 0031;
},
{
glyphname = two;
lastChange = "2015-05-28 17:59:49 +0000";
layers = (
{
layerId = UUID0;
name = Regular;
paths = (
{
closed = 1;
nodes = (
"66 67 LINE",
"175 67 LINE",
"406 306 LINE SMOOTH",
"472 374 OFFCURVE",
"507 447 OFFCURVE",
"507 518 CURVE SMOOTH",
"507 633 OFFCURVE",
"414 708 OFFCURVE",
"271 708 CURVE SMOOTH",
"204 708 OFFCURVE",
"144 692 OFFCURVE",
"88 659 CURVE",
"88 571 LINE",
"143 608 OFFCURVE",
"204 627 OFFCURVE",
"267 627 CURVE SMOOTH",
"361 627 OFFCURVE",
"416 583 OFFCURVE",
"416 506 CURVE SMOOTH",
"416 456 OFFCURVE",
"393 417 OFFCURVE",
"316 334 CURVE SMOOTH"
);
},
{
closed = 1;
nodes = (
"66 0 LINE",
"528 0 LINE",
"528 84 LINE",
"104 84 LINE",
"66 67 LINE"
);
}
);
width = 594;
},
{
layerId = "CD42366C-28E1-4C24-AB95-7D2C522D2B07";
name = Bold;
paths = (
{
closed = 1;
nodes = (
"44 100 LINE",
"217 100 LINE",
"426 306 LINE SMOOTH",
"501 380 OFFCURVE",
"529 449 OFFCURVE",
"529 513 CURVE SMOOTH",
"529 636 OFFCURVE",
"427 708 OFFCURVE",
"270 708 CURVE SMOOTH",
"196 708 OFFCURVE",
"129 692 OFFCURVE",
"66 659 CURVE",
"66 538 LINE",
"128 575 OFFCURVE",
"197 594 OFFCURVE",
"264 594 CURVE SMOOTH",
"347 594 OFFCURVE",
"394 565 OFFCURVE",
"394 502 CURVE SMOOTH",
"394 458 OFFCURVE",
"371 412 OFFCURVE",
"289 334 CURVE SMOOTH"
);
},
{
closed = 1;
nodes = (
"44 0 LINE",
"550 0 LINE",
"550 117 LINE",
"82 117 LINE",
"44 100 LINE"
);
}
);
width = 594;
}
);
unicode = 0032;
},
{
glyphname = three;
lastChange = "2015-05-28 17:59:49 +0000";
layers = (
{
layerId = UUID0;
name = Regular;
paths = (
{
closed = 1;
nodes = (
"421 -12 OFFCURVE",
"528 70 OFFCURVE",
"528 188 CURVE SMOOTH",
"528 303 OFFCURVE",
"427 383 OFFCURVE",
"283 383 CURVE SMOOTH",
"198 383 LINE",
"198 323 LINE",
"242 323 LINE SMOOTH",
"361 323 OFFCURVE",
"436 273 OFFCURVE",
"436 195 CURVE SMOOTH",
"436 120 OFFCURVE",
"368 69 OFFCURVE",
"266 69 CURVE SMOOTH",
"199 69 OFFCURVE",
"137 91 OFFCURVE",
"70 137 CURVE",
"66 137 LINE",
"66 45 LINE",
"132 6 OFFCURVE",
"195 -12 OFFCURVE",
"267 -12 CURVE SMOOTH"
);
},
{
closed = 1;
nodes = (
"198 341 LINE",
"285 341 LINE SMOOTH",
"418 341 OFFCURVE",
"512 418 OFFCURVE",
"512 527 CURVE SMOOTH",
"512 636 OFFCURVE",
"417 708 OFFCURVE",
"274 708 CURVE SMOOTH",
"208 708 OFFCURVE",
"149 693 OFFCURVE",
"87 659 CURVE",
"87 572 LINE",
"91 572 LINE",
"159 610 OFFCURVE",
"211 626 OFFCURVE",
"268 626 CURVE SMOOTH",
"362 626 OFFCURVE",
"422 583 OFFCURVE",
"422 514 CURVE SMOOTH",
"422 443 OFFCURVE",
"356 402 OFFCURVE",
"242 402 CURVE SMOOTH",
"198 402 LINE"
);
}
);
width = 594;
},
{
layerId = "CD42366C-28E1-4C24-AB95-7D2C522D2B07";
name = Bold;
paths = (
{
closed = 1;
nodes = (
"434 -12 OFFCURVE",
"550 68 OFFCURVE",
"550 191 CURVE SMOOTH",
"550 310 OFFCURVE",
"441 399 OFFCURVE",
"283 399 CURVE SMOOTH",
"198 399 LINE",
"198 308 LINE",
"242 308 LINE SMOOTH",
"349 308 OFFCURVE",
"414 262 OFFCURVE",
"414 198 CURVE SMOOTH",
"414 137 OFFCURVE",
"354 102 OFFCURVE",
"263 102 CURVE SMOOTH",
"192 102 OFFCURVE",
"123 124 OFFCURVE",
"48 174 CURVE",
"44 174 LINE",
"44 45 LINE",
"117 6 OFFCURVE",
"187 -12 OFFCURVE",
"267 -12 CURVE SMOOTH"
);
},
{
closed = 1;
nodes = (
"198 326 LINE",
"285 326 LINE SMOOTH",
"431 326 OFFCURVE",
"534 411 OFFCURVE",
"534 524 CURVE SMOOTH",
"534 638 OFFCURVE",
"430 708 OFFCURVE",
"273 708 CURVE SMOOTH",
"200 708 OFFCURVE",
"134 693 OFFCURVE",
"65 659 CURVE",
"65 535 LINE",
"69 535 LINE",
"145 576 OFFCURVE",
"205 593 OFFCURVE",
"267 593 CURVE SMOOTH",
"349 593 OFFCURVE",
"400 565 OFFCURVE",
"400 512 CURVE SMOOTH",
"400 454 OFFCURVE",
"341 418 OFFCURVE",
"242 418 CURVE SMOOTH",
"198 418 LINE"
);
}
);
width = 594;
}
);
unicode = 0033;
},
{
glyphname = four;
lastChange = "2015-05-28 17:59:49 +0000";
layers = (
{
layerId = UUID0;
name = Regular;
paths = (
{
closed = 1;
nodes = (
"462 0 LINE",
"462 696 LINE",
"374 696 LINE",
"374 0 LINE"
);
},
{
closed = 1;
nodes = (
"572 163 LINE",
"572 243 LINE",
"117 243 LINE",
"44 230 LINE",
"44 163 LINE"
);
},
{
closed = 1;
nodes = (
"44 233 LINE",
"121 211 LINE",
"435 665 LINE",
"374 696 LINE"
);
}
);
width = 594;
},
{
layerId = "CD42366C-28E1-4C24-AB95-7D2C522D2B07";
name = Bold;
paths = (
{
closed = 1;
nodes = (
"473 0 LINE",
"473 696 LINE",
"341 696 LINE",
"341 0 LINE"
);
},
{
closed = 1;
nodes = (
"572 152 LINE",
"572 265 LINE",
"117 265 LINE",
"22 255 LINE",
"22 152 LINE"
);
},
{
closed = 1;
nodes = (
"22 255 LINE",
"154 233 LINE",
"441 665 LINE",
"341 696 LINE"
);
}
);
width = 594;
}
);
unicode = 0034;
},
{
glyphname = five;
lastChange = "2015-05-28 17:59:49 +0000";
layers = (
{
layerId = UUID0;
name = Regular;
paths = (
{
closed = 1;
nodes = (
"428 -11 OFFCURVE",
"528 78 OFFCURVE",
"528 213 CURVE SMOOTH",
"528 341 OFFCURVE",
"438 437 OFFCURVE",
"313 437 CURVE SMOOTH",
"234 437 OFFCURVE",
"154 399 OFFCURVE",
"88 331 CURVE",
"153 304 LINE",
"157 304 LINE",
"200 339 OFFCURVE",
"248 357 OFFCURVE",
"295 357 CURVE SMOOTH",
"379 357 OFFCURVE",
"437 298 OFFCURVE",
"437 216 CURVE SMOOTH",
"437 128 OFFCURVE",
"371 69 OFFCURVE",
"276 69 CURVE SMOOTH",
"206 69 OFFCURVE",
"124 101 OFFCURVE",
"70 148 CURVE",
"66 148 LINE",
"66 53 LINE",
"123 12 OFFCURVE",
"200 -11 OFFCURVE",
"277 -11 CURVE SMOOTH"
);
},
{
closed = 1;
nodes = (
"88 331 LINE",
"168 331 LINE",
"212 696 LINE",
"132 696 LINE",
"88 336 LINE"
);
},
{
closed = 1;
nodes = (
"132 614 LINE",
"495 614 LINE",
"495 696 LINE",
"132 696 LINE"
);
}
);
width = 594;
},
{
layerId = "CD42366C-28E1-4C24-AB95-7D2C522D2B07";
name = Bold;
paths = (
{
closed = 1;
nodes = (
"441 -11 OFFCURVE",
"550 77 OFFCURVE",
"550 214 CURVE SMOOTH",
"550 340 OFFCURVE",
"458 437 OFFCURVE",
"321 437 CURVE SMOOTH",
"220 437 OFFCURVE",
"137 385 OFFCURVE",
"66 298 CURVE",
"153 271 LINE",
"157 271 LINE",
"200 306 OFFCURVE",
"248 324 OFFCURVE",
"294 324 CURVE SMOOTH",
"367 324 OFFCURVE",
"415 279 OFFCURVE",
"415 216 CURVE SMOOTH",
"415 148 OFFCURVE",
"359 102 OFFCURVE",
"273 102 CURVE SMOOTH",
"200 102 OFFCURVE",
"108 135 OFFCURVE",
"48 181 CURVE",
"44 181 LINE",
"44 53 LINE",
"107 12 OFFCURVE",
"192 -11 OFFCURVE",
"276 -11 CURVE SMOOTH"
);
},
{
closed = 1;
nodes = (
"66 298 LINE",
"190 298 LINE",
"234 696 LINE",
"111 696 LINE",
"66 303 LINE"
);
},
{
closed = 1;
nodes = (
"111 581 LINE",
"517 581 LINE",
"517 696 LINE",
"111 696 LINE"
);
}
);
width = 594;
}
);
unicode = 0035;
},
{
glyphname = six;
lastChange = "2015-05-28 17:59:49 +0000";
layers = (
{
layerId = UUID0;
name = Regular;
paths = (
{
closed = 1;
nodes = (
"447 -12 OFFCURVE",
"550 82 OFFCURVE",
"550 217 CURVE SMOOTH",
"550 345 OFFCURVE",
"458 429 OFFCURVE",
"318 429 CURVE SMOOTH",
"241 429 OFFCURVE",
"182 404 OFFCURVE",
"120 345 CURVE",
"120 273 LINE",
"184 323 OFFCURVE",
"248 349 OFFCURVE",
"309 349 CURVE SMOOTH",
"397 349 OFFCURVE",
"456 296 OFFCURVE",
"456 215 CURVE SMOOTH",
"456 130 OFFCURVE",
"390 67 OFFCURVE",
"302 67 CURVE SMOOTH",
"195 67 OFFCURVE",
"139 159 OFFCURVE",
"139 328 CURVE SMOOTH",
"139 520 OFFCURVE",
"211 629 OFFCURVE",
"341 629 CURVE SMOOTH",
"398 629 OFFCURVE",
"459 608 OFFCURVE",
"513 570 CURVE",
"517 570 LINE",
"517 658 LINE",
"463 690 OFFCURVE",
"399 708 OFFCURVE",
"335 708 CURVE SMOOTH",
"155 708 OFFCURVE",
"44 565 OFFCURVE",
"44 330 CURVE SMOOTH",
"44 114 OFFCURVE",
"138 -12 OFFCURVE",
"304 -12 CURVE SMOOTH"
);
}
);
width = 594;
},
{
layerId = "CD42366C-28E1-4C24-AB95-7D2C522D2B07";
name = Bold;
paths = (
{
closed = 1;
nodes = (
"460 -12 OFFCURVE",
"572 80 OFFCURVE",
"572 221 CURVE SMOOTH",
"572 354 OFFCURVE",
"471 447 OFFCURVE",
"318 447 CURVE SMOOTH",
"241 447 OFFCURVE",
"182 424 OFFCURVE",
"120 369 CURVE",
"120 264 LINE",
"182 309 OFFCURVE",
"249 334 OFFCURVE",
"306 334 CURVE SMOOTH",
"387 334 OFFCURVE",
"434 284 OFFCURVE",
"434 219 CURVE SMOOTH",
"434 148 OFFCURVE",
"377 100 OFFCURVE",
"303 100 CURVE SMOOTH",
"208 100 OFFCURVE",
"161 180 OFFCURVE",
"161 328 CURVE SMOOTH",
"161 499 OFFCURVE",
"223 596 OFFCURVE",
"344 596 CURVE SMOOTH",
"401 596 OFFCURVE",
"473 575 OFFCURVE",
"535 531 CURVE",
"539 531 LINE",
"539 652 LINE",
"478 688 OFFCURVE",
"407 708 OFFCURVE",
"335 708 CURVE SMOOTH",
"141 708 OFFCURVE",
"22 565 OFFCURVE",
"22 330 CURVE SMOOTH",
"22 115 OFFCURVE",
"123 -12 OFFCURVE",
"305 -12 CURVE SMOOTH"
);
}
);
width = 594;
}
);
unicode = 0036;
},
{
glyphname = seven;
lastChange = "2015-05-28 17:59:49 +0000";
layers = (
{
layerId = UUID0;
name = Regular;
paths = (
{
closed = 1;
nodes = (
"495 614 LINE",
"550 629 LINE",
"550 696 LINE",
"66 696 LINE",
"66 614 LINE"
);
},
{
closed = 1;
nodes = (
"143 0 LINE",
"244 0 LINE",
"550 629 LINE",
"476 659 LINE",
"143 4 LINE"
);
}
);
width = 594;
},
{
layerId = "CD42366C-28E1-4C24-AB95-7D2C522D2B07";
name = Bold;
paths = (
{
closed = 1;
nodes = (
"475 581 LINE",
"552 629 LINE",
"552 696 LINE",
"66 696 LINE",
"66 581 LINE"
);
},
{
closed = 1;
nodes = (
"143 0 LINE",
"266 0 LINE",
"552 629 LINE",
"434 659 LINE",
"121 4 LINE"
);
}
);
width = 594;
}
);
unicode = 0037;
},
{
glyphname = eight;
lastChange = "2015-05-28 17:59:49 +0000";
layers = (
{
layerId = UUID0;
name = Regular;
paths = (
{
closed = 1;
nodes = (
"444 -12 OFFCURVE",
"550 72 OFFCURVE",
"550 191 CURVE SMOOTH",
"550 265 OFFCURVE",
"509 332 OFFCURVE",
"434 358 CURVE",
"500 381 OFFCURVE",
"537 449 OFFCURVE",
"537 518 CURVE SMOOTH",
"537 633 OFFCURVE",
"436 708 OFFCURVE",
"297 708 CURVE SMOOTH",
"158 708 OFFCURVE",
"57 633 OFFCURVE",
"57 518 CURVE SMOOTH",
"57 445 OFFCURVE",
"97 379 OFFCURVE",
"159 358 CURVE",
"92 334 OFFCURVE",
"44 271 OFFCURVE",
"44 191 CURVE SMOOTH",
"44 73 OFFCURVE",
"150 -12 OFFCURVE",
"298 -12 CURVE SMOOTH"
);
},
{
closed = 1;
nodes = (
"193 66 OFFCURVE",
"136 111 OFFCURVE",
"136 191 CURVE SMOOTH",
"136 272 OFFCURVE",
"195 318 OFFCURVE",
"297 318 CURVE SMOOTH",
"399 318 OFFCURVE",
"458 272 OFFCURVE",
"458 191 CURVE SMOOTH",
"458 111 OFFCURVE",
"400 66 OFFCURVE",
"296 66 CURVE SMOOTH"
);
},
{
closed = 1;
nodes = (
"202 400 OFFCURVE",
"147 442 OFFCURVE",
"147 516 CURVE SMOOTH",
"147 590 OFFCURVE",
"201 631 OFFCURVE",
"297 631 CURVE SMOOTH",
"393 631 OFFCURVE",
"447 590 OFFCURVE",
"447 516 CURVE SMOOTH",
"447 442 OFFCURVE",
"393 400 OFFCURVE",
"298 400 CURVE SMOOTH"
);
}
);
width = 594;
},
{
layerId = "CD42366C-28E1-4C24-AB95-7D2C522D2B07";
name = Bold;
paths = (
{
closed = 1;
nodes = (
"458 -12 OFFCURVE",
"572 72 OFFCURVE",
"572 193 CURVE SMOOTH",
"572 265 OFFCURVE",
"531 332 OFFCURVE",
"456 358 CURVE",
"521 380 OFFCURVE",
"559 449 OFFCURVE",
"559 517 CURVE SMOOTH",
"559 633 OFFCURVE",
"450 708 OFFCURVE",
"297 708 CURVE SMOOTH",
"145 708 OFFCURVE",
"35 633 OFFCURVE",
"35 516 CURVE SMOOTH",
"35 447 OFFCURVE",
"74 379 OFFCURVE",
"137 358 CURVE",
"71 335 OFFCURVE",
"22 271 OFFCURVE",
"22 193 CURVE SMOOTH",
"22 73 OFFCURVE",
"136 -12 OFFCURVE",
"298 -12 CURVE SMOOTH"
);
},
{
closed = 1;
nodes = (
"208 99 OFFCURVE",
"158 136 OFFCURVE",
"158 201 CURVE SMOOTH",
"158 267 OFFCURVE",
"210 303 OFFCURVE",
"297 303 CURVE SMOOTH",
"386 303 OFFCURVE",
"436 266 OFFCURVE",
"436 201 CURVE SMOOTH",
"436 137 OFFCURVE",
"387 99 OFFCURVE",
"297 99 CURVE SMOOTH"
);
},
{
closed = 1;
nodes = (
"215 415 OFFCURVE",
"169 448 OFFCURVE",
"169 506 CURVE SMOOTH",
"169 564 OFFCURVE",
"214 598 OFFCURVE",
"297 598 CURVE SMOOTH",
"380 598 OFFCURVE",
"425 564 OFFCURVE",
"425 506 CURVE SMOOTH",
"425 447 OFFCURVE",
"378 415 OFFCURVE",
"297 415 CURVE SMOOTH"
);
}
);
width = 594;
}
);
unicode = 0038;
},
{
glyphname = nine;
lastChange = "2015-05-28 17:59:49 +0000";
layers = (
{
layerId = UUID0;
name = Regular;
paths = (
{
closed = 1;
nodes = (
"447 -12 OFFCURVE",
"550 118 OFFCURVE",
"550 365 CURVE SMOOTH",
"550 590 OFFCURVE",
"464 708 OFFCURVE",
"292 708 CURVE SMOOTH",
"142 708 OFFCURVE",
"44 618 OFFCURVE",
"44 479 CURVE SMOOTH",
"44 348 OFFCURVE",
"131 267 OFFCURVE",
"276 267 CURVE SMOOTH",
"354 267 OFFCURVE",
"417 291 OFFCURVE",
"474 344 CURVE",
"474 423 LINE",
"414 372 OFFCURVE",
"352 347 OFFCURVE",
"288 347 CURVE SMOOTH",
"195 347 OFFCURVE",
"138 398 OFFCURVE",
"138 483 CURVE SMOOTH",
"138 570 OFFCURVE",
"199 627 OFFCURVE",
"293 627 CURVE SMOOTH",
"405 627 OFFCURVE",
"455 546 OFFCURVE",
"455 364 CURVE SMOOTH",
"455 162 OFFCURVE",
"394 70 OFFCURVE",
"260 70 CURVE SMOOTH",
"196 70 OFFCURVE",
"135 91 OFFCURVE",
"81 132 CURVE",
"77 132 LINE",
"77 42 LINE",
"134 4 OFFCURVE",
"185 -12 OFFCURVE",
"253 -12 CURVE SMOOTH"
);
}
);
width = 594;
},
{
layerId = "CD42366C-28E1-4C24-AB95-7D2C522D2B07";
name = Bold;
paths = (
{
closed = 1;
nodes = (
"462 -12 OFFCURVE",
"572 118 OFFCURVE",
"572 364 CURVE SMOOTH",
"572 590 OFFCURVE",
"479 708 OFFCURVE",
"292 708 CURVE SMOOTH",
"129 708 OFFCURVE",
"22 619 OFFCURVE",
"22 476 CURVE SMOOTH",
"22 342 OFFCURVE",
"117 254 OFFCURVE",
"273 254 CURVE SMOOTH",
"355 254 OFFCURVE",
"417 278 OFFCURVE",
"474 331 CURVE",
"474 443 LINE",
"414 392 OFFCURVE",
"351 367 OFFCURVE",
"290 367 CURVE SMOOTH",
"209 367 OFFCURVE",
"160 411 OFFCURVE",
"160 480 CURVE SMOOTH",
"160 551 OFFCURVE",
"212 594 OFFCURVE",
"291 594 CURVE SMOOTH",
"390 594 OFFCURVE",
"433 525 OFFCURVE",
"433 363 CURVE SMOOTH",
"433 182 OFFCURVE",
"379 103 OFFCURVE",
"256 103 CURVE SMOOTH",
"192 103 OFFCURVE",
"119 124 OFFCURVE",
"59 165 CURVE",
"55 165 LINE",
"55 42 LINE",
"119 4 OFFCURVE",
"177 -12 OFFCURVE",
"251 -12 CURVE SMOOTH"
);
}
);
width = 594;
}
);
unicode = 0039;
},
{
glyphname = "zero-deva";
lastChange = "2015-05-28 17:59:49 +0000";
layers = (
{
layerId = UUID0;
name = Regular;
paths = (
{
closed = 1;
nodes = (
"66 161 OFFCURVE",
"158 68 OFFCURVE",
"297 68 CURVE SMOOTH",
"435 68 OFFCURVE",
"528 161 OFFCURVE",
"528 301 CURVE SMOOTH",
"528 441 OFFCURVE",
"435 535 OFFCURVE",
"297 535 CURVE SMOOTH",
"158 535 OFFCURVE",
"66 441 OFFCURVE",
"66 301 CURVE SMOOTH"
);
},
{
closed = 1;
nodes = (
"141 400 OFFCURVE",
"200 460 OFFCURVE",
"298 460 CURVE SMOOTH",
"395 460 OFFCURVE",
"454 400 OFFCURVE",
"454 301 CURVE SMOOTH",
"454 202 OFFCURVE",
"395 142 OFFCURVE",
"298 142 CURVE SMOOTH",
"200 142 OFFCURVE",
"141 202 OFFCURVE",
"141 301 CURVE SMOOTH"
);
}
);
width = 594;
},
{
layerId = "CD42366C-28E1-4C24-AB95-7D2C522D2B07";
name = Bold;
paths = (
{
closed = 1;
nodes = (
"44 137 OFFCURVE",
"145 38 OFFCURVE",
"297 38 CURVE SMOOTH",
"448 38 OFFCURVE",
"550 137 OFFCURVE",
"550 286 CURVE SMOOTH",
"550 435 OFFCURVE",
"448 535 OFFCURVE",
"297 535 CURVE SMOOTH",
"145 535 OFFCURVE",
"44 435 OFFCURVE",
"44 286 CURVE SMOOTH"
);
},
{
closed = 1;
nodes = (
"163 375 OFFCURVE",
"214 430 OFFCURVE",
"298 430 CURVE SMOOTH",
"381 430 OFFCURVE",
"432 375 OFFCURVE",
"432 286 CURVE SMOOTH",
"432 197 OFFCURVE",
"381 142 OFFCURVE",
"298 142 CURVE SMOOTH",
"214 142 OFFCURVE",
"163 197 OFFCURVE",
"163 286 CURVE SMOOTH"
);
}
);
width = 594;
}
);
unicode = 0966;
},
{
glyphname = "one-deva";
lastChange = "2015-05-28 17:59:49 +0000";
layers = (
{
layerId = UUID0;
name = Regular;
paths = (
{
closed = 1;
nodes = (
"110 252 LINE",
"170 250 LINE",
"246 257 OFFCURVE",
"340 301 OFFCURVE",
"407 358 CURVE SMOOTH",
"455 399 OFFCURVE",
"495 452 OFFCURVE",
"495 526 CURVE SMOOTH",
"495 626 OFFCURVE",
"421 708 OFFCURVE",
"305 708 CURVE SMOOTH",
"212 708 OFFCURVE",
"121 655 OFFCURVE",
"121 553 CURVE SMOOTH",
"121 465 OFFCURVE",
"189 416 OFFCURVE",
"270 381 CURVE",
"318 440 LINE",
"253 463 OFFCURVE",
"205 491 OFFCURVE",
"205 550 CURVE SMOOTH",
"205 607 OFFCURVE",
"245 639 OFFCURVE",
"309 639 CURVE SMOOTH",
"381 639 OFFCURVE",
"411 597 OFFCURVE",
"411 534 CURVE SMOOTH",
"411 481 OFFCURVE",
"392 445 OFFCURVE",
"361 412 CURVE SMOOTH",
"305 361 OFFCURVE",
"218 322 OFFCURVE",
"110 322 CURVE"
);
},
{
closed = 1;
nodes = (
"111 252 LINE",
"370 81 LINE SMOOTH",
"407 56 OFFCURVE",
"433 32 OFFCURVE",
"433 4 CURVE SMOOTH",
"433 -9 OFFCURVE",
"428 -23 OFFCURVE",
"416 -38 CURVE",
"486 -58 LINE",
"497 -37 OFFCURVE",
"504 -12 OFFCURVE",
"504 14 CURVE SMOOTH",
"504 53 OFFCURVE",
"488 93 OFFCURVE",
"443 123 CURVE SMOOTH",
"168 308 LINE"
);
}
);
width = 594;
},
{
layerId = "CD42366C-28E1-4C24-AB95-7D2C522D2B07";
name = Bold;
paths = (
{
closed = 1;
nodes = (
"110 222 LINE",
"170 220 LINE",
"247 227 OFFCURVE",
"340 273 OFFCURVE",
"407 328 CURVE SMOOTH",
"463 374 OFFCURVE",
"517 439 OFFCURVE",
"517 523 CURVE SMOOTH",
"517 628 OFFCURVE",
"433 708 OFFCURVE",
"305 708 CURVE SMOOTH",
"201 708 OFFCURVE",
"99 656 OFFCURVE",
"99 551 CURVE SMOOTH",
"99 466 OFFCURVE",
"167 416 OFFCURVE",
"248 381 CURVE",
"296 462 LINE",
"257 478 OFFCURVE",
"227 497 OFFCURVE",
"227 540 CURVE SMOOTH",
"227 584 OFFCURVE",
"259 611 OFFCURVE",
"309 611 CURVE SMOOTH",
"365 611 OFFCURVE",
"389 576 OFFCURVE",
"389 523 CURVE SMOOTH",
"389 475 OFFCURVE",
"369 442 OFFCURVE",
"339 412 CURVE SMOOTH",
"288 361 OFFCURVE",
"209 322 OFFCURVE",
"110 322 CURVE"
);
},
{
closed = 1;
nodes = (
"111 222 LINE",
"348 80 LINE SMOOTH",
"387 56 OFFCURVE",
"411 32 OFFCURVE",
"411 2 CURVE SMOOTH",
"411 -8 OFFCURVE",
"408 -23 OFFCURVE",
"394 -38 CURVE",
"508 -69 LINE",
"517 -45 OFFCURVE",
"526 -16 OFFCURVE",
"526 14 CURVE SMOOTH",
"526 53 OFFCURVE",
"510 93 OFFCURVE",
"465 123 CURVE SMOOTH",
"190 308 LINE"
);
}
);
width = 594;
}
);
unicode = 0967;
},
